<?xml version="1.0" encoding="UTF-8"?>
<svg id="Layer_2" data-name="Layer 2" xmlns="http://www.w3.org/2000/svg" viewBox="0 0 261.8 104.71">
  <defs>
    <style>
      .cls-1 {
        fill: #e6e2d9;
      }

      .cls-2 {
        fill: #90897e;
      }

      .cls-3 {
        fill: #b8cac4;
      }

      .cls-4 {
        fill: none;
      }

      .cls-5 {
        fill: #eedbc4;
      }

      .cls-6 {
        fill: #504a47;
      }
    </style>
  </defs>
  <g id="Layer_1-2" data-name="Layer 1">
    <g id="Paper">
      <g>
        <g id="Paper-2" data-name="Paper">
          <g id="Paper-3" data-name="Paper">
            <path class="cls-6" d="m255.93,28.9c-1.42-2.32-3.41-4.27-4.24-6.95l-.49-.84c-.82-1.22-1.12-1.81-1.98-2.97-2.41-3.27-5.36-5.28-9.72-5.27-34.96.04-69.92-.07-104.87,0-6.08.01-12,1.67-17.96,2.76-2.01.36-3.98.54-6,.5-11.9,2.05-23.66,5.31-35.95,4.15-2.75-6.02-6.78-11.08-9.83-16.72C63.34.71,61.23.02,58.14.05,42.14.2,26.13.1,10.13.2,6.84.22,3.52-.44.26.56c-.09,5.16-.17,10.32-.26,15.47l.03,4.47c-.01,4.38-.01,8.77-.02,13.16.06,15.18.49,30.37.04,45.53-.32,10.98,6.48,17.91,12.45,25.52h59.82c1.81-3.63.75-6.98,1.25-10.23,2.9-.21,5.57-.56,8.25-.58,3.96-.02,7.59.71,9.86,4.65.79,1.36,2.31,2.31,3.5,3.44,1.55.78,3.11,1.56,4.67,2.34,9.37.07,18.75.09,28.13.22,5.36.07,10.65.2,15.29-3.26,1.86-1.4,4.22-1.04,6.42-1.04,11.4.01,22.8.08,34.2.02,9.68-.06,13.44-4.12,13.17-13.99-.01-.55,0-1.1,0-1.65-.44-3.45-3.55-5.57-4.37-8.82-1.78-2.27-3.67-4.48-4.59-8.09,9.46,0,18.54-.28,27.59.12,4.51.2,8.47-.58,11.67-3.54,2.14-1.98,4.28-2.38,6.96-2.21,6.16.4,12.22.31,15.91-6.02.33-.56,1.11-1.02,1.77-1.21,5.29-1.5,7.92-5.49,9.75-10.27.51-6.14-2.82-10.83-5.82-15.69Zm-128.62-10.95c7.82-1.17,15.61-1.48,23.48-.28,2.02.31,4.14-.67,6.32-.67,27.03.06,54.06.06,81.1,0,3.41-.01,5.89.57,7.3,4.29,1.38,3.66,1.86,6.87-.66,10.13-.9,1.18-1.92,1.6-3.32,1.1-1.99-9.75-4.81-12.02-14.91-12.03-22.99-.01-45.98-.03-68.96-.01-1.97,0-4.02-.38-5.99.81-.47,3.66,2.47,3.08,4.32,3.13,6.43.2,12.87.15,19.31.15,17.83.02,35.68.3,53.5-.13,7.42-.17,10.04,7.21,7.86,12.31-1.72,4.01-4.96,4.85-8.99,4.83-22.98-.12-45.97.02-68.95-.19-4.01-.04-7.07.96-9.77,3.85-2,2.15-4.55,3.79-6.44,6.01-5.09,5.96-11.04,9.39-19.16,7.85-1.46-.28-2.99-.06-3.66,1.99,2.16,3.25,5.58,1.26,8.39,1.8.54.02,1.09.04,1.63.07,4.97,0,9.94,0,14.91.01,11.16-.48,22.32-1.43,33.45.43,2.22.85,3.55,2.67,4.39,4.69,2.46,5.99-1.38,11.77-7.91,11.83-12.14.11-24.28.03-36.42.06-1.99,0-4.06-.36-5.91.8-5.24,3.27-11.01,3.63-16.99,3.39-6.79-.27-13.6-.05-20.39-.33-6.41-.26-11.45-2.75-13.08-9.85-5.88-1.04-11.76.07-17.99-.64V25.45c.32-.16.8-.61,1.25-.58,21.15,1.14,41.61-3.84,62.29-6.92Zm84.18,27.98c-.04.26-.08.51-.13.77h-56.86v-.77h56.99ZM63.53,10.75c2.99,3.06,4.84,5.89,5.95,9.61-2.42.25-4.03.6-5.82-.32-.51-2.73-.39-5.57-.13-9.29ZM4.33,4.71h54.63c.95,3.28.32,6.47.25,9.97H4.68c-.67-3.2-.34-6.28-.35-9.97Zm.31,13.58h.01c.37-.04.73-.08,1.1-.12,1.5.02,3,.05,4.5.07,6.94,0,13.88,0,20.82.02.8-.01,1.6-.01,2.39-.01,1.13-.03,2.26-.07,3.38-.1,6.24-.16,12.47-.21,18.7,0,.82.03,1.63.06,2.45.1.3.01.6.02.9.04,1.67,2.9,1.07,5.89.37,8.89-.18.73-.59,1.25-1.27,1.55-.05.02-.1.04-.16.06-.01,0-.02.01-.03.01-.09.09-.17.16-.26.21-.05.04-.09.07-.14.09-.08.04-.16.06-.23.07-.08.01-.15,0-.22-.02-.11-.03-.22-.09-.32-.19-.05-.04-.09-.09-.13-.14-.02-.01-.02-.02-.03-.03s-.03-.03-.04-.05c-4.82.02-9.63.03-14.44.05-.96,0-1.93.01-2.89.01-5.29.78-10.59.78-15.88,0H7.08c-.42.19-.84.35-1.23.35-.09,0-.17-.01-.25-.03-.03,0-.06,0-.08-.02-.03,0-.06-.01-.09-.03-.14-.05-.29-.14-.42-.28-.12-.11-.23-.26-.33-.45,0-1.13,0-2.26,0-3.39h-.02l-.32-.08c-.59-2.22-1.26-4.45.31-6.58Zm-.3,18.36c.04-.44.09-.88.15-1.32.06-.4.12-.8.17-1.2.06-.48.12-.97.16-1.45.01-.73.36-.93,1.01-.67,5.47.01,10.93.02,16.4.03h36.74c.58,3.55.51,6.77-.02,10.38H5.66c-.1-.13-.18-.24-.26-.37s-.16-.25-.22-.38c-.15-.25-.27-.5-.37-.75-.06-.13-.11-.26-.15-.39v-.02c-.07-.19-.13-.39-.17-.59-.05-.19-.09-.38-.11-.58-.02-.12-.04-.24-.05-.36-.02-.12-.03-.24-.03-.35-.02-.22-.03-.44-.03-.66,0-.44.03-.88.07-1.32Zm.23,9.4h54.61c.29,3.72.46,6.95-.44,10.22H4.81c-.82-3.55-.58-6.75-.24-10.22Zm-.19,14.05h54.69c.49,3.3.65,6.51-.24,9.96H4.71c-.74-3.23-.33-6.3-.33-9.96Zm.27,23.54c-.71-3.09-.32-6.19-.16-9.97h54.27c.63.1.85.43.56,1.03.05.68.1,1.37.15,2.05.3.51.23.97-.22,1.36-.1,1.8-.2,3.6-.33,5.96H13.64c-.46.01-.93.01-1.39.01-2.12.02-4.24.04-6.36.06-.59.27-1.02.14-1.24-.5Zm57.17,16.98c-.57,0-1.13-.02-1.69-.02-3.09.7-6.18.87-9.27-.03-.62-.02-1.24-.04-1.86-.06-10.77,1.04-21.54.96-32.31.03-.64.01-1.29.01-1.94.02-.76.56-1.07.19-1.21-.58-2.38-3.75-4.42-7.73-7.55-10.95.12-1.52,1.1-1.05,1.97-.85,3.34.02,6.69.03,10.04.05,1.41-.38,2.83-.41,4.25-.01h34.44c.54,0,1.08,0,1.62.01,1.38-.37,2.09.31,2.72,1.3.08.12.16.24.24.38,2.02,3.37,4.12,6.7,6.19,10.04-1.68,1.98-3.7,1.01-5.64.67Zm1.87-16.2c2.83,2.62,4.88,5.7,6.27,10.34-3.78-3.21-5.61-6.42-6.27-10.34Zm128.82.02c2.6,6.16-1.29,11.98-7.98,12.05-12.12.12-24.25.02-36.38.03-1.82,0-3.82-.46-5.41.57-6.28,4.06-13.28,3.59-20.24,3.46-6.06-.12-12.12.35-18.17-.26-4.86-.5-8.94-2.26-11.3-6.73-1.5-2.84-3.65-3.79-6.73-3.51-2.18.2-4.44-.23-6.6.08-5.49.81-8.96-1.43-11.09-6.42-.75-1.76-2.07-3.28-3.55-5.54h13.49c4,8.28,11.69,10.1,20.46,9.9,6.61-.16,13.23-.2,19.83,0,4.48.13,8.76-.32,12.81-2.29,1.05-.57,2.11-1.15,3.16-1.72,3.81-1.09,7.64-.74,11.47-.14,9.02,0,18.04-.01,27.06-.01.16-.01.32-.01.47-.02.15,0,.29-.01.43-.02.09,0,.18,0,.26,0,.08,0,.15,0,.22-.01h.13c1.13-.04,1.92-.06,3.38-.15,4.63-.6,6.37-4.49,8.89-8.49,2.01,3.39,4.09,6.15,5.39,9.23Zm56.25-34.26c-.37.06-.73.12-1.1.18-.09.19-.17.38-.24.58-.02.07-.05.14-.07.21-.11.35-.2.71-.29,1.08-.05.19-.09.37-.15.56-.03.1-.06.2-.09.31-.05.15-.1.3-.16.44-.05.13-.11.26-.18.38-.01.03-.03.06-.04.09-.05.08-.09.16-.15.23-.16.26-.37.49-.63.71,0,.01-.01.02-.01.03-.02.07-.04.14-.07.2-.04.11-.09.21-.16.3-.06.09-.13.17-.21.24-.05.05-.11.1-.17.13-.19.1-.41.19-.67.22.03.01.07.01.1.01-2.93,3.16-6.64,1.44-10.05,1.62-4.05.13-8.33-.43-10.65,4.22-.42.85-1.6.6-2.49.58-.63,1.36-2.11,1.67-3.16,1.56-9.97-1.06-19.97-.2-29.96-.55-2.07-.07-4.49.52-5.75-2.02-2.96-2.61-6.53-2.53-10.19-2.5-10.24.09-20.48.04-31.67.04,4.41-4.87,7.92-8.23,14.63-8.02,18.9.58,37.84.27,56.76.32,1.54-.83,3.08-1.65,4.62-2.48.47-.28.66-.45,1.15-.89,2.18-1.48,3.38-2.22,5.37-2.2,1.68.02,3.36.06,5.02-.01.18,0,.35,0,.52-.02.31-.01.63-.04.94-.07.05,0,.1,0,.16-.01.14-.01.27-.02.41-.04.34-.03.68-.08,1.02-.13.38-.05.76-.12,1.14-.21.18-.03.36-.07.54-.12.26-.06.51-.13.76-.21.15-.04.31-.09.46-.14.28-.09.55-.19.83-.3.25-.09.49-.2.74-.31.05-.02.1-.04.15-.07.14-.07.27-.13.41-.2.16-.08.33-.16.49-.26.19-.1.38-.22.57-.33.02-.02.05-.03.07-.05h.01s-.01-.01,0-.01c.04-.1.09-.19.15-.27.05-.08.11-.15.17-.22.22-.23.49-.41.81-.54.14-.23.27-.47.4-.71.18-.35.36-.7.55-1.04.12-.24.26-.48.41-.71.27-.42.58-.8.96-1.1.05-.04.11-.08.16-.12.18-.13.37-.24.59-.33.14-.06.29-.11.45-.15.14-.04.29-.06.44-.08.26-.03.54-.04.84-.02l.29.04c1.26-.83,2.51-1.65,3.76-2.48.31-.29.61-.59.92-.88.28-.33.56-.66.84-.99.78-1.18.68-2.86,2.51-4.05,1.79,3.12,3.88,6.07,5.24,9.33,2.46,5.92-1.51,11.24-8.05,11.23Z"/>
          </g>
          <path class="cls-4" d="m.03,20.5c-.01,4.38-.01,8.77-.02,13.16"/>
          <path class="cls-1" d="m178.07,63.39c2.22.85,3.55,2.67,4.38,4.69,2.46,5.99-1.37,11.78-7.91,11.83-12.14.11-24.27.03-36.41.06-2,0-4.07-.36-5.91.8-5.24,3.27-11.01,3.63-16.99,3.4-6.79-.27-13.6-.05-20.39-.33-6.41-.26-11.45-2.75-13.08-9.85-5.89-1.03-11.77.08-17.99-.64V25.44c.32-.15.8-.6,1.25-.58,21.15,1.14,41.61-3.84,62.28-6.92,7.82-1.16,15.61-1.47,23.48-.28,2.03.31,4.15-.68,6.32-.67,27.03.06,54.06.06,81.1-.01,3.41,0,5.9.57,7.3,4.3,1.38,3.66,1.86,6.86-.65,10.13-.91,1.17-1.92,1.59-3.32,1.1-2-9.75-4.81-12.03-14.92-12.03-22.99-.01-45.97-.03-68.96-.02-1.97,0-4.02-.38-5.98.82-.47,3.66,2.46,3.07,4.32,3.13,6.43.2,12.87.15,19.3.15,17.84.01,35.68.3,53.51-.13,7.41-.18,10.04,7.2,7.85,12.3-1.72,4.01-4.95,4.85-8.98,4.83-22.99-.11-45.97.02-68.96-.19-4.01-.04-7.07.96-9.77,3.85-2,2.14-4.55,3.79-6.45,6.01-5.08,5.96-11.04,9.39-19.16,7.85-1.46-.28-2.99-.06-3.66,1.99,2.16,3.25,5.58,1.27,8.39,1.8.52.56,1.06.58,1.63.07,4.97,0,9.94,0,14.91.01,11.14.93,22.3.03,33.45.43Z"/>
          <path class="cls-5" d="m178.23,83.69c4.63-.6,6.37-4.49,8.88-8.49,2.02,3.39,4.1,6.14,5.4,9.23,2.6,6.16-1.29,11.98-7.98,12.05-12.12.12-24.25.02-36.37.03-1.82,0-3.82-.46-5.41.57-6.29,4.06-13.28,3.59-20.25,3.46-6.06-.12-12.11.35-18.17-.26-4.86-.49-8.93-2.26-11.3-6.73-1.5-2.84-3.65-3.79-6.73-3.5-2.19.2-4.44-.23-6.6.08-5.49.81-8.96-1.44-11.09-6.43-.75-1.76-2.07-3.27-3.55-5.54h13.48c4,8.28,11.69,10.11,20.46,9.9,6.61-.15,13.23-.2,19.84,0,4.48.13,8.75-.32,12.81-2.29,1.98,1.41,3.18-.05,4.46-1.22l.51-.05.51.09c1.02.9,2.26,1.08,3.56,1.08,11.08,0,22.16,0,33.24,0,1.47,0,2.92-.04,4.06-1.19.12-.25.2-.51.24-.79Z"/>
          <path class="cls-5" d="m243.25,37.98l.3.04c1.83.04,3.65.07,3.76-2.49l-.1.09c.49-.16,1.92.66,1.02-.97.28-.33.56-.66.84-.99,6.47,3.64,6.87,10.83.87,14.75-.54.35-.79,1.16-1.17,1.76-.36.06-.73.12-1.09.18-1.49-.57-2.93-1.68-4.94-.24,1.21,1.49,3.02,2.69,2.89,4.86l.08-.15c-.44.41-.88.83-1.33,1.24h.1c-2.86-.08-5.32-1.09-7.46-3.02-2.6-2.35-5.41-1.79-9.61-.71,3.6,1.65,7.65.88,7.02,5.37-4.05.13-8.33-.43-10.65,4.22-.42.85-1.57,1.61-2.47,1.59-3.19.36-3.24-.71-6.75-.58-8.25.3-19.25-2.67-27.51-2.67-1.65,0-3.33-.1-4.64,1.23-2.97-2.61-6.54-2.53-10.19-2.5-10.24.09-20.48.03-31.67.03,4.4-4.87,7.92-8.22,14.62-8.02,18.91.58,37.84.28,56.76.32,1.94-.07,4.24.52,4.62-2.47.97-.59.8-.48,1.15-.89,4.48,2.51,9.32,1.54,13.9.84,2.59-.39,5.78-1.66,5.72-5.53l-.11.25c.47-.45.94-.89,1.41-1.34l-.22.14c3.23-2.76,3.11-2.39,4.84-4.34Z"/>
          <path class="cls-5" d="m13.54,99.98c-2.38-3.75-4.42-7.73-7.56-10.95.66-.28,1.31-.57,1.97-.85,3.35.02,6.7.04,10.04.06,1.42.93,2.84.92,4.25-.02,11.48,0,22.96,0,34.44,0,.54,0,1.08,0,1.62.01,1.49-.12,2.26.5,2.96,1.68,2.02,3.38,4.12,6.7,6.18,10.05-1.87.33-3.85-.29-5.64.66-.56,0-1.12-.01-1.69-.02-3.09-.91-6.18-.63-9.27-.03l-1.86-.06c-10.77-.59-21.54-.72-32.31.03-.65,0-1.29,0-1.94.01-.4-.19-.81-.38-1.21-.57Z"/>
          <path class="cls-3" d="m59.07,60.1c.49,3.3.65,6.51-.25,9.96H4.71c-.74-3.23-.33-6.29-.33-9.96h54.7Z"/>
          <path class="cls-3" d="m58.96,4.71c.95,3.27.32,6.47.25,9.97H4.68c-.67-3.21-.34-6.28-.36-9.97h54.63Z"/>
          <path class="cls-3" d="m59.18,46.04c.28,3.72.46,6.95-.45,10.22H4.81c-.82-3.54-.58-6.74-.24-10.22h54.61Z"/>
          <path class="cls-3" d="m12.25,84.08c-2.12.02-4.24.04-6.36.06-.41-.17-.83-.34-1.24-.51-.7-3.09-.32-6.19-.16-9.97h54.27c.19.34.38.69.57,1.03.05.68.1,1.36.15,2.05-.07.45-.15.91-.22,1.36-.1,1.8-.2,3.6-.33,5.96-15.28,0-30.28,0-45.28,0-.47-.44-.93-.43-1.39.01Z"/>
          <path class="cls-3" d="m22.23,32.03h36.74c.57,3.55.51,6.77-.02,10.39H5.66c.02-.91.04-1.82.06-2.72.12-5.96.17-6.02,6.19-6.05,4.07-.02,8.14,0,13.09,0-1.53-.89-2.15-1.25-2.77-1.61Z"/>
          <path class="cls-3" d="m31.07,18.25c.8,0,1.59,0,2.39,0,2.3,1.74,4.97.89,7.48,1.05,5.27.33,10.6-.52,15.73.56,1.77,6.39,1.26,7.2-4.7,7.22-13.61.05-27.23,0-40.84.06-2.46.01-4.79-.06-6.48-2.21l-.33-.07c.16-1.88.32-3.77.48-5.65.31-.35.62-.7.93-1.06,1.5.03,3.01.05,4.51.08,6.94,1.82,13.88,1.65,20.82.01Z"/>
          <path class="cls-3" d="m57.99,18.25v10.48s-.1.04-.16.06c-.01,0-.02.01-.03.01-.08,0-.15-.01-.23-.01-.38-.02-.76-.03-1.14-.05-4.82.02-9.63.03-14.44.05-.96,0-1.93.01-2.89.01-.02,0-.04-.01-.06-.01-.65-.11-1.3-.21-1.94-.3l-.24-.03c-.26-.04-.51-.07-.77-.09-.72-.09-1.44-.15-2.16-.2-.6-.04-1.21-.06-1.82-.08-1.05-.02-2.09-.01-3.13.04-.35.02-.7.04-1.05.07-.39.03-.78.06-1.17.1-.47.04-.93.1-1.4.16-.11.02-.22.04-.34.05-.58.08-1.16.17-1.74.28-.02,0-.04.01-.06.01H7.07c-.7-.66-1.57-.4-2.39-.46,0-1.13,0-2.26,0-3.39,1.68,2.14,4.01,2.21,6.47,2.2,13.61-.06,27.23-.02,40.84-.06,5.95-.03,6.47-.83,4.7-7.22-5.14-1.08-10.47-.24-15.73-.57-2.52-.15-5.19.69-7.49-1.05,1.13-.03,2.26-.07,3.38-.1,6.24-.16,12.47-.21,18.7,0,.82.03,1.63.06,2.45.1Z"/>
          <path class="cls-5" d="m182.42,61.49c1.3-1.33,2.98-1.23,4.64-1.23,8.26,0,16.53.21,24.78-.1,3.51-.13,5.99,2.9,9.45,2.33,4.67.29-2.11,1.67-3.15,1.56-9.98-1.06-19.98-.19-29.96-.55-2.08-.07-4.49.52-5.75-2.02Z"/>
          <path class="cls-5" d="m178.23,83.7c.41,1.58-2.95,2.17-4.3,1.97-11.08,0-22.16,0-33.24,0-1.3,0-2.54-.18-3.56-1.08,3.02-.61,6.16.45,9.14-.67,9.02,0,18.04,0,27.06,0,2.62-.1,3.36-.18,4.89-.21Z"/>
          <path class="cls-5" d="m248.76,50.18c.38-.6.63-1.41,1.17-1.76,6-3.92,5.6-11.11-.87-14.75.78-1.19.68-2.87,2.52-4.05,1.78,3.12,3.88,6.07,5.24,9.33,2.46,5.92-1.51,11.24-8.05,11.23Z"/>
          <path class="cls-5" d="m237.33,43.27c.07,3.86-3.13,5.13-5.72,5.53-4.58.7-9.42,1.67-13.9-.84,2.76-1.73,3.38-2.22,5.37-2.2,4.93.06,9.84.3,14.25-2.49Z"/>
          <path class="cls-1" d="m211.36,46.69h-56.86c0-.26,0-.51,0-.77h56.99c-.04.26-.09.51-.13.77Z"/>
          <path class="cls-3" d="m22.23,32.03c.62.36,1.24.72,2.77,1.61-4.95,0-9.02-.01-13.09,0-6.02.02-6.07.09-6.19,6.05-.02.91-.04,1.82-.06,2.72-2.31-3.07-1.1-6.45-.83-9.75.34-.22.67-.44,1.01-.66,5.46,0,10.93.02,16.39.02Z"/>
          <path class="cls-5" d="m234.42,57.7c.63-4.49-3.42-3.72-7.02-5.37,4.2-1.08,7.01-1.64,9.61.71,2.14,1.94,4.6,2.94,7.46,3.03-2.93,3.16-6.64,1.44-10.05,1.63Z"/>
          <path class="cls-1" d="m69.48,20.36c-2.42.25-4.03.59-5.82-.33-.51-2.73-.39-5.57-.13-9.28,2.99,3.06,4.84,5.89,5.95,9.61Z"/>
          <path class="cls-1" d="m178.07,63.39c-11.15-.4-22.31.49-33.45-.43,11.16-.48,22.32-1.43,33.45.43Z"/>
          <path class="cls-5" d="m16.69,100.54c10.77-.76,21.54-.62,32.31-.03-10.77,1.04-21.54.96-32.31.03Z"/>
          <path class="cls-3" d="m31.07,18.25c-6.94,1.64-13.88,1.81-20.82-.01,6.94,0,13.88,0,20.82.01Z"/>
          <path class="cls-6" d="m69.96,94.75c-3.78-3.21-5.61-6.42-6.27-10.34,2.82,2.62,4.88,5.7,6.27,10.34Z"/>
          <path class="cls-3" d="m23.22,28.79c5.29-.97,10.59-.94,15.88,0-5.29.78-10.59.78-15.88,0Z"/>
          <path class="cls-5" d="m245.62,54.97c.12-2.17-1.68-3.37-2.89-4.86,2.01-1.43,3.45-.33,4.94.24-.76,1.5-.56,3.43-2.05,4.61Z"/>
          <path class="cls-5" d="m146.28,83.91c-2.98,1.12-6.12.06-9.14.67l-.51-.09-.51.05c-.43-.16-.87-.33-1.3-.49,3.81-1.09,7.64-.74,11.47-.14Z"/>
          <path class="cls-5" d="m243.25,37.98c-.81,2.35-2.14,4.11-4.84,4.34,1.18-1.93,1.75-4.55,4.84-4.34Z"/>
          <path class="cls-5" d="m50.86,100.57c3.09-.61,6.18-.88,9.27.03-3.09.7-6.18.87-9.27-.03Z"/>
          <path class="cls-5" d="m216.56,48.85c-.38,2.99-2.68,2.4-4.62,2.47,1.54-.82,3.08-1.65,4.62-2.47Z"/>
          <path class="cls-3" d="m4.82,19.22c-.16,1.88-.32,3.77-.48,5.65-.59-2.23-1.27-4.46.31-6.58.05.31.11.62.17.93Z"/>
          <path class="cls-5" d="m61.82,100.61c1.8-.95,3.77-.33,5.64-.66-1.67,1.98-3.7,1-5.64.66Z"/>
          <path class="cls-5" d="m134.81,84.06c.43.16.87.33,1.3.49-1.28,1.17-2.48,2.63-4.46,1.22,1.05-.57,2.11-1.14,3.16-1.72Z"/>
          <path class="cls-5" d="m247.3,35.53c-.11,2.56-1.94,2.52-3.76,2.49,1.25-.83,2.51-1.66,3.76-2.49Z"/>
          <path class="cls-5" d="m22.25,88.21c-1.41.94-2.83.95-4.25.02,1.41-.39,2.83-.41,4.25-.02Z"/>
          <path class="cls-5" d="m7.96,88.17c-.66.28-1.31.57-1.97.85.12-1.52,1.11-1.05,1.97-.85Z"/>
          <path class="cls-5" d="m248.22,34.66c.91,1.63-.52.81-1.02.97.34-.32.68-.65,1.02-.97Z"/>
          <path class="cls-3" d="m4.68,28.34c.82.06,1.7-.2,2.4.45-.91.41-1.79.67-2.4-.45Z"/>
          <path class="cls-2" d="m59.32,74.7c-.19-.34-.38-.69-.57-1.03.63.1.85.43.57,1.03Z"/>
          <path class="cls-3" d="m58.31,88.22c-.54,0-1.08,0-1.62-.01.54,0,1.08,0,1.62.01Z"/>
          <path class="cls-2" d="m13.54,99.98c.4.19.81.38,1.21.57-.76.57-1.08.19-1.21-.57Z"/>
          <path class="cls-5" d="m244.37,56.06c.44-.41.88-.83,1.33-1.24-.11.61-.57,1.16-1.33,1.24Z"/>
          <path class="cls-3" d="m12.25,84.08c.46-.44.92-.45,1.39-.01-.46,0-.93,0-1.39.01Z"/>
          <path class="cls-3" d="m56.43,28.73c.46.02.92.04,1.37.07-.48.49-.94.52-1.37-.07Z"/>
          <path class="cls-3" d="m4.82,19.22c-.06-.31-.12-.62-.17-.93.37-.04.73-.08,1.1-.13-.31.35-.62.7-.93,1.06Z"/>
          <path class="cls-3" d="m5.83,32.01c-.34.22-.67.44-1.01.66,0-.73.35-.93,1.01-.66Z"/>
          <path class="cls-1" d="m238.63,42.18c-.47.45-.94.89-1.41,1.34.22-.71.73-1.11,1.41-1.34Z"/>
          <path class="cls-2" d="m4.65,83.63c.41.17.83.34,1.24.51-.59.27-1.02.14-1.24-.51Z"/>
          <path class="cls-2" d="m59.25,78.11c.07-.45.15-.91.22-1.36.3.52.23.97-.22,1.36Z"/>
          <path class="cls-1" d="m129.71,62.94c-.57.5-1.11.49-1.63-.07.54.02,1.09.05,1.63.07Z"/>
          <rect class="cls-6" x="2.91" y="27.14" width="1.75" height="15.9"/>
          <rect class="cls-3" x="11.61" y="33.5" width="1.99" height="15.9" transform="translate(-28.85 54.06) rotate(-90)"/>
          <rect class="cls-3" x="4.65" y="18.15" width="53.34" height="10.64"/>
          <path class="cls-6" d="m58.03,18.15l1.9.15.43,8.19-2.05,2.32h-.27s2.43-5.24.07-10.51l-.07-.14Z"/>
        </g>
        <path class="cls-3" d="m57.98,18.15s2.77,4.74,0,10.65"/>
      </g>
      <rect class="cls-6" x="4.65" y="28.79" width="53.32" height="1.67"/>
      <rect class="cls-6" x="12.57" y="99.95" width="55.66" height="1.58"/>
      <rect class="cls-6" x="5.65" y="86.7" width="55.66" height="1.58"/>
      <rect class="cls-6" x="-1.27" y="22.29" width="10.32" height="1.5" transform="translate(-19.14 26.93) rotate(-90)"/>
    </g>
  </g>
</svg>