<?xml version="1.0" encoding="UTF-8"?>
<svg id="Layer_2" data-name="Layer 2" xmlns="http://www.w3.org/2000/svg" viewBox="0 0 213.16 136">
  <defs>
    <style>
      .cls-1 {
        fill: #ea9785;
      }

      .cls-2 {
        fill: #e6e2d9;
      }

      .cls-3 {
        fill: #ed9987;
      }

      .cls-4 {
        fill: #b8cac4;
      }

      .cls-5 {
        fill: #eedbc4;
      }

      .cls-6 {
        fill: #504a47;
      }
    </style>
  </defs>
  <g id="Layer_1-2" data-name="Layer 1">
    <g id="Rock">
      <path class="cls-3" d="m152.51,127.92c-.18-.02-.34-.04-.5-.04.11.13.23.26.35.38.2.21.4.39.62.55.03-.11.06-.24.09-.37.03-.13.05-.26.07-.41-.22-.05-.43-.09-.63-.11Zm-29.43-21.06h-.07s-.06-.03-.08-.04c-.11-.04-.23-.07-.34-.1-.14-.04-.28-.06-.41-.08-.14-.02-.27-.03-.41-.03-.13,0-.26.01-.39.03-.09.01-.17.03-.25.06-.09.02-.18.05-.26.09-.07.02-.14.05-.2.09-.01,0-.01.01-.02.01,0,0,0,0,0,.01t-.02,0c-.08.04-.16.09-.24.15h-.01s-.01.02-.01.03c-.02.03-.03.05-.04.08h.03s.1.01.15.01c.12,0,.24,0,.37-.01.47-.01,1.01-.08,1.62-.2.07,0,.14-.02.21-.03.13-.03.26-.05.39-.07h.01s.03-.01.04-.01,0-.01,0-.01h-.07Zm.7-.12c.14-.03.29-.05.43-.08h0c-.15-.01-.29.02-.44.08Zm5.42-.56c-1.31-.04-2.58.09-3.86.29,1.22-.18,2.5-.29,3.92-.26-.02-.01-.04-.02-.06-.03Zm.24-4.18c-.02-.21-.04-.42-.06-.63-.1-.95-.27-1.9-.45-2.85-.07-.37-.15-.74-.22-1.11-.11-.58-.23-1.17-.34-1.76-.05-.31-.11-.62-.16-.94-.05-.29-.09-.57-.13-.86-.06-.4-.11-.81-.15-1.22-3.72.42-6.32-1.54-8.58-4.06-1.47-1.64-2.8-3.4-4.25-5.05-1.54-1.76-3.38-2.73-5.36-1.99-2.12,1.43-.85,4.84-3.92,5.16-.86-1.16-.63-2.11-.18-3.21,1.4-3.38,2.09-5.9,1.95-7.83,0-.17-.03-.33-.06-.49,0-.08-.02-.16-.04-.24-.04-.17-.08-.33-.13-.49-.05-.15-.11-.3-.17-.45-.06-.14-.13-.28-.21-.41-1.16-1.96-3.93-2.99-8.63-3.67-.01-.06-.02-.12-.03-.18-.02-.11-.03-.23-.04-.35,0-.11,0-.22-.02-.34v-.14c0-.12,0-.25-.01-.37,0-.12,0-.24-.01-.36,0-.19-.02-.37-.05-.55-.03-.17-.07-.34-.13-.5,0,0-.01,0-.01-.02-.04-.09-.08-.19-.14-.28-.08-.14-.19-.28-.33-.4-.07-.07-.15-.14-.25-.2-.18-.13-.4-.24-.67-.34-.11.1-.21.2-.31.3-.2.19-.36.37-.5.55-.11.13-.19.26-.27.39-.01.02-.02.04-.03.06-.06.11-.11.22-.15.33-.02.07-.04.13-.05.2s-.02.15-.02.22,0,.13.02.2c.02.12.07.24.15.36.37.53,1.29.93,2.78,1.23l.03.18c.03.16.06.31.09.46.04.22.08.43.13.64.1.47.21.94.34,1.38.11.36.23.71.36,1.05.22.58.49,1.12.83,1.61.09.13.18.25.27.37,0,.01,0,.02,0,.02.07.08.13.16.2.23.06.09.14.17.22.25.14.15.29.29.45.42.14.13.3.25.46.36.17.12.35.23.54.34.12.07.25.13.38.19.15.08.3.15.46.21.21.09.42.16.65.23-.03.18-.06.35-.09.52h0c.1.05.2.09.3.12.1.04.21.08.31.12-.1.41-.22.77-.34,1.08-.21.5-.44.88-.7,1.15h0c-.06.38-.12.74-.18,1.1-.03.23-.06.46-.09.69-.03.25-.06.5-.08.75-.02.25-.04.49-.05.74-.08,1.95-.57,4.03.7,5.83,6.48-.03,12.95,6.07,13.59,12.77.02.18.04.36.06.53.01-.03.02-.05.04-.08.04-.11.09-.22.13-.34h12.18c-.01-.21-.03-.42-.04-.63Zm.18,4.22c-.12,0-.24-.01-.36-.01.14.08.27.15.39.22,0-.07-.02-.14-.03-.21Zm1.93,2.19c-.16-.55-.61-1.12-1.48-1.71-.13.01-.26.01-.4.01v.11c0,.13-.01.25-.02.38,0,.14-.03.28-.06.42-.02.11-.04.22-.07.33-.03.15-.07.31-.12.46-.16.58-.38,1.16-.55,1.74-.05.14-.09.29-.12.44-.01.01-.01.02-.01.03-.04.13-.07.27-.09.4-.02.15-.05.29-.06.43-.02.15-.03.3-.03.44,0,.72.21,1.44.8,2.16,0-.14,0-.28.03-.42.01-.11.03-.22.07-.32.03-.08.05-.15.08-.22.03-.08.07-.17.11-.25.07-.17.17-.34.27-.5.13-.22.27-.43.42-.64.08-.12.17-.24.25-.36.65-.96,1.27-1.92.98-2.93Zm-3.7,11.87c-.14,0-.29-.01-.42-.02-.1-.01-.19-.03-.28-.04h0s-.02-.01-.03-.01c-.1-.02-.19-.04-.28-.07-.12-.03-.24-.07-.35-.12-.15-.04-.29-.11-.42-.18-.1-.05-.2-.1-.29-.16-.13-.07-.27-.16-.39-.25-.17-.12-.33-.25-.49-.39-.13-.11-.27-.24-.4-.36-.76-.73-1.47-1.61-2.27-2.46-.15.96-.19,1.86-.13,2.72.02.25.04.5.07.75.02.19.05.37.08.56.03.18.06.37.1.55.05.23.1.46.16.69.1.39.2.76.33,1.14.04.15.09.3.14.45.05.15.1.3.16.45.1.29.21.59.32.88.23.61.47,1.21.7,1.82.15.38.29.76.43,1.15t0,.01c.05-.08.1-.16.15-.25.03-.05.06-.1.09-.16.13-.23.25-.46.36-.71,0-.01,0-.02.01-.03.14-.29.26-.6.37-.92.08-.24.16-.49.24-.74.11-.38.21-.78.29-1.19.09-.42.16-.84.22-1.29.24-.11.47-.21.71-.3.18-.07.37-.14.56-.2.07-.03.14-.05.21-.07.09-.03.19-.06.28-.08.53-.15,1.06-.27,1.6-.36.07-.01.13-.02.19-.03,0-.01,0-.03.01-.05.05-.41.11-.82.18-1.24-.83.36-1.56.51-2.21.51Zm25.37.16c-.12-.08-.23-.17-.35-.27-.27-.2-.53-.43-.79-.65-.19-.17-.39-.34-.59-.51-.1-.08-.2-.16-.3-.24-.14-.11-.28-.21-.42-.31-.17-.12-.35-.24-.53-.34-.14-.08-.28-.15-.43-.21-.15-.07-.3-.12-.46-.16-.12-.04-.25-.07-.37-.09-.07-.01-.14-.02-.22-.03-.11-.01-.22-.02-.33-.02-.1,0-.21.01-.31.02-.11.01-.23.03-.34.05-.08.02-.16.03-.24.05-.17.04-.35.1-.53.18-.15.06-.31.13-.47.21h-.01c.09.14.17.27.26.39.5.77.94,1.43,1.38,2.09.06.11.11.23.17.34h.01s.01.01.02.01c.23.13.46.23.7.3.02.01.04.02.06.02.1.03.21.06.32.08.13.02.26.04.39.06.17.02.33.03.5.03,1.01,0,2.1-.3,3.24-.76-.12-.07-.24-.15-.36-.24Zm-9.52-15.81h-.01c-.02.27-.03.55-.04.83h.01c.15-.09.31-.19.47-.31-.15-.18-.29-.35-.43-.52Zm-3.97,1.03c.23.13.46.22.69.29-.23-.07-.46-.17-.69-.29Zm-1-4.58c-.67.57-1.03,1.08-1.16,1.55h1.95v-1.33c-.25-.09-.51-.16-.79-.22Zm-39.41-20.5h-.01c-.53-.2-1.06-.41-1.58-.63-.04-.01-.07-.02-.1-.04-.4-.16-.79-.33-1.18-.51,0,.06.01.13.02.19,0,.04.01.08.02.12v.02c.01.08.03.16.06.23-.01.01,0,.03.01.04.03.11.07.21.12.31.01.03.03.07.05.1.06.11.13.21.21.3.01.02.03.04.04.04.05.06.09.1.14.13.02.02.05.04.08.06,0,.02.01.02.02.01.01.02.03.03.04.03.06.05.12.09.19.11.02.02.05.03.07.03.11.05.23.09.35.11.14.03.29.05.45.05.11,0,.21-.01.3-.03.04,0,.08-.01.11-.02.01,0,.02,0,.03-.01.05,0,.1-.02.15-.04.01,0,.02,0,.03-.01.04,0,.07-.02.11-.05.06-.02.12-.05.18-.1.03-.02.06-.04.09-.07.05-.03.1-.07.14-.13.04-.04.07-.09.1-.13h.01v-.02c-.09-.03-.17-.06-.25-.09Zm47.11,30.8h-.01c-.19-.05-.4-.06-.63-.03,0,0-.01.02-.01.03h0s.66.01.66.01c0,0,0-.01-.01-.01Zm-22.95-1.29c-.57,1.71-.11,2.68,1.7,3.13.74-1.8.24-2.74-1.7-3.13Zm-7.06,2.52c0-.1-.01-.19-.04-.28.02.09.03.18.03.28-.03.1-.07.19-.11.26.05-.07.09-.16.12-.26Zm-.55.64s.02,0,.04-.01c.07-.03.14-.07.2-.13.05-.05.1-.11.15-.18.01-.02.02-.03.03-.04,0,0,0-.01.01-.02-.14.14-.28.26-.43.38Zm-3.57,2.31c-.28.12-.57.25-.86.35-.16.07-.33.14-.5.19h0s.02.04.04.05c.07.07.19.12.31.16.06.02.12.03.19.06.06.01.13.03.19.05.04,0,.08.01.12.03.04-.03.08-.06.12-.09.05-.03.09-.07.13-.1.05-.06.1-.12.14-.19s.08-.14.1-.22c.02-.07.03-.14.03-.21,0-.02,0-.05-.01-.08Zm-21.13-34.73c-.12-.22-.65-.44-.86-.34-.56.25-.68.82-.38,1.32.14.22.58.26.83.36.64-.31.69-.85.41-1.34Zm12.8,16.09c-.29.14-.73.22-.84.45-.25.49-.18,1.06.52,1.09.21,0,.44-.45.68-.71-.1-.24-.23-.54-.36-.83Zm-8.22-41.83s-.07.28-.1.43c.27.04.54.09.81.12.03-.15.07-.3.1-.46-.27-.04-.54-.09-.81-.09Z"/>
      <path class="cls-5" d="m202.62,38.8h0c3.83,0,6.94,3.11,6.94,6.94v75.44c0,1.56-1.27,2.83-2.83,2.83h-4.11c-1.56,0-2.83-1.27-2.83-2.83V41.63c0-1.56,1.27-2.83,2.83-2.83Z"/>
      <path class="cls-6" d="m158.03,115.77h0s.01,0,.01,0h-.01Zm0,0h0s.01,0,.01,0h-.01Zm0,0h0s.01,0,.01,0h-.01Zm55.02,6.6c.07-22.6.01-45.2.01-67.8,0-.91-.27-1.97-.16-2.88-.39-2.33-5.8-12.94-8.48-19.7-1.31-3.29-3.64-4.47-7.31-4.43-17.47.19-34.94.07-52.41.1-1.6.01-3.35-.42-4.86,1.21-1.07,3.49.23,7.44-.97,11.83-7.09,0-14.21,0-21.33-.01-1.4,0-2.38-.83-3.28-1.78-8.09-8.52-16.92-16.32-24.65-25.19-1.04-1.28-.71-.87-1.21-1.43l-1.2-1.25c-1.6-1.53-.77-.61-2.52-2.58l-1.09-1.12c-1.25-1.07-2.41-2.04-2.66-2.27-1.68-1.4-1.44-1.17-3.21-2.44-4.69-3.35-9.91-3.62-13.73-.09-8.36,7.73-16.49,15.73-23.92,24.37-1.65,1.92-3.15,2.73-5.51,2.71-6.99-.05-13.98-.04-20.96.03-6.28.06-10.34,3.69-11.18,9.88-.3,2.21-.51,4.54.43,6.54,1.64,3.5,1.33,6.31-.89,9.62-2.59,3.85-2.45,8.4-.51,12.69.97,2.18,2.14,4.26,3.18,6.31-3.23,7.26-3.11,11.34.3,17.34,2.18,3.83,4.32,7.69,6.33,11.62,2.29,4.45,4.88,8.61,9.3,11.28.17.34.35.68.52,1.02,2.32,3.89,4.89,7.66,6.89,11.71,1.98,4.01,4.8,6.8,8.93,8.34,24.74-.11,49.48-.29,74.22-.3.71,0,1.42-.01,2.13-.02.37-.01.74-.02,1.11-.04.1,0,.19-.01.28-.01.41-.02.82-.05,1.22-.08.19-.01.38-.03.56-.05.32-.03.64-.06.95-.1.39-.05.78-.1,1.16-.17.14-.02.28-.04.41-.07.2-.04.4-.08.59-.12.78-.16,1.53-.37,2.27-.63.18-.06.36-.13.54-.2.54-.21,1.07-.45,1.58-.73.02,0,.05-.02.07-.04.15-.08.3-.16.45-.26.26-.15.51-.31.76-.49.1-.06.2-.13.29-.21.21-.14.42-.31.62-.48.1-.08.2-.17.3-.26.28-.23.55-.49.81-.78.06-.06.12-.12.18-.19.12-.13.24-.26.35-.4.16-.18.31-.36.45-.56.6-.77,1.14-1.64,1.64-2.62.78-1.54,2.33-1.62,3.81-1.67,1.65-.04,3.3-.04,4.95-.05,2.25-.02,3.84-.03,5.04.15.09.01.17.02.25.04.29.05.56.11.8.19.12.04.23.08.34.13.1.04.2.08.29.13.02.01.03.01.04.02.15.08.29.16.42.26h.01c.15.12.3.24.43.38.14.13.27.28.4.45.11.14.21.29.32.45.03.05.07.11.1.16.1.16.2.33.3.52.04.07.08.14.11.21.29.55.59,1.21.92,1.99.14.33.29.69.45,1.07h0v.02c.03.07.06.13.09.21.11.27.23.55.35.85l.12.07c.62.01.87.43,1.05.94,1.9.42,3.79.84,5.69,1.26,12.64-.97,25.3-.26,37.95-.39,5.84-.05,11.7-.01,17.51-.01,2.21-4.16,1.45-8.26,1.47-12.2Zm-69.34-89.63c0-.16,0-.32-.01-.48h.01s54.45-.01,54.45-.01h0c.92,3.2.39,6.39.44,9.9h0s-54.46,0-54.46,0h0c-.65-2.48-.47-4.85-.42-7.4,0-.25.01-.5.01-.75,0-.42,0-.84-.02-1.27Zm54.62,36.96h-54.39v-9.93h54.15c.07.23.14.47.19.7.06.23.11.47.15.7.05.24.09.47.12.71.02.15.04.3.05.46.01.1.02.2.03.31.02.28.04.56.05.84.08,1.97-.14,4.01-.35,6.21Zm-54.68-19.96c.03-.86.08-1.72.17-2.61.04-.44.09-.89.14-1.34h0s54.35,0,54.35,0h0c.11.88.2,1.73.26,2.58.03.44.06.88.08,1.32.03.8.03,1.6,0,2.41-.02.4-.05.82-.08,1.23t0,.01c-.04.41-.09.83-.14,1.25-.05.42-.12.84-.2,1.28h-.01s-54.27.01-54.27.01c-.1-.81-.18-1.62-.24-2.43-.08-1.23-.1-2.45-.06-3.7Zm-3.23,56.2c-.23-.07-.46-.16-.69-.29.23.12.46.22.69.29Zm-2.5-61.57c.23.03.44.07.64.12-.2-.04-.41-.08-.64-.11-.18-.02-.37-.05-.55-.07.18.01.37.03.55.06ZM45.39,26.9c3-2.98,6-5.96,8.99-8.96,2.99-2.99,5.96-5.99,8.92-9.01,5.91-6.03,8.99-6.09,15.09.02,10.53,10.54,21,21.1,31.54,31.64.16.17.32.33.49.48,1.15,1.12,2.38,2.15,3.57,3.23,3.23,1.61,6.58,1.09,9.92.52,2.93-.01,5.85-.03,8.77-.04h.01c2.35,1.19,6.86-1.36,6.83,3.95v53.89h-22.22c-.04.12-.09.23-.13.34-.02.03-.03.05-.04.08h0c-.25.68-.5,1.3-.74,1.89-.19.47-.39.92-.59,1.34-.07.16-.15.31-.22.46-.15.3-.3.59-.45.86-.08.14-.15.27-.23.4-.2.35-.41.68-.62.98-.21.3-.43.58-.66.85-.12.13-.23.25-.35.37-.12.12-.24.24-.36.35-.12.12-.24.22-.37.32-.18.15-.37.28-.56.41-.03.02-.06.04-.09.05-.19.13-.38.24-.58.34-.12.07-.25.13-.38.18-.16.08-.33.16-.5.22-.17.07-.35.13-.53.19-.34.11-.69.21-1.07.29-.96.21-2.06.34-3.32.42-.42.02-.85.04-1.3.05-.57.01-1.18.02-1.82.02-5.51-.01-11.02-.06-16.54-.12-.33,0-.67-.23-1-.36.14-.42.28-.83.4-1.23.1-.31.19-.61.27-.9.09-.3.17-.59.24-.88.08-.29.15-.57.21-.85.01-.03.02-.06.02-.09.06-.25.11-.49.16-.73.07-.37.14-.72.19-1.07.04-.22.07-.43.09-.64.01-.02.01-.03,0-.04t0-.02c.03-.16.05-.31.06-.46.07-.63.1-1.23.1-1.82,0-.22,0-.44-.02-.65,0-.12-.01-.24-.02-.36-.02-.25-.04-.49-.07-.73-.03-.24-.07-.47-.11-.7-.03-.2-.07-.39-.12-.58-.08-.36-.18-.7-.3-1.04-.05-.15-.11-.3-.17-.45-.13-.34-.29-.67-.46-.99-.08-.16-.17-.32-.27-.48-.11-.19-.24-.38-.37-.57-.19-.27-.39-.54-.62-.8-.11-.13-.22-.25-.34-.38-.02-.03-.04-.05-.07-.08-.11-.12-.22-.23-.34-.35-.24-.24-.5-.47-.78-.7-.27-.23-.56-.46-.87-.68-.6-.44-1.27-.85-1.99-1.25-.73-.4-1.51-.78-2.36-1.14-.42-.18-.86-.36-1.31-.53,1.25-2.87,2.02-5.79,1.87-8.71,0-.11-.01-.22-.02-.33-.03-.45-.09-.91-.18-1.37-.01-.09-.03-.18-.05-.28-.09-.5-.22-1-.38-1.49-.19-.56-.4-1.11-.66-1.65h0c-.14-.29-.28-.56-.43-.83-.15-.27-.31-.53-.47-.78-.43-.66-.9-1.26-1.41-1.78-.07-.08-.14-.15-.22-.22-.11-.12-.22-.22-.34-.31-.09-.09-.18-.17-.28-.25-.3-.26-.61-.49-.93-.69-.12-.08-.24-.16-.36-.23-.14-.09-.28-.17-.43-.24-.11-.06-.21-.11-.32-.16-.41-.21-.83-.39-1.27-.54-.07-.03-.14-.05-.21-.07-.21-.07-.42-.14-.64-.19-.52-.15-1.07-.26-1.63-.34-.28-.04-.56-.07-.85-.1-.29-.03-.58-.05-.88-.06-.28-.01-.57-.02-.87-.02-.33,0-.67,0-1.01.02-.32.02-.64.04-.97.06h0c2.32-5.26,3.16-10.15.54-15.09-.18-.33-.36-.64-.57-.94-.09-.15-.19-.29-.3-.42-.25-.34-.52-.65-.8-.94-.16-.17-.32-.32-.49-.47-.17-.16-.34-.3-.52-.44-.35-.28-.72-.54-1.11-.78-1.56-.95-3.36-1.62-5.33-2.24.05-.24.11-.47.18-.7.05-.21.11-.41.18-.6.06-.2.13-.4.21-.59.07-.19.15-.37.24-.56.08-.18.17-.36.26-.54.08-.15.16-.29.24-.44.08-.14.17-.29.26-.43.18-.28.36-.56.57-.83.16-.23.34-.46.53-.68.22-.28.46-.54.7-.81.02-.01.03-.03.05-.05.23-.24.46-.48.7-.72.81-.81,1.69-1.59,2.59-2.39.3-.26.6-.53.9-.8.4-.35.79-.72,1.19-1.1.23-.22.47-.44.7-.68.55-.55,1.09-1.12,1.6-1.74.35,2.12.72,4.18,1.14,6.17.13.62.27,1.24.41,1.85.14.62.3,1.23.46,1.84.15.61.32,1.21.5,1.81.06.24.13.48.21.71.1.33.2.66.31.99.3.92.62,1.83.97,2.73.35.9.73,1.79,1.13,2.66.41.88.85,1.74,1.32,2.58.23.43.48.85.73,1.27.32.54.65,1.07,1,1.59.1.16.2.32.31.48.35.54.71,1.06,1.09,1.58.09.15.2.29.31.43.73,1.02,1.49,2,2.29,2.94.31.37.62.72.94,1.08.36.41.73.82,1.1,1.21.7.74,1.42,1.46,2.16,2.14.22.22.45.43.68.64.62.56,1.24,1.1,1.88,1.61.33.28.65.54.99.79.05.04.09.07.14.1.1.08.2.15.3.23.01.02.02.03.03.03.06.05.12.09.18.13.03.03.06.05.09.07.28.21.56.42.84.61.06.05.11.09.17.12.17.13.35.25.53.37,1.05.73,2.13,1.42,3.24,2.06.18.11.36.21.54.31.38.22.76.43,1.15.63.18.11.37.21.56.3.13.07.26.14.39.2.42.22.84.42,1.26.62.17.08.34.16.51.24.29.14.59.28.89.4.04.03.08.04.12.05.39.18.78.35,1.18.51.03.02.06.03.1.04.52.22,1.05.43,1.58.63h.01c.08.03.16.06.25.09.08.03.16.06.24.1s.16.06.24.09c.16.06.32.12.48.17.32.1.64.18.96.21.38.04.74,0,1.08-.15.09-.04.18-.09.26-.15,0,0,0-.01,0-.01.11-.07.22-.16.32-.27h.02v-.02c.03-.17.06-.34.09-.5.06-.31.11-.63.17-.96.06-.33.11-.66.17-1h0c-1.11-.42-2.2-.86-3.26-1.33-.1-.03-.21-.08-.31-.13-.43-.18-.86-.38-1.29-.58-.08-.04-.17-.08-.25-.12-.19-.09-.38-.18-.57-.27-.23-.11-.46-.22-.68-.34-.47-.22-.92-.45-1.37-.7-.28-.14-.56-.29-.84-.45-.28-.14-.56-.3-.83-.46-.28-.15-.55-.31-.82-.48-.32-.18-.64-.38-.96-.58-.05-.02-.11-.06-.16-.09-.38-.23-.75-.47-1.11-.71-.64-.42-1.26-.85-1.87-1.29-.54-.38-1.07-.78-1.58-1.18-.02-.01-.03-.02-.04-.03-.44-.34-.88-.69-1.3-1.05-.48-.4-.94-.8-1.4-1.22-.33-.29-.65-.59-.97-.91-.25-.23-.5-.47-.74-.72-.28-.27-.55-.55-.8-.83-.22-.22-.43-.44-.62-.66-.05-.04-.08-.08-.11-.12-.27-.29-.53-.58-.78-.88t-.01,0c-.19-.22-.37-.44-.55-.66-.15-.17-.3-.35-.44-.54-.22-.27-.43-.54-.64-.82-.19-.24-.37-.48-.54-.73-.19-.24-.36-.48-.53-.74-.03-.03-.05-.06-.06-.09-.2-.27-.39-.55-.57-.83-.03-.04-.06-.08-.08-.12-.16-.24-.32-.48-.46-.72-.16-.24-.31-.48-.45-.73-.15-.24-.29-.49-.43-.73-.02-.01-.03-.03-.03-.05-.18-.28-.34-.58-.49-.87-.13-.22-.25-.44-.36-.67-.25-.43-.47-.89-.68-1.34-.01-.02-.01-.03-.02-.04-.15-.31-.29-.62-.43-.93h0c-.13-.28-.25-.54-.36-.81-.05-.1-.09-.2-.13-.3-.16-.36-.31-.74-.45-1.11-.04-.09-.08-.18-.11-.28-.09-.22-.17-.44-.25-.67-.16-.4-.3-.81-.44-1.22-.09-.26-.18-.53-.26-.8-.06-.17-.12-.35-.17-.53-.02-.05-.04-.08-.04-.13h0c-.06-.21-.12-.41-.18-.61-.02-.03-.02-.05-.03-.08-.04-.13-.08-.26-.11-.39-.12-.41-.24-.84-.34-1.26-.01,0-.01-.02-.01-.03-.16-.6-.3-1.22-.44-1.84-.1-.48-.2-.97-.29-1.47-.07-.32-.13-.65-.18-.98-.09-.47-.16-.94-.23-1.42-.04-.22-.07-.44-.09-.66-.01-.01-.01-.03-.01-.04-.08-.53-.14-1.06-.2-1.6-.07-.67-.14-1.36-.19-2.05-.02-.24-.04-.48-.05-.72-.05-.66-.09-1.34-.11-2.02-.03-.63-.04-1.27-.05-1.91-.17-.11-.33-.2-.49-.28-.16-.07-.32-.13-.47-.18-.15-.05-.29-.08-.42-.11-.19-.03-.36-.04-.52-.03-.02,0-.04,0-.06.01-.06,0-.12,0-.18.02-.12.02-.24.05-.35.09-.1.03-.2.07-.29.12-.04.02-.09.04-.13.07-.07.03-.14.07-.2.12-.04.02-.07.04-.1.07-.06.03-.12.08-.17.12-.12.1-.25.2-.37.32-.11.1-.22.21-.32.32-.22.22-.43.44-.64.66l-.17.17c-.35.34-.69.68-1.03,1.02-2.39,2.38-4.69,4.87-7.21,7.11-.14.13-.28.24-.43.35-.14.12-.28.22-.43.32-.14.11-.29.2-.44.28-.01.01-.03.02-.04.03-.13.08-.27.16-.41.22-.4.21-.81.37-1.22.49-.19.06-.38.1-.58.14-.43.09-.87.13-1.31.13-.16,0-.31-.01-.47-.02-.16-.01-.32-.03-.48-.05-.1-.02-.21-.03-.32-.05-.16-.03-.33-.07-.49-.11-.17-.04-.35-.09-.52-.16-.14-.04-.27-.09-.41-.15-.14-.05-.27-.11-.41-.18-.24-.11-.49-.24-.73-.39-.11-.06-.22-.12-.32-.19-.13-.09-.27-.18-.4-.28-.1-.07-.2-.14-.29-.22-.5-.39-.99-.85-1.45-1.37-3.28-3.7-3.16-7.67.2-11Zm79.95,79.56c1.28-.2,2.55-.33,3.86-.29.02.01.04.02.06.03.12,0,.24.01.36.01.01.07.02.14.03.21-.12-.07-.25-.14-.39-.22-1.42-.03-2.7.08-3.92.26Zm-108.66-2.94c.02.11.04.2.05.26-2.72-1.76-2.59-4.8-4.67-7.08.05.01.13.01.23.02,1.61.1,2.76-.38,3.4-.57.78-.22,1.95-.35,3.62.15-.22,1.86-.81,3.08-1.34,3.87-.51.78-1.5,1.94-1.29,3.35Zm116.48,17.32c-.35,0-.71,0-1.06.02-.32.01-.63.02-.95.05-.1.01-.2.02-.3.02-.27.03-.55.06-.82.1-.05,0-.1,0-.16.02s-.12.02-.19.03c-.54.09-1.07.21-1.6.36-.09.02-.19.05-.28.08-.07.02-.14.04-.21.07-.19.06-.38.13-.56.2-.24.09-.47.19-.71.3-.06.45-.13.87-.22,1.29-.08.41-.18.81-.29,1.19-.08.25-.16.5-.24.74-.11.32-.23.63-.37.92-.01.01-.01.02-.01.03-.11.25-.23.48-.36.71-.03.06-.06.11-.09.16-.05.09-.1.17-.15.25-.04.07-.09.14-.14.21-.05.09-.11.17-.17.26-.17.25-.35.48-.55.7-.18.2-.36.39-.56.57-.04.04-.08.07-.12.11-.19.18-.39.34-.61.49-.23.17-.48.33-.73.48-.51.3-1.07.54-1.66.74-.26.09-.53.17-.81.24-.08.02-.16.04-.24.06-.12.03-.24.05-.36.07-.03.01-.05.02-.08.01-.2.05-.4.09-.61.11-.04.01-.08.02-.12.02-.14.02-.28.04-.42.05-.03.01-.06.01-.09.01-.21.03-.43.05-.65.05-.11.02-.23.02-.34.02-.11.01-.23.02-.34.02-2.1.05-4.21.13-6.32.22-.7.03-1.41.06-2.11.09-.81.03-1.62.07-2.43.1-.95.04-1.89.07-2.84.1-.51.02-1.03.03-1.55.04-.47,0-.94.02-1.41.03-.76.01-1.52.02-2.28.02-1.13,0-2.26-.02-3.39-.05-7.6-.23-15.27-.29-22.9-.51-10.1-.28-20.23-.23-30.34.04-.54.01-1.06,0-1.55-.04-.12-.01-.23-.02-.34-.03-.1-.01-.19-.03-.28-.04-.09-.01-.18-.02-.27-.04-.21-.03-.41-.07-.61-.12-.13-.03-.26-.06-.38-.09-.12-.03-.24-.07-.36-.11-.07-.02-.13-.04-.19-.06-.25-.08-.5-.18-.74-.3-.24-.11-.48-.23-.7-.37-.06-.03-.12-.07-.18-.11-.05-.03-.1-.07-.15-.1-.11-.07-.22-.15-.32-.23-.21-.15-.4-.32-.59-.51-.23-.21-.45-.44-.65-.7-.11-.12-.21-.25-.29-.39-.2-.27-.38-.55-.54-.86-.08-.15-.16-.31-.24-.47-.08-.16-.16-.32-.22-.49-.08-.17-.15-.34-.21-.52-1.04-2.89-3.48-5.15-3.87-8.84h0s10.31-.01,10.31-.01c-.65-1.37-1.24-2.76-1.68-4.22h-6.09c-.29,0-.57-.01-.84-.03-.28-.01-.55-.04-.81-.08-.17-.02-.34-.04-.5-.07-.16-.03-.32-.06-.48-.1-.31-.07-.61-.15-.9-.24-.16-.05-.32-.11-.48-.17-.13-.05-.26-.1-.39-.16-.17-.07-.34-.15-.5-.24-.14-.07-.27-.15-.41-.23-.18-.11-.35-.22-.52-.34-.08-.05-.16-.11-.24-.18-.14-.1-.27-.21-.39-.32-.05-.05-.1-.09-.15-.14-.1-.09-.19-.18-.28-.28-.18-.19-.35-.39-.51-.6,0,0-.01,0-.01,0-.11-.15-.21-.3-.31-.45-.12-.19-.23-.38-.34-.57-.09-.18-.17-.36-.25-.55-.04-.09-.08-.19-.12-.29-.04-.1-.07-.2-.1-.3-.08-.24-.15-.48-.21-.73-.03-.12-.06-.25-.08-.37-.03-.13-.05-.26-.07-.39-.1-.58-.14-1.2-.13-1.84,0-.08,0-.16.02-.23h0s0-.02,0-.02h0s0-.03,0-.04c0-.03,0-.06,0-.09,0-.19.02-.37.04-.56.02-.21.04-.42.08-.62,0-.03,0-.06.02-.09.01-.11.03-.22.06-.33.02-.16.06-.31.11-.46.02-.09.04-.18.07-.27,0-.02.01-.05.02-.07.06-.2.12-.4.2-.59.02-.06.04-.11.07-.16.06-.15.12-.3.2-.45,0-.02.01-.03.03-.05.03-.06.05-.11.08-.16.01-.04.04-.08.06-.12.06-.11.12-.22.2-.33,0-.03.03-.06.06-.09.05-.09.11-.18.18-.26,0-.02.01-.04.03-.05,0-.02.02-.03.04-.05,0-.02.02-.04.04-.06.18-.24.38-.47.6-.69.06-.07.12-.13.19-.19,1.52-1.41,3.71-2.19,6.46-2.21,1.83-.01,3.65-.02,5.48-.02.03-1.41.05-2.81.07-4.22-6.97,0-13.93.02-20.89-.02-.27,0-.54,0-.78-.03-.11,0-.22-.01-.33-.02-.21-.01-.41-.04-.61-.07-.02,0-.04,0-.07,0-.24-.03-.47-.07-.69-.12-.16-.03-.31-.07-.47-.11-.5-.13-.98-.29-1.41-.5-.1-.05-.2-.1-.3-.16-.05-.01-.1-.04-.15-.08-.12-.06-.24-.13-.35-.21-.35-.22-.66-.47-.95-.76-.35-.33-.66-.71-.93-1.13-.1-.16-.2-.33-.28-.5-.09-.16-.17-.33-.24-.51-.03-.04-.05-.09-.06-.13-.06-.13-.11-.28-.16-.43-.16-.45-.29-.93-.37-1.43-.11-.57-.17-1.18-.19-1.83-.02-.48-.01-.94.03-1.39,0-.04,0-.09.01-.13.02-.28.05-.54.09-.8.09-.57.22-1.11.4-1.61.05-.16.11-.32.18-.47.01-.03.02-.05.04-.08.06-.14.12-.28.19-.41h0c.06-.13.12-.24.19-.35,0-.02.01-.03.03-.05.06-.11.13-.22.21-.32.03-.06.07-.12.12-.18.06-.09.12-.17.19-.26.14-.17.28-.33.43-.49.35-.35.74-.66,1.16-.93h0c.21-.14.44-.26.67-.37.23-.12.48-.22.74-.31.17-.07.37-.13.56-.18.02-.01.03-.02.05-.01.14-.04.29-.08.44-.11.16-.05.33-.08.51-.11.04-.01.09-.02.13-.02.23-.04.47-.07.72-.09.08-.01.16-.01.24-.02.04-.01.08-.01.12-.01.24-.02.51-.03.77-.03,3.52-.02,7.04-.03,10.56-.05,3.51,0,7.03-.02,10.55-.02.01-1.4.01-2.8.01-4.2-1.12-.01-2.24-.01-3.36-.01-6.6.01-13.2.07-19.8-.01-1.3-.02-2.47-.21-3.48-.58-1.02-.37-1.88-.9-2.58-1.6-1.41-1.39-2.17-3.4-2.23-5.93v-.31c0-.27.01-.54.03-.79,0-.08,0-.16.02-.23,0-.21.03-.41.07-.61,0-.1.02-.19.04-.28.04-.25.09-.5.15-.73.07-.27.15-.54.25-.79.18-.5.41-.97.68-1.41.27-.43.58-.83.94-1.18.18-.18.36-.35.56-.51.2-.16.41-.3.63-.44.21-.14.43-.26.66-.37.06-.03.11-.05.16-.07.18-.1.36-.17.55-.24.04,0,.08-.03.12-.04.24-.09.48-.17.74-.23.03-.01.07-.01.1-.02.25-.07.5-.12.77-.16.29-.06.6-.1.91-.12.05,0,.11,0,.16,0,.27-.02.53-.04.82-.04,2.21-.01,4.42-.03,6.62-.04s4.41-.02,6.62-.03c2.47-.02,4.93-.02,7.4-.02.82-.01,1.65-.01,2.47-.01.01-1.39.01-2.78.02-4.17-7.17,0-14.35.04-21.52-.02-5.12-.04-7.83-2.88-7.86-7.85-.04-5.13,2.54-8.05,7.56-8.13,4.91-.08,9.82-.07,14.74-.04,1.03,0,2.06.01,3.1.01,1.04.01,2.07.01,3.1.01.27,0,.54.02.82.04.16.01.32.02.48.04.26.02.53.05.81.08.22.03.45.06.69.08.24.03.49.06.75.08.11.35.23.69.36,1.03.13.34.26.67.4.99.06.14.12.27.18.4.26.57.54,1.11.86,1.62.08.15.17.29.27.43.09.14.18.29.29.43.09.14.19.28.3.42.13.19.28.38.44.57.1.13.21.26.33.39.11.14.23.27.36.4.06.07.13.14.19.2.04.05.08.09.12.13.2.2.4.39.61.58.53.48,1.1.93,1.7,1.33.31.2.62.4.94.58.21.12.43.24.65.35.14.08.29.15.44.22.3.15.61.29.92.41.28.12.56.22.85.32.26.09.53.18.81.26.28.09.57.17.87.25.14.05.29.08.44.11.15.04.3.07.45.1h0c-.21.53-.45.99-.72,1.4-.07.12-.14.23-.23.34-.15.22-.32.42-.49.6-.12.13-.25.25-.38.36-.11.09-.22.18-.33.26-.11.09-.22.17-.34.24-.12.08-.23.15-.36.21-.18.1-.37.19-.56.26-.11.05-.22.09-.34.12-.27.09-.54.16-.83.22-.28.07-.58.11-.89.13-.38.05-.78.06-1.19.06-1.03,0-2.07-.01-3.1-.01.31,1.32.45,2.71.46,4.17,3.62,0,7.25.01,10.87.02.26,0,.51.01.76.03.04,0,.09,0,.13.01.1,0,.2.01.3.03.05-.01.09,0,.14.01.09,0,.17.01.26.03.04,0,.08,0,.12.02.11.01.22.03.32.05.01-.01.02-.01.03,0,.24.04.47.08.7.14h.01c.55.14,1.05.32,1.52.55.22.11.43.22.63.35.05.03.1.06.14.09.14.08.26.18.38.27.08.06.16.12.23.18.17.14.31.27.45.42h.01c.17.19.33.37.48.57.15.19.29.4.42.62.1.18.2.36.29.55.07.14.13.28.18.42.15.34.26.69.35,1.06.03.1.06.21.08.32.01.03.02.06.02.08.05.21.09.44.12.66.04.3.08.6.1.92.04.42.05.87.04,1.33-.01.15-.01.29-.03.43,0,.14,0,.27-.02.4,0,.03-.01.06-.01.08-.01.12-.02.25-.04.37-.01.13-.03.26-.05.39-.01.13-.03.25-.06.37,0,.03,0,.06-.01.09-.03.15-.06.3-.1.44,0,.01,0,.03-.01.04-.02.11-.05.22-.09.33,0,.01-.01.02-.01.02-.03.18-.09.35-.15.52,0,.01-.01.02-.01.03-.07.18-.13.36-.21.52,0,0,0,.02-.01.02-.04.09-.08.17-.12.25-.22.45-.48.87-.8,1.23-.12.16-.26.3-.4.44-.15.15-.32.3-.49.43-.02.03-.05.05-.08.06-.18.15-.38.28-.58.39-.21.13-.43.25-.67.35-.23.11-.48.21-.73.29-.2.07-.41.13-.63.18-.07.03-.15.05-.24.06-.02.01-.05.02-.08.02-.12.03-.25.06-.38.07-.01.01-.03.02-.04.01-.17.03-.34.06-.52.08-.43.07-.89.11-1.37.11-.05.01-.11.01-.17.01-.05,0-.1,0-.16,0-3.62.05-7.23.05-10.85.04v4.18c7.82,0,15.65.01,23.48.04.32,0,.64.02.95.05.26.02.51.05.76.1.05,0,.1.01.15.02.29.05.57.11.85.19.28.07.54.16.8.27.26.1.51.2.75.33.12.05.24.11.35.19.12.06.23.13.34.2.22.14.44.3.64.46.21.15.4.33.58.52.18.18.36.37.52.57h0c.17.21.32.42.45.64.15.22.28.44.39.68.12.24.22.48.32.74.1.25.18.51.26.78.04.17.09.35.12.53.02.06.04.13.04.19.01.01,0,.02,0,.02.02.06.03.12.03.17.01.02.01.03.01.04.04.24.07.48.09.72.01.02.01.03,0,.03.01.03.01.04,0,.05h0s.01.02,0,.03t0,.02s.01.02.01.02c0,.03,0,.05,0,.07.02.22.03.47.03.71v.34c-.01.25-.02.49-.05.73-.01.12-.02.23-.03.33v.03c-.02.24-.06.47-.1.69-.01.05-.02.11-.03.16-.05.25-.1.49-.17.72-.05.22-.12.43-.2.63,0,.02,0,.04-.02.05-.03.09-.06.18-.1.26t-.01.02s.01.02,0,.03c-.06.18-.14.35-.22.51-.11.22-.23.43-.36.64-.03.06-.07.12-.12.18-.1.16-.21.31-.33.45-.16.2-.32.38-.5.55-1.4,1.37-3.44,2.11-6.08,2.14-7.86.07-15.72.03-23.58.02,0,1.4.01,2.81.01,4.21,3.4.01,6.81.02,10.22.02v-.02c7.17,0,14.33-.02,21.5.01.37,0,.73,0,1.07.04,1.39.1,2.59.37,3.62.83.26.12.5.24.74.38.23.13.45.27.66.44.22.16.42.33.6.51.19.18.37.37.53.57.34.39.62.84.86,1.32h0c.12.25.23.51.32.78.39,1.09.58,2.35.57,3.78-.04,5.2-3.21,8.22-8.81,8.24-10.62.04-21.25.05-31.87.05.01,1.41.01,2.81.01,4.22,13.8-.01,27.59-.08,41.39-.05,6.43,0,12.86.03,19.29.1.47.01.93,0,1.38-.02.34-.01.67-.02.99-.04.18-.01.36-.02.53-.04.18-.01.35-.03.52-.05.33-.03.65-.07.97-.12.16-.02.31-.04.46-.07.38-.06.75-.13,1.12-.21.36-.08.71-.16,1.06-.26.27-.08.54-.16.81-.25.15-.04.29-.09.43-.15,0,0,.01,0,.01,0h0c.17-.06.34-.13.5-.2.29-.1.58-.23.86-.35h0c.37-.18.74-.37,1.1-.57h.01c.36-.21.71-.42,1.05-.65h0c.35-.24.68-.49,1-.75.07-.04.13-.1.2-.16.03-.02.06-.05.09-.08.03-.03.05-.06.09-.09t.02-.01c.15-.12.29-.24.43-.38.04-.07.08-.16.11-.26,0-.1-.01-.19-.03-.28.03.09.04.18.04.28-.03.1-.07.19-.12.26.2-.18.4-.37.59-.57.12-.12.23-.24.33-.36.12-.12.23-.24.33-.37.11-.12.21-.25.32-.38.24-.31.48-.62.71-.96.13-.18.26-.38.39-.58.12-.19.25-.39.37-.6.16-.28.32-.56.47-.85.16-.29.31-.59.45-.9.02-.04.04-.08.06-.12.01-.03.02-.05.04-.08,0-.01,0-.02.01-.03h.01c.08-.06.16-.11.24-.15t.02,0s0-.01,0-.01c.01,0,.01-.01.02-.01.06-.04.13-.07.2-.09.08-.04.17-.07.26-.09.08-.03.16-.05.25-.06.13-.02.26-.03.39-.03.14,0,.27.01.41.03.13.02.27.04.41.08.11.03.23.06.34.1.02.01.05.02.08.04h.14s.01-.01.01-.01c.03,0,.07,0,.1-.02.17-.03.35-.07.52-.1.15-.06.29-.09.44-.09h.05c.06,0,.12.01.19.03.04,0,.08.01.13.03.1.03.2.07.3.13,0,0,0,.01.02.01.1,0,.19,0,.29-.01h.08s.29-.01.29-.01c1.37-.03,2.74-.08,4.1-.12.14,0,.27,0,.4-.01.1,0,.19,0,.28-.01h.01c2.16-.05,4.32-.11,6.48-.16.38-.01.77-.02,1.13.01.11,0,.22.03.33.05.05.01.11.03.16.04.1.03.2.07.28.12s.16.11.23.18c.03.03.05.05.06.08.03.02.04.04.05.07.05.06.09.14.12.22.01.03.03.07.04.12.03.08.04.17.05.27.01.08.02.17.02.27,0,.14-.01.28-.03.44.07,2.16.15,4.32.23,6.49,1.07,1.78,2.14,3.56,3.46,5.74-3.31.63-6.61.22-9.81.22Zm9.39-14.89c.27-.08.54-.2.82-.34-.28.15-.55.26-.82.34Zm1.27-32.33h54.56c.51,3.36.7,6.59-.21,10.09h-53.92c-1.15-3.16-.44-6.41-.43-10.09Zm54.8,21.57c-.06.79-.16,1.59-.29,2.41h-54.44v-10.04h54.36c.08.44.14.88.2,1.32.04.33.08.66.11.99.04.33.07.66.08.99.1,1.42.1,2.85-.02,4.33Zm-54.69,16.19c-.05-.41-.09-.81-.13-1.21-.04-.4-.07-.8-.09-1.21-.08-1.17-.1-2.33-.06-3.51.01-.28.02-.56.04-.84.01-.4.04-.8.08-1.21.02-.41.06-.83.11-1.26.02-.28.06-.57.09-.86h54.22c.78,3.33.53,6.54.3,10.09h0s-54.56.01-54.56.01Zm62.9,18.86h-15.32c-3.08,0-6.15-.03-9.23-.06-5.47-.04-10.94-.09-16.41.01-2.07.04-4.15.1-6.22.18-.87.04-1.67.03-2.42-.05-.1,0-.19-.01-.29-.03-.27-.03-.52-.07-.77-.12-.17-.02-.33-.06-.49-.1-.08-.02-.15-.03-.22-.06-.15-.04-.29-.08-.43-.13-.13-.04-.26-.08-.38-.13-.19-.07-.38-.15-.56-.25-.19-.08-.36-.18-.54-.29-.2-.13-.39-.26-.57-.4-.22-.16-.42-.34-.62-.55-.12-.12-.24-.25-.35-.38-.08-.08-.15-.16-.21-.25-.07-.07-.13-.15-.17-.23-.11-.13-.2-.27-.29-.41-.13-.19-.25-.4-.36-.61-.23-.43-.45-.89-.64-1.4-.13-.33-.27-.66-.42-.98-.15-.32-.3-.64-.47-.96-.32-.64-.67-1.27-1-1.9-.04-.07-.07-.14-.11-.21-.06-.11-.11-.23-.17-.34-.44-.66-.88-1.32-1.38-2.09-.09-.12-.17-.25-.26-.38-.11-.17-.22-.34-.34-.53-.18-.27-.37-.55-.57-.86-.2-.3-.41-.62-.64-.96h0s9.75-.01,9.75-.01c.06-.07.12-.13.17-.17.06-.05.11-.09.17-.13.12-.07.24-.1.35-.1.12,0,.24.03.35.1.12.07.23.17.34.3h.01c.64.01,1.27.02,1.91.02l.17-.17c.12-.1.23-.17.35-.2.06,0,.12-.02.18-.02s.11.01.17.03c.11.04.23.11.35.21.03.03.07.07.1.11.01,0,.02.01.02.02t.01.01s.01,0,.01.01l.04.04c11.56,0,23.13,0,34.7-.01h.36s.08-.04.12-.05c.31-.15.62-.25.92-.33.06-.02.13-.04.19-.05.05-.02.1-.02.14-.03.12-.03.24-.05.36-.06.19-.03.38-.04.57-.04.71,0,1.42.16,2.12.51.02.01.04.03.07.05h.02s.02.01.03.01c.02.01.04.02.05.03.02.01.04.02.06.03.19.21.37.42.55.64.35.43.68.88.97,1.34.16.23.3.46.42.7.42.71.76,1.46,1.02,2.25.1.26.18.53.26.8l.02.05c.1.06.19.13.28.2.09.07.17.14.23.22.05.06.1.11.14.17.04.04.07.09.1.14.09.13.16.26.22.4.05.11.1.22.13.33.03.09.06.19.08.3.02.07.04.15.05.23.01.02.01.05.02.08.09.05.16.11.23.18.15.13.26.27.35.43.02.04.04.08.06.12.23.47.28,1.01.36,1.55.13.12.25.24.37.38.12.13.23.27.34.41.22.28.41.59.58.93.34.68.63,1.49.91,2.5h0Zm2.15-10.76c0,1,.16,2.01-1.07,3.25-2.78-5.26-5.7-10-5.52-16.52.5-18.36.37-36.75.45-55.12,0-1.13,0-2.26.01-3.39-.36-1.95-.37-3.9-.01-5.84-.26-.67-.68-1.5-.18-1.99.01-.02.03-.04.05-.06.04-.04.09-.08.14-.11.03-.02.07-.04.11-.06.61-.3.93.51,1.26,1.24.5,1.09,1,2.19,1.51,3.29,2.12,5,3.27,6.29,3.26,10.14-.1,21.73-.01,43.45-.01,65.17Zm-50.95-3.7h0s.01,0,.01,0h-.01Zm0,0h0s.01,0,.01,0h-.01Zm0,0h0s.01,0,.01,0h-.01Z"/>
      <path class="cls-6" d="m191.51,130.23c-3.08,0-6.15-.03-9.23-.05,3.08.03,6.15.06,9.23.06h15.32s-15.32-.01-15.32-.01Zm-47.37-88.08h0s54.46,0,54.46,0h0s-54.46,0-54.46,0Zm54.24,31.47h-.11c.51,3.36.7,6.58-.2,10.09h.1c.91-3.5.72-6.73.21-10.09Zm-54.42-17.76c-.11-.81-.19-1.62-.25-2.42.06.81.14,1.62.24,2.43h54.27s-54.26-.01-54.26-.01Zm1.03,59.91h-.01c.23.34.44.66.64.96-.19-.3-.41-.62-.63-.96Zm1.55,2.34c-.11-.17-.23-.34-.35-.52.12.19.23.36.34.53.09.13.17.26.26.38-.08-.13-.17-.26-.25-.39Zm-2.6-6.74c-.05-.41-.1-.81-.14-1.2.04.4.08.8.13,1.21h54.56s-54.55-.01-54.55-.01Zm.03-10.09c-.03.29-.07.58-.09.86.03-.28.07-.57.1-.86h-.01Zm-.25-66.52c0-.1.01-.19.01-.29v-.46c0,.25-.01.5-.01.75Zm-.02-2.5c.01.16.01.32.01.48,0-.17,0-.32,0-.48h-.01Zm-.04,73.19c.01-.28.02-.55.04-.83.02-.4.05-.81.07-1.22-.04.41-.07.81-.08,1.21-.02.28-.03.56-.04.84-.04,1.18-.02,2.34.06,3.51-.07-1.17-.09-2.33-.05-3.51Zm-1.11.5c.27-.08.54-.19.82-.34-.28.14-.55.26-.82.34Zm-2.82-.3c.23.13.46.22.69.29-.23-.07-.46-.17-.69-.29Zm-16.47,1.18s-.07.01-.1.02h-.08s0,.02,0,.02h.01c.1.03.2.07.3.11.06-.05.11-.09.17-.13h.01c.07-.05.13-.09.2-.12-.17.03-.35.07-.52.1Zm5.94-.66c-1.31-.04-2.58.09-3.86.29,1.22-.18,2.5-.29,3.92-.26-.02-.01-.04-.02-.06-.03Zm.42.04c-.12,0-.24-.01-.36-.01.14.08.27.15.39.22,0-.07-.02-.14-.03-.21Zm-9.57,24.73c.59-.2,1.15-.44,1.66-.74-.51.29-1.06.54-1.66.74Zm-3.63-18.34c0-.1-.01-.19-.04-.28.02.09.03.18.03.28-.03.1-.07.19-.11.26.05-.07.09-.16.12-.26Zm-.43,18.99c-2.1.05-4.21.14-6.32.23,2.11-.09,4.22-.17,6.32-.22.11,0,.23,0,.34-.02-.11,0-.22,0-.34.01Zm-11.77-53.19c-.1.41-.22.77-.34,1.08.13-.31.25-.67.35-1.08h-.01Zm-.6-.24h-.01c.1.05.2.09.3.12-.09-.03-.19-.07-.29-.12Zm-27.46-1.46c-.15-.27-.31-.53-.48-.78.16.25.32.51.47.78.15.27.29.54.43.82-.13-.27-.27-.55-.42-.82Zm-7.19-47.49c.16.08.32.17.49.28h0c-.17-.11-.33-.21-.49-.28Zm-1.41-.32c.16-.01.33,0,.52.03-.18-.04-.35-.04-.52-.03Zm-2.98,2.08c-.35.34-.7.68-1.03,1.03.34-.34.68-.68,1.03-1.02l.17-.17c-.06.05-.11.1-.17.16Zm-1.52,39.82h0c.33,0,.65-.03.97-.05-.32.01-.64.02-.97.05Zm-9.69-29.99c.41-.12.82-.28,1.22-.49-.4.2-.81.37-1.22.49Zm-.58,29.98c-2.73.04-5.47.05-8.2.05h-2.65c3.62.01,7.23.01,10.85-.04.06,0,.11,0,.16,0h-.16Zm-8.16-20.93c-1.04,0-2.08,0-3.11,0h-4c1.34,0,2.67,0,4,0,1.03,0,2.07.01,3.1.01.41,0,.81-.01,1.19-.06-.38.04-.77.05-1.18.05Zm-1.42-8.12c.53.49,1.1.93,1.7,1.33-.6-.4-1.17-.85-1.7-1.33Zm-7.42,29.08c-1.11-.01-2.23-.01-3.35-.01-2.09,0-4.17.01-6.26.02-1.91,0-3.82.01-5.73.01-2.61,0-5.21,0-7.82-.03,6.6.08,13.2.02,19.8.01,1.12,0,2.24,0,3.36.01h.75s-.75-.01-.75-.01Zm-4.17,55.28c-1.05-2.89-3.48-5.14-3.88-8.83.39,3.69,2.83,5.95,3.87,8.84.06.18.13.35.21.52-.07-.18-.13-.35-.2-.53Zm-10.35-21.74c0-.08,0-.16,0-.23-.02.07-.02.15-.02.23-.01.64.03,1.26.13,1.84-.09-.58-.13-1.2-.12-1.84Zm-13.53-15.7c.27.42.58.8.93,1.13-.35-.34-.65-.71-.93-1.13Zm-1.29-4.84c-.02-.48-.01-.93.02-1.38-.04.45-.05.91-.03,1.39.02.65.08,1.26.19,1.83-.1-.57-.16-1.19-.18-1.84Z"/>
      <path class="cls-1" d="m123.08,106.86c-.13.03-.25.06-.38.08-.86.17-1.59.25-2.2.24-.06,0-.12,0-.18-.01.02-.04.03-.07.05-.11h.01c.1-.07.19-.13.29-.18.06-.04.13-.07.2-.09.08-.04.17-.07.26-.09.08-.03.16-.05.25-.06.13-.02.26-.03.39-.03.14,0,.27.01.41.03.13.02.27.04.41.08.16.04.33.09.49.14Z"/>
      <path class="cls-1" d="m124.24,106.64s-.02.01-.03.01c-.14.03-.29.05-.43.08.15-.06.29-.09.44-.09h.02Z"/>
      <path class="cls-6" d="m104.22,78.4c-.1.41-.22.77-.34,1.08-.21.5-.44.88-.7,1.15.03-.17.06-.34.09-.5.06-.31.11-.63.17-.96.06-.32.12-.66.17-1,.1.04.2.08.3.11.1.04.21.08.31.12Z"/>
      <path class="cls-1" d="m129.48,102.62h-12.18c-.04.12-.09.23-.13.34-.02.03-.03.05-.04.08-.02-.17-.04-.35-.06-.53-.64-6.7-7.11-12.8-13.59-12.77-1.27-1.8-.78-3.88-.7-5.83.01-.25.03-.49.05-.74.02-.25.05-.5.08-.75.03-.23.06-.46.09-.69.06-.36.12-.72.18-1.09h0c.26-.28.49-.66.7-1.16.12-.31.24-.67.34-1.08-.1-.04-.21-.08-.31-.12-.1-.03-.2-.07-.3-.11h0s.01-.01.01-.01c.02-.17.05-.34.08-.52-.23-.07-.44-.14-.65-.23-.16-.06-.31-.13-.46-.21-.13-.06-.26-.12-.38-.19-.19-.11-.37-.22-.54-.34-.16-.11-.32-.23-.46-.36-.16-.13-.31-.27-.45-.42-.08-.08-.16-.16-.22-.25-.07-.07-.13-.15-.2-.23,0,0,0,0,0-.02-.09-.12-.18-.24-.27-.37-.34-.49-.61-1.03-.83-1.61-.13-.34-.25-.69-.36-1.05-.13-.44-.24-.91-.34-1.38-.05-.21-.09-.42-.13-.64-.03-.15-.06-.3-.09-.46l-.03-.18s.03,0,.04.01c4.73.78,7.52,1.86,8.66,3.85.08.13.15.27.21.41.06.15.12.3.17.45.05.16.09.32.13.49.02.08.03.16.04.24.03.16.05.32.06.49.14,1.93-.55,4.45-1.95,7.83-.45,1.1-.68,2.05.18,3.21,3.07-.32,1.8-3.73,3.92-5.16,1.98-.74,3.82.23,5.36,1.99,1.45,1.65,2.78,3.41,4.25,5.05,2.26,2.52,4.86,4.48,8.58,4.06.04.41.09.82.15,1.22.04.29.08.57.13.86.05.32.11.63.16.94.11.59.23,1.18.34,1.76.07.37.15.74.22,1.11.18.95.35,1.9.45,2.85.02.21.04.42.06.63.01.21.03.42.04.63Z"/>
      <path class="cls-1" d="m130.06,119.76c-.07.42-.13.83-.18,1.24-.01.02-.01.04-.01.05-.06.01-.12.02-.19.03-.54.09-1.07.21-1.6.36-.09.02-.19.05-.28.08-.07.02-.14.04-.21.07-.19.06-.38.13-.56.2-.24.09-.47.19-.71.3-.06.45-.13.87-.22,1.29-.08.41-.18.81-.29,1.19-.08.25-.16.5-.24.74-.11.32-.23.63-.37.92-.01.01-.01.02-.01.03-.11.25-.23.48-.36.71-.03.06-.06.11-.09.16-.05.09-.1.17-.15.25t0-.01c-.14-.39-.28-.77-.43-1.15-.23-.61-.47-1.21-.7-1.82-.11-.29-.22-.59-.32-.88-.06-.15-.11-.3-.16-.45s-.1-.3-.14-.45c-.13-.38-.23-.75-.33-1.14-.06-.23-.11-.46-.16-.69-.04-.18-.07-.37-.1-.55-.03-.19-.06-.37-.08-.56-.03-.25-.05-.5-.07-.75-.06-.86-.02-1.76.13-2.72.8.85,1.51,1.73,2.27,2.46.13.12.27.25.4.36.16.14.32.27.49.39.12.09.26.18.39.25.09.06.19.12.29.16.13.07.27.14.42.18.11.05.23.09.35.12.09.03.18.05.28.07.01,0,.02,0,.03.01h.01c.09.01.18.03.28.04.13.01.28.02.42.02.65,0,1.38-.15,2.21-.51Z"/>
      <path class="cls-1" d="m153.58,120.67c-1.14.46-2.23.76-3.24.76-.17,0-.33-.01-.5-.03-.13-.02-.26-.04-.39-.06-.11-.02-.22-.05-.32-.08-.02,0-.04-.01-.06-.02-.24-.07-.47-.17-.7-.3t-.02-.01h-.01c-.06-.11-.11-.23-.17-.34-.44-.66-.88-1.32-1.38-2.09-.09-.12-.17-.25-.26-.38h.01c.16-.09.32-.16.47-.22.18-.08.36-.14.53-.18.08-.02.16-.03.24-.05.11-.02.23-.04.34-.05.1-.01.21-.02.31-.02.11,0,.22.01.33.02.08.01.15.02.22.03.12.02.25.05.37.09.16.04.31.09.46.16.15.06.29.13.43.21.18.1.36.22.53.34.14.1.28.2.42.31.1.08.2.16.3.24.2.17.4.34.59.51.26.22.52.45.79.65.12.1.23.19.35.27.12.09.24.17.36.24Z"/>
      <path class="cls-1" d="m139.52,101.29v1.33h-1.95c.13-.47.49-.98,1.16-1.55.28.06.54.13.79.22Z"/>
      <path class="cls-6" d="m143.37,105.61c-.28.15-.55.26-.82.34.27-.08.54-.2.82-.34Z"/>
      <path class="cls-1" d="m144.13,105.14c-.16.12-.32.22-.47.31h-.01c.01-.28.02-.56.04-.84h.01c.14.18.28.35.43.53Z"/>
      <path class="cls-1" d="m130.57,111.33c-.08.12-.17.24-.25.36-.15.21-.29.42-.42.64-.1.16-.2.33-.27.5-.04.08-.08.17-.11.25-.03.07-.05.14-.08.22-.03.1-.06.21-.07.32-.03.14-.04.28-.03.42-.59-.72-.8-1.44-.8-2.16,0-.14.01-.29.03-.44.01-.14.04-.28.06-.43.02-.13.05-.27.09-.4,0-.01,0-.02.01-.03.03-.15.07-.3.12-.44.17-.58.39-1.16.55-1.74.05-.15.09-.31.12-.46.03-.11.05-.22.07-.33.03-.14.05-.28.06-.42.01-.13.02-.25.02-.38v-.11c.14,0,.27,0,.4-.01.1,0,.19,0,.28-.01h.01c.82.59,1.22,1.16,1.34,1.72.23,1.01-.44,1.97-1.13,2.93Z"/>
      <path class="cls-1" d="m99.57,80.66h0s-.01.02-.01.02c-.03.04-.06.09-.1.13-.04.06-.09.1-.14.13-.03.03-.06.05-.09.07-.06.05-.12.08-.18.1-.04.03-.07.04-.11.05-.01.01-.02.01-.03.01-.05.02-.1.04-.15.04-.01.01-.02.02-.03.01-.03,0-.07.02-.11.02-.09.02-.19.03-.3.03-.16,0-.31-.02-.45-.05-.12-.02-.24-.06-.35-.11-.02,0-.05-.01-.07-.03-.07-.02-.13-.06-.19-.11-.01,0-.03-.01-.04-.03-.01.01-.02.01-.02-.01-.03-.02-.06-.04-.08-.06-.05-.03-.09-.07-.14-.13-.01,0-.03-.02-.04-.04-.08-.09-.15-.19-.21-.3-.02-.03-.04-.07-.05-.1-.05-.1-.09-.2-.12-.31-.01-.01-.02-.03-.01-.04-.03-.07-.05-.15-.06-.23v-.02s-.02-.08-.02-.12c-.01-.06-.02-.13-.02-.19.39.18.78.35,1.18.51.03.02.06.03.1.04.52.22,1.05.43,1.58.63h.01c.08.03.16.06.25.09Z"/>
      <path class="cls-1" d="m146.44,111.38h-.66s.01-.03.01-.04c.23-.03.44-.02.63.03h.01s.01.01.01.01Z"/>
      <path class="cls-1" d="m98.34,69.89c-3.43-.86-3.86-2.05-1.69-4.03,2.14.8,1.38,2.51,1.69,4.03Z"/>
      <path class="cls-1" d="m153.14,128.03c-.02.15-.04.28-.07.41-.03.13-.06.26-.09.37-.22-.16-.42-.34-.62-.55-.12-.12-.24-.25-.35-.38.16,0,.32.02.5.04.2.02.41.06.63.11Z"/>
      <path class="cls-1" d="m125.18,113.21c-1.81-.45-2.27-1.42-1.7-3.13,1.94.38,2.44,1.33,1.7,3.13Z"/>
      <path class="cls-1" d="m116.3,112.86s-.01.02-.01.02c-.01.01-.02.02-.03.04-.05.07-.1.13-.15.18-.06.06-.13.1-.2.13-.02.01-.03.01-.04.01.15-.12.29-.24.43-.38Z"/>
      <path class="cls-1" d="m112.31,115.63c0,.07-.01.14-.03.21-.02.08-.06.15-.1.22s-.09.13-.14.19c-.04.03-.08.07-.13.1-.04.04-.08.07-.12.1-.04-.01-.08-.03-.12-.04-.06-.02-.13-.04-.19-.05-.07-.03-.13-.04-.19-.06-.12-.04-.24-.09-.31-.16-.02-.01-.03-.02-.04-.04h0c.17-.06.34-.13.5-.2.29-.1.58-.23.86-.35.01.03.01.06.01.08Z"/>
      <path class="cls-1" d="m90.76,82.16c-.25-.1-.7-.14-.83-.36-.3-.5-.19-1.08.38-1.33.21-.09.74.12.86.34.27.49.23,1.03-.41,1.34Z"/>
      <path class="cls-1" d="m104.33,97.73c-.24.26-.47.72-.68.71-.7-.03-.77-.59-.52-1.08.12-.23.55-.31.84-.46.13.3.26.6.36.83Z"/>
      <path class="cls-1" d="m96.45,55.63c-.27-.04-.54-.08-.81-.12.04-.15.07-.44.11-.44.27,0,.54.06.81.1-.04.15-.07.31-.11.46Z"/>
      <path class="cls-2" d="m139.52,48.73v53.89h-22.23c-.04.11-.08.23-.12.34-.02.03-.03.05-.04.08h0c-.25.68-.5,1.3-.74,1.89-.2.47-.39.92-.59,1.34-.07.16-.15.31-.22.46-.15.3-.3.59-.45.86-.08.14-.15.27-.23.4-.2.35-.41.68-.62.98-.22.3-.44.58-.66.85-.12.13-.23.25-.35.37-.12.12-.24.24-.36.35-.12.11-.25.22-.37.32-.18.15-.37.28-.56.41-.03.02-.06.04-.09.05-.19.13-.38.24-.58.34-.12.07-.25.13-.38.18-.16.08-.33.15-.5.22s-.35.13-.53.19c-.34.11-.69.2-1.07.29-.96.21-2.06.34-3.32.42-.42.02-.85.04-1.3.05-.57.01-1.18.02-1.82.02-5.51-.01-11.02-.06-16.54-.12-.33,0-.67-.23-1-.36.14-.42.28-.83.4-1.23.1-.31.19-.61.27-.9.09-.3.17-.59.24-.88.08-.29.15-.57.21-.85.01-.03.02-.06.02-.09.06-.25.11-.49.16-.73.07-.37.14-.72.19-1.07.04-.22.07-.43.09-.64.01-.02.01-.03,0-.04t0-.02c.03-.16.05-.31.06-.46.07-.63.1-1.23.1-1.82,0-.22,0-.44-.02-.65,0-.12-.01-.24-.02-.36-.01-.25-.03-.49-.07-.73-.02-.24-.06-.47-.11-.7-.03-.2-.07-.39-.12-.58-.08-.36-.18-.7-.3-1.04-.05-.15-.11-.3-.17-.45-.13-.34-.29-.67-.46-.99-.08-.16-.17-.32-.27-.48-.11-.19-.24-.38-.37-.57-.19-.27-.39-.54-.62-.8-.1-.13-.21-.25-.34-.38-.02-.03-.04-.05-.07-.08-.11-.12-.22-.23-.34-.35-.24-.24-.5-.48-.78-.7-.28-.24-.56-.46-.87-.68-.6-.44-1.27-.85-1.99-1.25-.73-.4-1.51-.78-2.36-1.14-.42-.18-.86-.36-1.31-.53,1.25-2.87,2.02-5.79,1.87-8.71,0-.11-.01-.22-.02-.33-.03-.45-.09-.91-.18-1.37-.01-.09-.03-.18-.05-.28-.09-.5-.22-1-.38-1.49-.19-.56-.4-1.11-.66-1.65h0c-.14-.29-.28-.56-.43-.83-.15-.27-.31-.53-.47-.78-.43-.66-.9-1.26-1.41-1.78-.07-.08-.14-.15-.22-.22-.11-.12-.22-.22-.34-.31-.09-.1-.19-.18-.28-.25-.3-.26-.61-.49-.93-.69-.12-.08-.24-.16-.36-.23-.14-.09-.28-.17-.43-.24-.1-.06-.21-.12-.32-.16-.41-.21-.83-.39-1.27-.54-.07-.03-.14-.05-.21-.07-.21-.07-.42-.14-.64-.19-.52-.15-1.07-.26-1.63-.34-.28-.04-.56-.07-.85-.1-.29-.03-.58-.05-.88-.06-.28-.01-.57-.02-.87-.02-.33,0-.67,0-1.01.02-.32.02-.64.04-.97.06h0c2.32-5.26,3.16-10.15.54-15.09-.18-.33-.36-.64-.57-.94-.09-.15-.19-.29-.3-.42-.25-.34-.52-.65-.8-.94-.16-.17-.32-.32-.49-.47-.17-.16-.34-.3-.52-.44-.35-.28-.72-.54-1.11-.78-1.56-.95-3.36-1.62-5.33-2.24.05-.24.11-.47.18-.7.05-.21.11-.41.18-.6.06-.2.13-.4.21-.59.07-.19.15-.37.24-.56.08-.18.17-.36.26-.54.08-.15.16-.29.24-.44.08-.14.17-.29.26-.43.18-.28.37-.56.57-.83.17-.23.35-.46.53-.68.23-.27.46-.55.7-.81.02-.01.03-.03.05-.05.23-.24.46-.48.7-.72.81-.81,1.69-1.59,2.59-2.39.3-.26.6-.53.9-.8.4-.35.79-.72,1.19-1.1.23-.22.47-.44.7-.68.55-.55,1.09-1.12,1.6-1.74.35,2.12.72,4.18,1.14,6.17.13.62.27,1.24.41,1.85.14.62.3,1.23.46,1.84.15.61.32,1.21.5,1.81.06.24.13.48.21.71.1.33.2.66.31.99.3.92.62,1.83.97,2.73.35.9.72,1.79,1.13,2.66.41.87.84,1.74,1.32,2.58.23.43.48.85.73,1.27.32.54.65,1.07,1,1.59.1.16.2.32.31.48.35.54.71,1.06,1.09,1.58.09.15.2.29.31.43.73,1.02,1.49,2,2.29,2.94.3.37.61.73.94,1.08.35.41.72.82,1.1,1.21.7.74,1.42,1.46,2.16,2.14.22.23.45.44.68.64.62.56,1.24,1.1,1.88,1.61.33.28.65.54.99.79.05.04.09.07.14.1.1.09.2.17.3.23.01.02.02.03.03.03.06.05.12.09.18.13.03.03.06.05.09.07.28.21.56.42.84.61.06.05.11.09.17.12.17.13.35.25.53.37,1.05.73,2.13,1.42,3.24,2.06.18.11.36.21.54.31.38.22.76.43,1.15.63.18.11.37.21.56.3.13.07.26.14.39.2.42.22.84.42,1.26.62.17.08.34.16.51.24.29.14.59.28.89.4.04.03.08.04.12.05.39.18.78.35,1.18.51.03.02.06.03.1.04.52.22,1.05.43,1.58.63h.01c.08.04.16.07.25.1.08.03.16.06.24.09.08.04.16.06.24.09.16.06.32.12.48.17.33.11.65.19.96.21.38.04.74,0,1.08-.15.09-.04.18-.09.26-.15,0,0,0-.01,0-.01.11-.07.22-.16.32-.27h.02v-.02c.26-.27.49-.65.7-1.15.12-.31.24-.67.34-1.08-.1-.04-.21-.08-.31-.12-.1-.03-.2-.07-.3-.11h0c-1.11-.42-2.2-.86-3.26-1.33-.1-.03-.21-.08-.31-.13-.43-.18-.86-.38-1.29-.58-.08-.04-.17-.08-.25-.12-.19-.09-.38-.18-.57-.27-.23-.11-.46-.22-.68-.34-.46-.23-.92-.46-1.37-.7-.28-.14-.56-.29-.84-.45-.28-.15-.55-.31-.83-.46-.28-.15-.55-.31-.82-.48-.33-.19-.64-.38-.96-.58-.05-.02-.11-.06-.16-.09-.38-.23-.75-.47-1.11-.71-.64-.42-1.26-.85-1.87-1.29-.54-.38-1.07-.78-1.58-1.18-.02-.01-.03-.02-.04-.03-.44-.34-.88-.69-1.3-1.05-.48-.4-.94-.8-1.4-1.22-.33-.3-.65-.6-.97-.91-.25-.23-.5-.47-.74-.72-.28-.27-.55-.55-.8-.83-.21-.21-.42-.44-.62-.66-.05-.04-.08-.08-.11-.12-.27-.29-.53-.58-.78-.88t-.01,0c-.19-.22-.37-.44-.55-.66-.15-.17-.3-.35-.44-.54-.22-.27-.43-.54-.64-.82-.19-.24-.37-.48-.54-.73-.18-.24-.36-.49-.53-.74-.03-.03-.05-.06-.06-.09-.2-.27-.39-.55-.57-.83-.03-.04-.06-.08-.08-.12-.16-.24-.31-.48-.46-.72-.16-.24-.31-.48-.45-.73-.15-.24-.29-.49-.43-.73-.02-.01-.03-.03-.03-.05-.17-.29-.34-.57-.49-.87-.13-.22-.25-.44-.36-.67-.24-.44-.46-.89-.68-1.34-.01-.02-.01-.03-.02-.04-.15-.31-.29-.62-.43-.93h0c-.13-.28-.25-.54-.36-.81-.05-.1-.09-.2-.13-.3-.16-.36-.31-.74-.45-1.11-.04-.09-.08-.18-.11-.28-.09-.22-.17-.44-.25-.67-.16-.4-.3-.81-.44-1.22-.09-.26-.18-.53-.26-.8-.06-.17-.12-.35-.17-.53-.02-.04-.03-.09-.04-.13h0c-.06-.21-.12-.41-.18-.61-.02-.03-.02-.05-.03-.08-.04-.13-.08-.26-.11-.39-.12-.41-.23-.83-.34-1.26-.01,0-.01-.02-.01-.03-.16-.6-.3-1.22-.44-1.84-.1-.48-.2-.97-.29-1.47-.07-.32-.13-.65-.18-.98-.09-.47-.16-.94-.23-1.42-.04-.22-.07-.44-.09-.66-.01-.01-.01-.03-.01-.04-.07-.53-.14-1.06-.2-1.6-.07-.67-.14-1.36-.19-2.05-.02-.24-.04-.48-.05-.72-.05-.66-.09-1.34-.11-2.02-.03-.63-.04-1.27-.05-1.91-.17-.11-.33-.2-.49-.28-.16-.07-.32-.13-.47-.18-.15-.05-.29-.08-.42-.11-.19-.03-.36-.04-.52-.03-.02,0-.04,0-.06.01-.06,0-.12,0-.18.02-.12.02-.24.05-.35.09-.1.03-.2.07-.29.12-.04.02-.09.04-.13.07-.07.03-.14.07-.2.12-.04.02-.07.04-.1.07-.06.03-.12.08-.17.12-.12.1-.25.2-.37.32-.11.1-.22.21-.32.32-.22.22-.43.44-.64.66l-.17.17c-.35.34-.69.68-1.03,1.02-2.39,2.38-4.69,4.87-7.21,7.11-.14.13-.28.24-.43.35-.14.12-.28.22-.43.32-.14.1-.29.19-.44.28-.01.01-.03.02-.04.03-.13.08-.27.16-.41.22-.4.21-.81.37-1.22.49-.19.06-.38.1-.58.14-.43.09-.87.13-1.31.13-.16,0-.31-.01-.47-.02-.16-.01-.32-.03-.48-.05-.1-.02-.21-.03-.32-.05-.16-.03-.33-.07-.49-.11-.17-.04-.35-.09-.52-.16-.14-.04-.27-.09-.41-.15-.14-.05-.27-.11-.41-.18-.24-.11-.49-.24-.73-.39-.11-.06-.22-.12-.32-.19-.13-.09-.27-.18-.4-.28-.1-.07-.2-.14-.29-.22-.5-.39-.99-.85-1.45-1.37-3.28-3.7-3.16-7.67.2-11,3-2.98,6-5.96,8.99-8.96,2.99-2.99,5.96-5.99,8.92-9.01,5.91-6.03,8.99-6.09,15.09.02,10.53,10.54,21,21.1,31.54,31.64h0c.16.17.33.33.49.48,1.15,1.12,2.38,2.15,3.57,3.23,3.23,1.61,6.58,1.09,9.92.52,2.93-.01,5.85-.03,8.77-.04h.01c2.35,1.19,6.86-1.36,6.83,3.95Z"/>
      <path class="cls-5" d="m139.51,114.88c-.36,1.36-.72,2.73-1.07,4.09-2.77.89-5.5.33-8.18.44-1.21.04-2.36.12-3.11.8h-.01c-.43.39-.73.98-.83,1.88-.06.45-.13.87-.21,1.29-.09.41-.18.81-.29,1.19-.08.25-.16.5-.24.74-.12.32-.24.63-.37.92-.01.01-.01.02-.01.03-.12.25-.24.48-.36.71-.03.06-.06.11-.09.16-.05.08-.1.16-.16.24-.04.08-.08.15-.13.22-.05.09-.11.17-.17.26-.17.24-.36.47-.55.7-.18.2-.36.39-.56.57-.04.04-.08.07-.12.11-.19.17-.39.34-.61.49-.23.17-.48.33-.73.48-.51.3-1.07.54-1.66.74-.26.09-.53.17-.81.24-.08.02-.16.04-.24.06-.12.03-.24.05-.36.07-.03.01-.05.02-.08.01-.2.04-.4.08-.61.11-.04.01-.08.02-.12.02-.14.02-.28.04-.42.05-.03.01-.06.01-.09.01-.21.02-.43.04-.65.05-.11.02-.23.02-.34.02-.11.01-.23.02-.34.02-2.1.05-4.21.13-6.32.22-.7.03-1.41.06-2.11.09-.81.03-1.62.07-2.43.1-.95.04-1.89.07-2.84.1-.51.02-1.03.03-1.55.04-.47,0-.94.02-1.41.03-.76.01-1.52.02-2.28.02-1.13,0-2.26-.02-3.39-.05-7.6-.23-15.27-.29-22.9-.51-10.1-.28-20.23-.23-30.34.04-.54.01-1.06,0-1.55-.04-.12-.01-.23-.02-.34-.03-.1-.01-.19-.03-.28-.04-.09-.01-.18-.02-.27-.04-.21-.03-.41-.07-.61-.12-.13-.03-.26-.06-.38-.09-.12-.03-.24-.07-.36-.11-.07-.02-.13-.04-.19-.06-.25-.09-.5-.19-.74-.3-.24-.11-.47-.24-.7-.37-.06-.03-.12-.07-.18-.11-.05-.03-.1-.07-.15-.1-.11-.07-.22-.15-.32-.23-.2-.16-.4-.33-.59-.51-.23-.22-.44-.45-.65-.7-.1-.13-.2-.26-.29-.39-.19-.27-.37-.56-.54-.86-.08-.15-.16-.31-.24-.47-.07-.16-.15-.33-.22-.49-.08-.17-.15-.34-.21-.52-1.04-2.89-3.48-5.15-3.87-8.84h11.6c.88,0,1.76,0,2.64-.01,13.8-.01,27.59-.08,41.39-.05,6.43.01,12.86.04,19.29.1.47.01.93,0,1.38-.02.34,0,.67-.02.99-.04.18-.01.36-.02.53-.04.18-.01.35-.03.52-.05.33-.03.65-.07.97-.12.16-.02.31-.04.46-.07.38-.06.75-.13,1.12-.21.36-.08.71-.16,1.06-.26.27-.08.54-.16.81-.25.15-.04.29-.09.43-.15,0,0,.01,0,.01,0h0c.17-.06.34-.13.5-.2.29-.1.58-.23.86-.35h0c.38-.18.74-.36,1.1-.57h.01c.36-.2.71-.42,1.05-.65h.01c.34-.23.68-.48,1-.75.07-.04.13-.1.2-.16.03-.02.06-.05.09-.08.05-.03.1-.07.15-.11.12-.11.23-.21.35-.31.01-.02.02-.03.03-.04.2-.19.41-.38.6-.59.12-.12.23-.24.33-.36.12-.12.23-.24.33-.37.11-.12.21-.25.32-.38.24-.31.48-.62.71-.96.13-.18.26-.38.39-.58.12-.19.25-.39.37-.6.16-.28.32-.56.47-.85.16-.29.31-.59.45-.9.02-.04.04-.08.06-.12.02-.04.03-.07.05-.11h.01s.08.09.12.12c1.61,1.47,3.64,1.2,5.58,1.21,1.11.01,2.21.01,3.32.01h2.3c2.52,0,5.06-.01,7.58-.01.07,2.16.15,4.32.23,6.49Z"/>
      <path class="cls-2" d="m73.86,83.39v.34c-.01.25-.02.49-.05.73-.01.12-.02.23-.03.33v.03c-.03.24-.06.47-.1.69-.01.05-.02.11-.03.16-.05.25-.1.49-.17.72-.05.22-.12.43-.2.63,0,.02,0,.04-.02.05-.03.09-.06.18-.1.26t-.01.02s.01.02-.01.03c-.06.18-.14.35-.22.51-.11.22-.23.43-.36.64-.03.06-.07.12-.12.18-.1.16-.21.31-.33.45-.16.2-.32.38-.5.55-1.4,1.37-3.44,2.11-6.08,2.14-7.86.07-15.72.03-23.58.02h-6.28c-6.97,0-13.93.02-20.89-.02-.27,0-.53,0-.78-.03-.11,0-.22-.01-.33-.02-.21-.01-.41-.04-.61-.07-.02,0-.04,0-.07,0-.24-.03-.47-.07-.69-.12-.16-.03-.31-.07-.47-.11-.5-.13-.98-.29-1.41-.5-.1-.05-.2-.1-.3-.16-.05-.01-.1-.04-.15-.08-.12-.06-.24-.13-.35-.21-.35-.22-.66-.47-.95-.76-.35-.33-.66-.71-.93-1.13-.1-.16-.2-.33-.28-.5-.09-.16-.17-.33-.24-.51-.03-.04-.05-.09-.06-.13-.06-.13-.11-.28-.16-.43-.16-.45-.29-.93-.37-1.43-.11-.57-.17-1.18-.19-1.83-.02-.48-.01-.94.03-1.39,0-.04,0-.09.01-.13.02-.28.05-.54.09-.8.09-.57.22-1.11.4-1.61.05-.16.11-.32.18-.47.01-.03.02-.05.04-.08.06-.14.12-.28.19-.41h0c.06-.13.12-.24.19-.35,0-.02.01-.03.03-.05.06-.11.13-.22.21-.32.03-.06.07-.12.12-.18.06-.09.12-.17.19-.26.14-.17.28-.33.43-.49.35-.35.74-.66,1.16-.93h0c.21-.14.44-.26.67-.37.23-.12.48-.22.74-.31.18-.07.37-.13.56-.18.02-.01.03-.02.05-.01.14-.04.29-.08.44-.11.16-.05.33-.08.51-.11.04-.01.09-.02.13-.02.23-.04.47-.07.72-.09.08-.01.16-.01.24-.02.04-.01.08-.01.12-.01.25-.02.51-.03.77-.03,3.52-.02,7.04-.03,10.56-.05,3.51,0,7.03,0,10.55,0,.13-.01.25-.01.37-.01.13,0,.25,0,.37.01.1-.01.2-.01.29-.01.1,0,.2,0,.29.01,1.61-.01,3.23-.01,4.84-.01,7.83,0,15.65.01,23.48.04.32,0,.64.02.95.04.26.03.51.06.76.1.05,0,.1.01.15.02.29.05.57.12.85.19.27.08.54.17.8.27.26.1.51.2.75.33.12.06.24.12.35.19.12.06.23.13.34.2.22.14.44.3.64.46.2.16.39.34.58.52.18.18.35.37.52.57h0c.16.21.31.42.45.64.14.22.27.45.39.68.12.24.22.48.32.74.1.25.18.51.26.78.04.17.09.35.12.53.02.06.03.13.04.19.01.01,0,.02,0,.02.02.06.03.12.03.17.01.02.01.03.01.04.04.24.07.48.09.72v.03s.01.03,0,.05h0s.01.02,0,.03t0,.02s.01.02.01.02c0,.02,0,.05,0,.07.02.23.03.47.03.71Z"/>
      <path class="cls-2" d="m82.65,104.74c-.04,5.2-3.21,8.22-8.81,8.24-10.62.04-21.25.05-31.87.05h-11.69c-.29,0-.57-.01-.84-.03-.28-.01-.55-.04-.81-.08-.17-.02-.34-.04-.5-.07-.16-.03-.32-.06-.48-.1-.31-.07-.61-.15-.9-.24-.16-.05-.32-.11-.48-.17-.13-.05-.26-.1-.39-.16-.17-.07-.34-.15-.5-.24-.14-.07-.27-.15-.41-.23-.18-.11-.35-.22-.52-.34-.08-.05-.16-.11-.24-.18-.14-.1-.27-.21-.39-.32-.05-.05-.1-.09-.15-.14-.1-.09-.19-.18-.28-.28-.18-.19-.35-.39-.51-.6,0,0-.01,0-.01,0-.11-.15-.21-.3-.31-.45-.12-.19-.23-.38-.34-.57-.09-.18-.17-.36-.25-.55-.04-.09-.08-.19-.12-.29-.04-.1-.07-.2-.1-.3-.08-.24-.15-.48-.21-.73-.03-.12-.06-.25-.08-.37-.03-.13-.05-.26-.07-.39-.1-.58-.14-1.2-.13-1.84,0-.08,0-.16.02-.23v-.02h0s0-.03,0-.04c0-.03,0-.06,0-.09,0-.19.02-.37.04-.56.02-.21.04-.42.08-.62,0-.03,0-.06.02-.09.01-.11.03-.22.06-.33.02-.16.06-.31.11-.46.02-.09.04-.18.07-.27,0-.02.01-.05.02-.07.06-.2.13-.4.2-.59.02-.06.04-.11.07-.16.06-.15.12-.3.2-.45,0-.02.01-.03.03-.05.03-.06.05-.11.08-.16.01-.04.04-.08.06-.12.06-.11.12-.22.2-.33,0-.03.03-.06.06-.09.05-.09.11-.18.18-.26,0-.02.01-.04.03-.05,0-.02.02-.03.04-.05,0-.02.02-.04.04-.06.18-.24.38-.47.6-.69.06-.07.12-.13.19-.19,1.52-1.41,3.71-2.19,6.46-2.21,1.83-.01,3.65-.02,5.48-.02.09-.01.18-.01.27,0,2.03-.01,4.06-.01,6.09-.01,3.4.01,6.81.02,10.22.02v-.02c7.17,0,14.33-.02,21.5.01.37,0,.73,0,1.07.04,1.39.1,2.59.37,3.62.83.26.12.5.24.74.38.23.13.45.28.66.44.22.16.42.33.6.51.19.18.37.37.53.57.33.4.61.84.86,1.32h0c.11.26.22.51.32.78.39,1.09.58,2.35.57,3.78Z"/>
      <path class="cls-2" d="m61.05,62.76c0,.14-.01.28-.02.42,0,.14,0,.27-.02.4,0,.03-.01.06-.01.08-.01.12-.02.25-.04.37-.01.13-.03.26-.05.39-.01.13-.03.25-.06.37,0,.03,0,.06-.01.09-.03.15-.06.3-.1.44,0,.01,0,.03-.01.04-.02.11-.05.22-.09.33.01.01-.01.02-.01.02-.03.18-.09.35-.15.52,0,.01-.01.02-.01.03-.06.18-.13.35-.21.52,0,0,0,.02-.01.02-.04.09-.08.17-.12.25-.22.45-.48.87-.8,1.23-.12.16-.26.3-.4.44-.15.15-.32.3-.49.43-.02.03-.05.05-.08.06-.18.14-.38.27-.58.39-.21.13-.43.25-.67.35-.23.11-.48.21-.73.29-.2.07-.41.13-.63.18-.07.03-.15.05-.24.06-.02.01-.05.02-.08.02-.12.03-.25.06-.38.07-.01.01-.03.02-.04.01-.17.03-.34.06-.52.08-.43.07-.89.11-1.37.11-.05.01-.11.01-.17.01-.05,0-.1,0-.16,0-3.62.05-7.23.05-10.85.04-1.56,0-3.13-.01-4.69-.01h-1.46c-1.12-.01-2.24-.01-3.36-.01-6.6.01-13.2.07-19.8-.01-1.3-.02-2.47-.21-3.48-.58-1.02-.37-1.88-.9-2.58-1.6-1.41-1.39-2.17-3.4-2.23-5.93v-.31c0-.27.01-.53.03-.79,0-.08,0-.16.02-.23,0-.21.03-.41.07-.61,0-.1.02-.19.04-.28.04-.25.09-.5.15-.73.07-.27.15-.54.25-.79.18-.5.41-.97.68-1.41.27-.43.58-.83.94-1.18.18-.18.36-.35.56-.51.2-.16.41-.3.63-.44.21-.13.43-.26.66-.37.06-.03.11-.05.16-.07.18-.09.36-.16.55-.24.04,0,.08-.03.12-.04.24-.08.48-.16.74-.23.03-.01.07-.01.1-.02.25-.07.5-.12.77-.16.29-.05.59-.09.91-.12.05,0,.11,0,.16,0,.27-.02.54-.03.82-.03,2.21-.02,4.41-.04,6.62-.05,2.2-.01,4.41-.02,6.62-.03,2.47-.02,4.93-.02,7.4-.02h2.47c.14,0,.27-.01.4-.01s.26.01.4.01c.32-.01.64-.01.96-.01,1.47,0,2.94,0,4.41.01,3.62,0,7.25.01,10.87.02.26,0,.51.01.76.03.04,0,.09,0,.13.01.1,0,.2.01.3.03.05-.01.09,0,.14.01.09,0,.17.01.26.03.04,0,.08,0,.12.02.11.01.22.03.32.05.01-.01.02-.01.03,0,.24.04.47.09.7.14h.01c.55.15,1.06.33,1.52.55.22.11.43.22.63.35.05.03.1.06.14.09.13.08.26.17.38.27.08.06.16.12.23.18.16.14.31.28.45.42h.01c.17.19.33.37.48.57.15.19.29.4.42.62.1.18.2.36.29.55.07.14.13.28.18.42.15.34.26.69.35,1.06.03.1.06.21.08.32.01.03.02.06.02.08.05.21.09.43.12.66.04.3.08.6.1.92.03.43.04.88.03,1.34Z"/>
      <path class="cls-5" d="m203.64,123.81s-.05-.03-.07-.05v-.07l.07.12Z"/>
      <path class="cls-5" d="m206.83,130.23h0s-15.32.01-15.32.01c-3.08,0-6.15-.03-9.23-.06-5.47-.04-10.94-.09-16.41.01-2.07.04-4.15.1-6.22.18-.87.04-1.67.03-2.42-.05-.1,0-.19-.01-.29-.03-.27-.03-.52-.07-.77-.12-.17-.03-.33-.06-.49-.1-.08-.02-.15-.03-.22-.06-.15-.04-.29-.08-.43-.13-.13-.04-.26-.08-.38-.13-.19-.07-.38-.16-.56-.25-.18-.09-.36-.18-.54-.29-.2-.13-.39-.26-.57-.4-.22-.16-.42-.34-.62-.55-.12-.12-.24-.25-.35-.38-.08-.08-.15-.16-.21-.25-.06-.07-.12-.15-.17-.23-.11-.13-.2-.27-.29-.41-.13-.19-.25-.4-.36-.61-.23-.43-.45-.89-.64-1.4-.13-.33-.27-.66-.42-.98-.15-.32-.3-.64-.47-.96-.32-.64-.67-1.27-1-1.9-.04-.07-.07-.14-.1-.21h-.01c-.06-.11-.11-.23-.17-.34.23-1.4.83-2.22,1.64-2.69,1-.6,2.35-.67,3.74-.67,6.76.01,13.52,0,20.28,0h24.36c-.04,3.24,1.43,4.6,4.16,4.38l.03.05c.15.85.46,1.59,1.19,2.1.78.79.98,2.59,1.05,2.25.13.12.26.25.38.38.12.13.23.27.34.41.21.28.4.59.58.93.34.68.63,1.49.91,2.5Z"/>
      <path class="cls-4" d="m198.62,95.19c-.06.79-.16,1.59-.29,2.41h-54.44v-10.04h54.35c.08.44.15.88.21,1.32.04.33.08.66.11.99.03.33.06.66.08.99.1,1.42.1,2.85-.02,4.33Z"/>
      <path class="cls-4" d="m198.49,111.37h0s-54.56.01-54.56.01c-.05-.41-.09-.81-.13-1.21-.04-.4-.07-.8-.09-1.21-.08-1.17-.1-2.33-.06-3.51.01-.28.02-.56.04-.84.01-.4.04-.8.08-1.21.04-.42.07-.84.11-1.26.02-.28.06-.57.09-.86h54.22c.78,3.33.53,6.54.3,10.09Z"/>
      <path class="cls-4" d="m198.65,49.68c.03.8.03,1.6,0,2.41-.02.4-.05.82-.08,1.23t0,.01c-.04.41-.09.83-.14,1.25-.06.42-.13.85-.21,1.28h0s-54.27.01-54.27.01c-.1-.81-.18-1.62-.24-2.43-.08-1.23-.1-2.45-.06-3.7.03-.86.09-1.72.17-2.61.04-.44.09-.89.14-1.34h54.35c.11.87.2,1.72.26,2.57.03.44.06.88.08,1.32Z"/>
      <path class="cls-4" d="m198.17,83.71h-53.81c-1.16-3.15-.44-6.41-.43-10.09h54.45c.51,3.36.7,6.59-.21,10.09Z"/>
      <path class="cls-2" d="m51.28,45.67c-.21.52-.45.98-.72,1.39-.07.12-.14.23-.23.34-.15.22-.32.42-.49.6-.12.13-.25.25-.38.36-.11.09-.22.18-.33.26-.11.09-.22.17-.34.24-.12.08-.23.15-.36.21-.18.1-.37.19-.56.26-.11.05-.22.09-.34.12-.27.09-.54.16-.83.22-.28.07-.58.11-.89.13-.38.05-.78.06-1.19.06-1.03,0-2.07-.01-3.1-.01-1.33,0-2.66,0-4,0h-1.69c-7.17,0-14.35.04-21.52-.02-5.12-.04-7.83-2.88-7.86-7.85-.04-5.13,2.54-8.05,7.56-8.13,4.91-.08,9.82-.07,14.74-.04,1.03,0,2.06.01,3.1.01,1.03.01,2.06.01,3.1.02.27,0,.54.01.82.03.16.01.32.02.48.04.26.02.53.05.81.08.22.03.45.06.69.08.24.03.49.06.75.08.11.35.23.69.36,1.03.12.34.26.67.4.99.06.14.12.27.18.4.26.57.54,1.11.86,1.62.08.15.17.29.27.43.09.14.18.29.29.43.09.14.19.28.3.42.13.19.28.38.44.57.1.13.21.26.33.39.11.14.23.27.36.4.06.07.13.14.19.2.04.05.08.09.12.13.2.2.4.39.61.58.53.48,1.1.93,1.7,1.33.31.2.62.4.94.58.21.12.43.24.65.35.14.08.29.15.44.22.3.15.61.29.92.41.28.12.56.22.85.32.26.1.53.19.81.26.28.1.57.18.87.25.14.05.29.08.44.11.15.04.3.08.45.11Z"/>
      <path class="cls-4" d="m198.6,42.15h0s-54.46,0-54.46,0h0c-.65-2.48-.47-4.85-.42-7.4,0-.25.01-.5.01-.75,0-.42,0-.84-.02-1.27,0-.16,0-.32-.01-.48h54.46c.92,3.19.39,6.38.44,9.89Z"/>
      <path class="cls-4" d="m198.33,69.7h-54.39v-9.93h54.15c.07.23.14.47.19.7.06.23.11.47.15.7.05.24.09.47.12.71.02.15.04.3.05.46.01.1.02.2.03.31.02.28.04.56.05.84.08,1.97-.14,4.01-.35,6.21Z"/>
      <path class="cls-6" d="m41.94,70.83v4.18c-1.62,0-3.23,0-4.84.01.08-1.4.12-2.8.15-4.2,1.56,0,3.13.01,4.69.01Z"/>
      <path class="cls-6" d="m41.98,54.02c-1.47-.01-2.94-.01-4.41-.01h-1.76c.01-1.39.01-2.78.02-4.17h1.69c1.34,0,2.67,0,4,0,.31,1.32.45,2.71.46,4.17Z"/>
      <path class="cls-2" d="m41.52,49.85c-1.33,0-2.66,0-4,0,.1-1.91.41-3.81,1.2-5.67,1.44,1.74,2.33,3.62,2.8,5.67h0Z"/>
      <path class="cls-2" d="m41.98,54.02v.29c-.02,5.51-.03,11.01-.04,16.52-1.56,0-3.13-.01-4.69-.01.08-3.15.13-6.27.43-9.38.23-2.46.02-4.95-.11-7.43,1.47,0,2.94,0,4.41.01Z"/>
      <path class="cls-6" d="m41.96,96.08c-2.03,0-4.06,0-6.09.01-.09-.01-.18-.01-.27,0,.03-1.41.05-2.81.07-4.22h6.28c0,1.4.01,2.81.01,4.21Z"/>
      <path class="cls-2" d="m36.3,49.84h-.47c0-.72,0-1.43,0-2.15.2.72.35,1.43.46,2.15Z"/>
      <path class="cls-2" d="m36.61,54.02c.02,2.79-.23,5.6-.16,8.39.08,2.8.09,5.59.09,8.4h0s-.75.01-.75.01h0c.01-5.61.01-11.21.02-16.8h0s.8-.01.8-.01h0Z"/>
      <path class="cls-2" d="m41.95,91.87h-6.28c.07-5.61.1-11.23.11-16.84h0s.74-.01.74-.01h0c-.01,2.03-.02,4.05-.02,6.08.31-2.02.49-4.04.6-6.07h0c1.61-.02,3.22-.02,4.84-.02h0c0,5.63,0,11.24.01,16.86Z"/>
      <path class="cls-6" d="m41.98,117.25h-3.93c-.65-1.37-1.24-2.76-1.68-4.22h5.6c.01,1.41.01,2.81.01,4.22Z"/>
      <path class="cls-2" d="m41.97,113.03h-5.6c-.67-2.1-1.05-4.33-.98-6.83.09-3.37.16-6.74.21-10.11.09-.01.18-.01.27,0,2.03-.01,4.06-.01,6.09-.01,0,5.65,0,11.3,0,16.95Z"/>
      <path class="cls-5" d="m40.91,122.72c-.98-1.85-1.98-3.64-2.85-5.46h-.01s3.93-.01,3.93-.01v2.22c0,1,.49,2.2-1.07,3.25Z"/>
      <path class="cls-5" d="m202.35,121.61c-3.1.6-4.2-1.14-4.16-4.38h-24.36c-6.76,0-13.52.01-20.28,0-1.39,0-2.74.07-3.74.67-.81.47-1.41,1.29-1.64,2.69-.44-.66-.88-1.32-1.38-2.09-.09-.12-.17-.25-.26-.38-.11-.17-.22-.34-.34-.53-.18-.27-.37-.55-.57-.86-.2-.3-.41-.62-.64-.96h11.14c.64,0,1.27.01,1.91.01.46.02.93.03,1.4.04,11.68,0,23.37,0,35.06-.01,1.54.52,3.09.4,4.65.07.19.21.37.42.55.64.35.43.67.88.97,1.34.15.23.29.46.42.7.41.72.75,1.47,1.02,2.25.09.26.17.53.25.8Z"/>
      <path class="cls-6" d="m37.25,70.82c-.03,1.4-.07,2.8-.15,4.2h-1.32c.01-1.4.01-2.8.01-4.2h1.46Z"/>
      <path class="cls-2" d="m37.1,75.02h0c-.11,2.04-.29,4.06-.6,6.08,0-2.03.01-4.05.02-6.07h0s.58-.01.58-.01Z"/>
      <path class="cls-2" d="m37.57,54.01c.13,2.48.34,4.97.11,7.43-.3,3.11-.35,6.23-.43,9.38h-.71c0-2.82-.01-5.61-.09-8.41-.07-2.79.18-5.6.16-8.39h0s.96-.01.96-.01Z"/>
      <path class="cls-2" d="m37.52,49.84h-1.22c-.11-.72-.26-1.43-.46-2.15-.36-1.95-.36-3.89,0-5.84.47-.33.93-.65,1.39-.98.5,1.1,1,2.2,1.5,3.3-.79,1.86-1.1,3.76-1.2,5.67Z"/>
      <path class="cls-5" d="m139.31,107.95c0,.14-.01.28-.03.44-2.52,0-5.06.01-7.58.01h-2.3c-1.11,0-2.21,0-3.32-.01-1.94-.01-3.97.26-5.58-1.21-.04-.03-.08-.07-.12-.12.1-.07.19-.13.29-.18.06-.04.13-.07.2-.09.08-.04.17-.07.26-.09.08-.03.16-.05.25-.06.13-.02.26-.03.39-.03.14,0,.27.01.41.03.13.02.27.04.41.08.16.04.33.09.49.14,0,0,0,.01,0,.01h.01c.1.03.2.07.3.11.5-.04,1.01-.09,1.51-.14,1.59-.04,3.18-.09,4.76-.14.14,0,.27,0,.4-.01.1,0,.19,0,.28-.01h.01c2.16-.05,4.32-.11,6.48-.16.38-.01.77-.02,1.13.01.11,0,.22.03.33.05.05.01.11.03.16.04.1.03.19.07.28.12.08.05.16.11.23.18.03.03.05.05.06.08.02.02.04.04.05.07.05.07.09.14.12.22.01.03.03.07.04.12.02.08.04.17.05.27.01.08.02.17.02.27Z"/>
      <path class="cls-5" d="m142.97,120.62c-3.31.63-6.61.22-9.81.22-.35,0-.71,0-1.06.02-.32.01-.63.02-.95.05-.1.01-.2.02-.3.02-.27.03-.55.06-.82.1-.05,0-.1,0-.16.02-.06.01-.12.02-.19.03-.54.09-1.07.2-1.6.36-.09.02-.19.05-.28.08-.07.02-.14.04-.21.07-.19.05-.37.12-.56.2-.24.09-.47.19-.71.3h-.01c.1-.9.4-1.49.83-1.88h.01c.75-.68,1.9-.76,3.11-.8,2.68-.11,5.41.45,8.18-.44.35-1.36.71-2.73,1.07-4.09,1.07,1.78,2.14,3.56,3.46,5.74Z"/>
      <path class="cls-2" d="m37.21,40.87l-1.38.98c-.29-.77-.81-1.75.12-2.21.61-.3,1.17.46,1.26,1.23Z"/>
      <path class="cls-5" d="m37.62,126.01c-.79-.58-1.02-1.4-1.06-2.32.88.53.93,1.44,1.06,2.32Z"/>
      <path class="cls-5" d="m36.63,123.8c-.77-.51-1.11-1.27-1.25-2.14.79.5,1.12,1.26,1.25,2.14Z"/>
      <path class="cls-5" d="m124.91,106.84c-.5.05-1.01.1-1.51.14.13-.11.25-.19.38-.25.15-.06.29-.09.44-.09h.05c.21.01.42.07.64.2Z"/>
      <path class="cls-6" d="m11.7,96.41s8.78-1.72,8.78-1.06-3.72,9.78-3.72,9.78l-5.39-7.5.33-1.22Z"/>
      <path class="cls-6" d="m119.9,106.58h5.79v.16c0,.07-.06.12-.12.12h-5.67v-.28h0Z" transform="translate(-1.4 1.63) rotate(-.76)"/>
      <path class="cls-5" d="m122.49,106.84h3.76v.16c0,.07-.06.12-.12.12h-3.64v-.28h0Z" transform="translate(-1.71 2.02) rotate(-.93)"/>
      <circle class="cls-5" cx="120.6" cy="107.15" r=".26"/>
      <g>
        <rect class="cls-6" x="200.81" y="39.29" width="2.04" height="11.79"/>
        <path class="cls-6" d="m202.85,39.67v1.19c-.19-.13-.32-.35-.32-.6s.13-.47.32-.59Z"/>
      </g>
      <rect class="cls-6" x="194.13" y="115.13" width="6.08" height=".67"/>
      <path class="cls-5" d="m199.12,115.96c0,.08-.07.15-.15.15s-.15-.07-.15-.15.07-.15.15-.15c.04,0,.08.02.11.04s.04.06.04.11Z"/>
      <rect class="cls-5" x="194.48" y="115.81" width="4.51" height=".67"/>
      <rect class="cls-6" x="153.18" y="114.66" width="8.36" height="1.11"/>
      <polygon class="cls-6" points="158.03 115.78 159.42 115.78 159.4 115.74 158.02 115.73 158.03 115.78"/>
      <polygon class="cls-5" points="158.08 115.8 158.08 115.78 159.39 115.78 159.43 115.82 158.08 115.8"/>
      <path class="cls-5" d="m145.25,115.76h53.78v.83h-53.05c-.4,0-.73-.33-.73-.73v-.1h0Z"/>
      <path class="cls-6" d="m149.26,132.7l.88,2.17s.8.49,5.98.1l-6.44-2.47-.42.2Z"/>
    </g>
  </g>
</svg>