<?xml version="1.0" encoding="UTF-8"?>
<svg id="Layer_2" data-name="Layer 2" xmlns="http://www.w3.org/2000/svg" viewBox="0 0 259.22 133.42">
  <defs>
    <style>
      .cls-1 {
        fill: #d26f72;
      }

      .cls-2 {
        fill: #e6e2d9;
      }

      .cls-3 {
        fill: #90897e;
      }

      .cls-4 {
        fill: #b8cac4;
      }

      .cls-5 {
        fill: #eedbc4;
      }

      .cls-6 {
        fill: #504a47;
      }
    </style>
  </defs>
  <g id="Layer_1-2" data-name="Layer 1">
    <g id="Scissors">
      <path class="cls-6" d="m258.92,45.01c-3-4.83-6.06-9.62-8.99-14.5-1.12-1.85-2.29-3.1-4.7-3.09-18.55.08-37.09.09-55.63.06-3.17-.01-4.07,1.51-4.06,4.45,0,2.68.59,5.46-.67,8.7-5.63,0-11.29-.18-16.93.06-3.76.16-6.65-.94-9.27-3.68-5.72-5.95-11.66-11.69-17.51-17.52-5.2-5.18-10.25-10.53-15.66-15.48-5.54-5.06-11.59-5.35-16.27-.78-8,7.82-15.73,15.91-23.57,23.88-.97,1.18-.85,1.68-2.42,1.6-3.05-.15-3.37-.2-6.8-1.01-1.46-.11-5.24-.93-6.67-1.19-16.43-2.95-32.88-5.78-49.24-9.02-5.54-1.1-10.11-.14-13.04,4.53-2.99,4.77-3.23,10,.04,15.06,2.87,4.46,5.94,8.8,8.15,13.66.96,1.27,1.92,2.55,2.81,3.73-.88,1.47-2.02.98-3.03.98-.72.06-1.44.12-2.17.18-5.52.95-10.83,2.05-12.72,8.6-1.4,4.84-.07,9.06,2.33,13.08,2.81,4.7,5.91,9.24,8.75,13.93,1.77,2.92,4.06,5.14,7.21,6.45,7.47.28,14.81-.88,22.17-1.96,8.29-1.21,8.7-.89,12.33,6.89l.15.26c.27.34.55.68.82,1.03,2.54,2.79,3.53,7.1,7.19,8.7,5.57,2.43,8.65,7.1,11.57,11.89,2.64,4.34,5.37,7.06,10.26,8.79,2.25-.02,4.29.02,6.23.02,23.18-.03,46.35-.11,69.53.11,7.14.07,13.09-1.53,16.9-8.03.83-1.41,2.01-1.98,3.56-2.24,8.25-1.39,11.32-.06,15.81,6.94.39.61.97,1.1,1.47,1.64,20.37.08,40.75.15,61.13.22.83-1.03,1.27-2.17,1.24-3.55-.67-27.79-.32-55.59-.3-83.39Zm-243.12-3.51c14.55,3.07,28.81,6.07,43.79,9.23-5.72,2.12-11.12,1.44-16.29,2.29-3.97.66-8.02.95-12.04,1.18-5.02.28-9.49-.71-11.8-6-.94-2.15-2.92-3.76-3.66-6.7Zm-11.62,27.5c-.36-4.99,2.5-8.32,7.55-8.82,20.12-1.96,40.23-3.9,60.34-5.94,1.84-.19,4.22.31,5.14-2.33-.74-2.91-3.43-2.37-5.37-2.79-18.13-3.9-36.28-7.72-54.45-11.46-4.13-.85-7.28-2.4-7.86-7.1-.77-6.21,3.23-10.09,9.77-8.97,15.03,2.57,30.02,5.36,45.02,8.06,6.69,1.2,13.37,2.41,20.3,3.66,1.81,6.17,5.16,10.9,12.14,11.76,6.97.85,10.13-4.93,15.02-9.34,1.1,7.08,2.39,13.27,5.26,19,6.03,12.03,15.19,20.6,27.72,25.5,1.92.75,4.12,2.11,5.83-1.76-22.78-8.6-35-24.93-34.8-49.12-2.08-1.16-3.05-.37-4.01.59-2.47,2.47-5.01,4.88-7.45,7.38-4.37,4.48-8.55,4.94-12.38,1.29-3.76-3.58-3.66-8.34.41-12.49,6.04-6.18,12.16-12.28,18.28-18.39,4.43-4.43,8.19-4.56,12.79-.03,9.98,9.79,20.15,19.43,29.55,29.75,5.17,5.68,10.62,8.24,18.17,7.37,4.51-.52,9.13-.09,14.12-.09v57.32c-7.31,1.07-14.82-.3-22.06.64-3.22,8.81-5.39,10.29-14.7,10.29h-36.81c-.03-.25-.06-.49-.09-.74,3.02-.43,6.04-.98,9.07-1.27,7.36-.69,11.51-4.49,12.02-11.16.56-7.5-3.38-12.86-10.62-14.43-.52-.12-1.03-.28-1.81-.49.52-3.42,1.52-6.74.44-10.24-1.89-6.08-6.47-9.67-12.79-8.9-17.86,2.2-35.69,4.76-53.56,6.91-13.86,1.68-27.76,3.06-41.66,4.38-4.89.46-8.15-2.88-8.52-8.04Zm16.27,24.42c-1.54.01-2.85-.9-3.68-2.13-2.02-2.98-3.88-6.07-6.25-9.82,12.5-1.26,23.93-2.41,35.97-3.62-.95,4.34-1.96,8.43.31,13.17-9.06,1.09-17.64,2.36-26.35,2.4Zm29.22-7.31c-.66-5.64,1.9-8.87,7.81-9.64,16.73-2.19,33.45-4.4,50.19-6.43,5.42-.66,8.84,2.32,9.4,7.55.54,5.1-1.83,8.36-7.22,9.15-10.52,1.54-21.08,2.81-31.62,4.21-6.17.83-12.35,1.68-18.53,2.52-6.23.47-9.38-1.8-10.03-7.36Zm13.18,23.21c-2.52-4.19-4.44-7.39-6.71-11.17,2.81-.33,5.16-.61,8.11-.96-1.25,3.93-1.12,7.47-1.4,12.13Zm4.56-3.73c-.8-5.16,1.56-9.14,6.42-9.82,15.46-2.16,30.96-4.09,46.45-6.11,4.39-.14,7.77,2.96,8.4,7.69.6,4.61-2.02,8.54-6.52,9.17-15.28,2.14-30.58,4.19-45.89,6.14-4.72.61-8.11-2.29-8.86-7.07Zm109.94,13.24c-2.65.01-4.58.34-5.09,3.53-.62,3.97-4.05,5.1-7.22,6.37-1.27.99-2.78.8-4.22.8-24.53,0-49.06,0-73.59-.02-1.26,0-2.71.17-3.71-.67-5.68-1.59-6.45-7.33-9.42-11.21.86-1.69,2.14-1.1,3.4-.62,1.36.02,2.72.05,4.09.07,1.23-.58,2.47-.65,3.74-.1,4.26.01,8.53.03,12.79.04.5-.51.99-.51,1.49.01.61,0,1.22,0,1.82,0,.5-.52,1-.52,1.49.01.33,0,.61.11.86.33,2.9-.11,5.81-.21,8.72-.31.48-.56.95-.56,1.42.02l-.05.31h2.07c2.16-.12,4.33-.23,6.49-.35.49-.56.98-.55,1.45.03,1.41.12,2.82.24,4.22.36.29-.21.62-.32.98-.32,2.67-.85,5.35-.91,8.03-.07,5.42-.05,10.83-.09,16.25-.13.48-.1.97-.19,1.45-.29,6.79-1.92,8.15-3.04,11.72-9.88h18.76c.87,3.84-.71,8.19,3.42,11.5-4.53.98-7.97.56-11.36.58Zm67.01-48.26s0,.01-.01.02v.02s-.02.06-.03.09c-.05.12-.09.24-.14.36h-54.08c-.17-1.34-.27-2.63-.29-3.9v-.06c-.04-1.68.05-3.3.27-4.94-.02-.04-.03-.08-.04-.12-.1-.27-.08-.54.03-.81.02-.09.04-.16.07-.23.18-.54.59-.65,1.17-.4,2.06.02,4.11.04,6.17.06,1.98-.69,3.96-.69,5.94-.02h1.79c1.61-.61,3.23-.62,4.85-.01,2.04,0,4.09-.01,6.14-.01.54.02,1.08.05,1.62.07,1.31.1,2.63.2,3.94.3.89-.41,1.77-.42,2.66-.02.52-.1,1.05-.21,1.58-.31.56-.06,1.13-.11,1.69-.16,1.5.14,2.99.28,4.48.42,3.83-.09,7.66-.18,11.48-.27.11.12.21.23.3.35h.01c.15.2.3.39.42.59.02.02.04.04.05.07.32.48.56.96.73,1.44.02.04.03.07.04.11.04.13.08.25.11.38.62,2.28-.09,4.62-.95,6.98Zm-54.36-38.32c.44-.67,1.09-.96,1.85-.95,11.53.08,23.06-.51,34.59.33.7,0,1.4,0,2.11.01.4-.01.81-.01,1.22-.02,1.07,0,2.15-.01,3.23-.02,3.78-.63,7.55-.53,11.46.02,1.26,2.53.84,5.03.45,7.52-.16,1.13-.33,2.26-.49,3.39-.41,1.08-1.32,1.05-2.24,1.04-10.73-.06-21.46-.12-32.19-.18-.84,0-1.68.01-2.52.01-4.68,0-9.36,0-14.04-.01-.84.01-1.67.01-2.51.01-.69.08-.96-.24-.87-.92-.48-3.4-.27-6.82-.05-10.23Zm-.01,14.76h54.62v10.3h-54.33c-.86-3.31-.4-6.67-.29-10.3Zm.21,27.83h54.03c.95,3.51,1.13,7.01-.13,10.31h-53.96c-.41-3.79-.58-6.87.06-10.31Zm54.1,23.93l-.23.14c-.34.55-.75.56-1.21.15-17.23,0-34.47-.01-51.7-.02-.51.33-.89.27-1.06-.36-.41-3.27-.37-6.51.01-10.33h28.86c6.98,0,13.96-.05,20.94.03,1.73.02,3.77-.68,4.96,1.4.36,3.03,1.3,6.1-.57,8.99Zm-54.03,3.67h53.94c1.17,2.81.84,5.64.35,8.84h-54.39c-.36-3.09-.69-5.79.1-8.84Zm16.4,25.58c-2.33.73-4.65.99-6.94-.13-2.57-3.74-5.15-7.47-7.61-11.06,1.08-1.89,2.51-1.28,3.66-1.28,14.54-.04,29.07.22,43.6-.13,4.95-.12,7.92,1.48,9.9,5.83.96,2.12,2.37,4.02,4.04,6.77h-46.65Zm47.48-7.04c-3.05-4.18-5.59-8.22-5.5-14.11.37-22.6.15-45.21.15-67.74,1.22-.35,1.53.22,1.67.99,1.56,1.67,2.69,3.61,3.52,5.72,1.25.91,1.04,2.25,1.04,3.52.01,23.39.01,46.77.01,70.15,0,.49.13,1.1-.89,1.47Z"/>
      <path class="cls-1" d="m53.51,102.88c.27.34.54.68.82,1.03-.27-.34-.54-.68-.82-1.03Z"/>
      <path class="cls-2" d="m111.61,112.24c3.02-.43,6.04-.98,9.08-1.27,7.35-.69,11.51-4.49,12.01-11.16.57-7.5-3.38-12.87-10.61-14.44-.52-.11-1.03-.27-1.82-.48.53-3.42,1.52-6.74.44-10.24-1.88-6.08-6.47-9.67-12.78-8.9-17.87,2.2-35.69,4.75-53.56,6.91-13.86,1.67-27.76,3.06-41.66,4.37-4.89.46-8.15-2.87-8.52-8.04-.36-5,2.5-8.32,7.56-8.82,20.11-1.96,40.23-3.91,60.34-5.95,1.84-.19,4.22.31,5.15-2.33-.74-2.91-3.43-2.37-5.37-2.79-18.13-3.9-36.28-7.72-54.45-11.46-4.13-.85-7.29-2.41-7.87-7.11-.76-6.2,3.23-10.09,9.78-8.97,15.03,2.57,30.01,5.36,45.02,8.06,6.69,1.2,13.37,2.41,20.31,3.66,1.81,6.18,5.15,10.91,12.13,11.76,6.97.85,10.14-4.93,15.03-9.34,1.1,7.08,2.39,13.27,5.26,19,6.03,12.03,15.18,20.6,27.72,25.5,1.92.75,4.12,2.1,5.83-1.77-22.78-8.6-35-24.93-34.81-49.11-2.08-1.17-3.04-.37-4.01.59-2.47,2.47-5.01,4.88-7.45,7.38-4.37,4.48-8.55,4.94-12.38,1.29-3.76-3.58-3.66-8.34.41-12.49,6.05-6.17,12.16-12.28,18.28-18.38,4.43-4.43,8.2-4.56,12.8-.04,9.97,9.8,20.14,19.43,29.54,29.76,5.17,5.68,10.62,8.24,18.18,7.37,4.51-.52,9.13-.09,14.11-.09v57.32c-7.3,1.08-14.82-.3-22.06.65-3.22,8.8-5.39,10.29-14.7,10.29-12.27,0-24.54,0-36.81,0-.03-.25-.06-.49-.09-.74Z"/>
      <path class="cls-5" d="m77.5,117.01c1.36.03,2.73.05,4.09.08,1.27.67,2.51.48,3.74-.11,4.26.02,8.53.03,12.79.05.5,0,.99,0,1.49,0,.61,0,1.22,0,1.83.01.49,0,.99,0,1.48.01.33,0,.62.11.86.33,3.36,1.96,6.72,1.88,10.09.02h2.07c4.05,1.93,8.1,1.91,12.17.04.29-.22.61-.32.98-.32.43.18.87.36,1.3.53,5.51,2.11,11.22.6,16.84.92,2.46.14,5.17.81,7.38-1.13.08-.27.15-.54.21-.81,6.79-1.92,8.15-3.04,11.72-9.88h18.76c.87,3.84-.71,8.19,3.42,11.49-4.53.99-7.97.56-11.37.58-2.65.01-4.58.34-5.08,3.54-.63,3.97-4.06,5.1-7.22,6.37-10.47-.05-20.93-.15-31.4-.13-16.71.04-33.41.16-50.12.24-5.68-1.59-6.45-7.33-9.42-11.21,1.13-.21,2.26-.42,3.4-.63Z"/>
      <path class="cls-2" d="m59.71,93.47c-6.23.47-9.38-1.8-10.03-7.36-.66-5.64,1.9-8.87,7.81-9.64,16.72-2.18,33.44-4.39,50.18-6.43,5.42-.66,8.85,2.32,9.4,7.56.54,5.09-1.83,8.35-7.22,9.14-10.52,1.54-21.08,2.81-31.61,4.22-6.18.82-12.35,1.68-18.53,2.52Z"/>
      <path class="cls-2" d="m120.28,89.67c4.39-.15,7.77,2.95,8.4,7.69.61,4.61-2.02,8.54-6.52,9.17-15.29,2.13-30.58,4.19-45.89,6.14-4.72.6-8.11-2.29-8.85-7.07-.81-5.16,1.55-9.15,6.41-9.83,15.47-2.16,30.96-4.09,46.45-6.1Z"/>
      <path class="cls-5" d="m199.73,127.89c-2.57-3.74-5.14-7.47-7.61-11.06,1.08-1.89,2.52-1.28,3.67-1.29,14.53-.04,29.07.23,43.59-.13,4.95-.12,7.93,1.48,9.9,5.83.96,2.11,2.38,4.02,4.04,6.77h-46.65c-2.3-.74-4.62-.48-6.94-.13Z"/>
      <path class="cls-4" d="m189.99,47.02h54.62v10.3h-54.33c-.86-3.31-.4-6.67-.29-10.3Z"/>
      <path class="cls-4" d="m190.14,85.15c-.42-3.79-.58-6.87.05-10.31h54.04c.95,3.51,1.13,7-.13,10.31h-53.96Z"/>
      <path class="cls-4" d="m244.91,39.14c-.16,1.13-.33,2.26-.49,3.39-10.08-.04-20.17-.08-30.25-.12-1.46,0-2.96-.1-4.17.97-.84,0-1.68.01-2.52.02-4.68-1.66-9.36-1.59-14.05-.01-.83,0-1.67,0-2.5.01l-.88-.92c-.48-3.41-.27-6.82-.04-10.23,2.91,0,5.82.08,8.72-.04,9.23-.38,18.5.73,27.71-.58.7,0,1.41,0,2.11.01.41.44.82.43,1.22-.01,1.08,0,2.15-.02,3.23-.02,3.46,1.57,7.53-.65,10.81,1.53.4,2.16.75,4.08,1.11,6.01Z"/>
      <path class="cls-4" d="m190.17,111.28c-.36-3.08-.69-5.79.09-8.84h53.95c1.17,2.81.84,5.63.35,8.84h-54.39Z"/>
      <path class="cls-4" d="m242.86,99.06c-17.23,0-34.47-.01-51.7-.02-.35-.12-.71-.24-1.06-.36-.41-3.26-.36-6.51.01-10.33,9.85,0,19.36,0,28.86,0,6.98,0,13.96-.04,20.94.03,1.73.02,3.77-.68,4.96,1.4-1.13,2.94-.37,5.99-.57,8.99,0,0-.23.14-.23.14-.4.05-.81.1-1.21.15Z"/>
      <path class="cls-5" d="m253.99,45.84c1.25.91,1.04,2.25,1.04,3.52.01,23.38.02,46.76.01,70.15,0,.49.13,1.1-.89,1.47-3.05-4.17-5.59-8.22-5.5-14.11.36-22.6.15-45.2.15-67.73,1.21-.35,1.52.21,1.67.99-1.23,1.78-.83,3.79-.76,5.74.05,1.28.26,2.63,1.89,2.79,2.05.21,2.21-1.34,2.38-2.81Z"/>
      <path class="cls-5" d="m10.52,81.48c12.5-1.26,23.93-2.41,35.97-3.62-.95,4.34-1.96,8.43.31,13.17-9.07,1.09-17.64,2.35-26.35,2.4-1.55,0-2.85-.9-3.68-2.13-2.02-2.98-3.88-6.06-6.25-9.81Z"/>
      <path class="cls-5" d="m59.59,50.73c-5.71,2.12-11.11,1.44-16.28,2.29-3.97.65-8.02.95-12.04,1.17-5.02.28-9.49-.71-11.8-5.99-.94-2.16-2.92-3.76-3.66-6.7,14.55,3.07,28.8,6.07,43.78,9.23Z"/>
      <path class="cls-5" d="m83.53,128.85c16.71-.09,33.41-.21,50.12-.24,10.47-.02,20.93.08,31.4.13-1.27.99-2.78.8-4.22.8-24.53,0-49.06,0-73.59-.02-1.26,0-2.58.15-3.71-.67Z"/>
      <path class="cls-5" d="m64.25,97.19c-1.25,3.93-1.11,7.47-1.4,12.12-2.52-4.19-4.44-7.38-6.71-11.17,2.81-.33,5.16-.61,8.11-.96Z"/>
      <path class="cls-3" d="m226.44,31.63c-9.21,1.31-18.48.2-27.71.58-2.9.12-5.81.03-8.72.04.43-.67,1.08-.96,1.85-.96,11.53.08,23.06-.51,34.58.33Z"/>
      <path class="cls-2" d="m209.99,43.39c1.22-1.07,2.71-.98,4.17-.97,10.08.03,20.17.08,30.25.12-.41,1.08-1.31,1.05-2.24,1.04-10.73-.07-21.46-.13-32.19-.19Z"/>
      <path class="cls-5" d="m253.99,45.84c-.17,1.47-.33,3.02-2.38,2.81-1.64-.17-1.84-1.51-1.89-2.79-.08-1.95-.47-3.96.76-5.74,1.56,1.67,2.68,3.6,3.52,5.72Z"/>
      <path class="cls-5" d="m154.6,117.45c-2.21,1.94-4.92,1.27-7.38,1.13-5.61-.32-11.33,1.19-16.84-.92,2.24-.2,4.49-.4,6.73-.61,5.41-.04,10.83-.09,16.24-.13.42.18.83.35,1.24.53Z"/>
      <path class="cls-2" d="m193.43,43.39c4.68-1.58,9.37-1.65,14.05.01-4.68,0-9.36,0-14.05-.01Z"/>
      <path class="cls-5" d="m128.1,117.44c-4.06,1.86-8.12,1.89-12.17-.04,2.16-.11,4.33-.23,6.49-.34.48,0,.97.02,1.45.02,1.41.12,2.82.24,4.22.36Z"/>
      <path class="cls-5" d="m113.87,117.4c-3.37,1.86-6.73,1.94-10.09-.02,2.91-.1,5.81-.21,8.72-.31.47,0,.95.02,1.42.03l-.05.31Z"/>
      <path class="cls-4" d="m244.3,98.77c.2-3-.56-6.05.57-8.99.36,3.03,1.29,6.1-.57,8.99Z"/>
      <path class="cls-3" d="m137.12,117.05c-2.24.2-4.49.4-6.73.61-.43-.18-.87-.36-1.3-.53,2.67-.84,5.35-.91,8.04-.07Z"/>
      <path class="cls-5" d="m199.73,127.89c2.32-.35,4.64-.6,6.94.13-2.33.73-4.65.99-6.94-.13Z"/>
      <path class="cls-3" d="m85.33,116.98c-1.23.59-2.48.78-3.74.11,1.23-.58,2.48-.65,3.74-.11Z"/>
      <path class="cls-5" d="m77.5,117.01c-1.13.21-2.26.42-3.4.63.81-1.55.42.37,3.4-.63Z"/>
      <path class="cls-4" d="m190.1,98.68c.35.12.71.24,1.06.36-.51.33-.88.27-1.06-.36Z"/>
      <path class="cls-6" d="m242.86,99.06c.4-.05.81-.1,1.21-.15-.34.55-.75.56-1.21.15Z"/>
      <path class="cls-3" d="m102.92,117.05c-.49,0-.99,0-1.48-.01.5-.52.99-.51,1.48.01Z"/>
      <path class="cls-3" d="m113.92,117.09c-.47,0-.95-.02-1.42-.03.48-.55.96-.56,1.42.03Z"/>
      <path class="cls-3" d="m123.88,117.08c-.48,0-.97-.01-1.45-.02.49-.56.97-.55,1.45.02Z"/>
      <path class="cls-3" d="m99.61,117.03c-.5,0-.99,0-1.49,0,.5-.52.99-.52,1.49,0Z"/>
      <path class="cls-2" d="m190.05,42.49c.29.31.58.61.88.92-.69.08-.97-.25-.88-.92Z"/>
      <path class="cls-3" d="m229.77,31.63c-.4.44-.81.45-1.22.01.41,0,.81,0,1.22-.01Z"/>
      <path class="cls-5" d="m154.6,117.45c-.41-.18-.83-.35-1.24-.53.48-.1.97-.19,1.45-.29-.06.27-.13.55-.21.81Z"/>
      <path class="cls-4" d="m190.14,71.32c-.42-3.79-.58-6.87.05-10.31h54.04c.95,3.51,1.13,7-.13,10.31h-53.96Z"/>
      <rect class="cls-6" x="190.1" y="59.67" width="54.44" height="1.33"/>
      <path class="cls-6" d="m244.35,61.61s1.24,4.45,0,9.01c0,0,1.47-3.62,1.27-5.51,0,0-.31-2.4-1.16-3.41l-.11-.09Z"/>
      <path class="cls-4" d="m189.77,31.11h54.84v12.56h-54.55c-.86-4.04-.4-8.13-.29-12.56Z"/>
      <path class="cls-4" d="m244.61,31.11s2.34,4.78,0,12.56"/>
      <rect class="cls-6" x="199.92" y="128.02" width="6.86" height="1.83"/>
      <rect class="cls-6" x="74.71" y="115.67" width="69.94" height="1.22"/>
      <rect class="cls-5" x="74.91" y="117" width="69.94" height="1.22"/>
    </g>
  </g>
</svg>