<?xml version="1.0" encoding="UTF-8"?>
<svg id="Layer_2" data-name="Layer 2" xmlns="http://www.w3.org/2000/svg" viewBox="0 0 283.34 69.77">
  <defs>
    <style>
      .cls-1 {
        fill: none;
        stroke: #231f20;
        stroke-miterlimit: 10;
      }

      .cls-2 {
        fill: #fff;
      }

      .cls-3 {
        fill: #bd8b3f;
      }

      .cls-4 {
        fill: #5285c4;
      }

      .cls-5 {
        fill: #231f20;
      }

      .cls-6 {
        fill: #0c2340;
      }
    </style>
  </defs>
  <g id="Layer_1-2" data-name="Layer 1">
    <g>
      <rect class="cls-3" x=".55" y="65.1" width="90.29" height="3.75"/>
      <rect class="cls-3" x="181.17" y="65.1" width="101.22" height="3.75"/>
      <g id="Scoreboard">
        <polygon class="cls-6" points="193.8 35.44 193.8 37.2 181.48 68.85 88.48 68.85 101.48 35.44 193.8 35.44"/>
        <polygon class="cls-1" points=".84 35.44 100.67 35.44 282.84 35.44 282.84 69.27 .5 69.27 .84 35.44"/>
        <polyline class="cls-1" points="88.17 69.1 88.27 68.85 101.27 35.44 101.34 35.27"/>
        <polyline class="cls-1" points="194.34 35.27 193.59 37.2 181.27 68.85 181.17 69.1"/>
        <g>
          <path class="cls-5" d="m20.54,53.53h-.86v4.3h1.49v1.93h-5.33v-1.93h1.41v-12.77h-1.41v-1.93h4.77c2.75,0,4.09,1.18,4.09,3.74v2.86c0,2.58-1.39,3.8-4.16,3.8Zm1.66-6.99c0-1.22-.25-1.47-1.36-1.47h-1.15v6.55h1.15c1.11,0,1.36-.27,1.36-1.47v-3.61Z"/>
          <path class="cls-5" d="m25.29,59.77v-1.93h1.41v-12.77h-1.41v-1.93h5.29v1.93h-1.45v12.81h2.37v-4.49h2.08v6.38h-8.29Z"/>
          <path class="cls-5" d="m41.1,59.77l-.63-5.35h-2.46l-.63,5.35h-3.34v-1.93h1.28l1.97-14.72h4.01l2.04,14.72h1.28v1.93h-3.53Zm-1.72-14.57h-.21l-.97,7.31h2.1l-.92-7.31Z"/>
          <path class="cls-5" d="m51.08,59.77h-5.35v-1.93h1.47v-4.75h-.82l-1.64-8.02h-1.3v-1.93h3.57l1.39,8.29h.25l1.49-8.29h3.23v1.93h-1.28l-1.66,8.02h-.82v4.75h1.47v1.93Z"/>
          <path class="cls-5" d="m53.72,59.77v-1.93h1.41v-12.77h-1.41v-1.93h8.29v5.17h-2.08v-3.28h-2.39v4.93h3.38v1.91h-3.38v6h2.39v-4.41h2.08v6.3h-8.29Z"/>
          <path class="cls-5" d="m69.3,59.77v-5.58c0-1.47-.21-1.78-1.36-1.78h-1.18v7.37h-3.84v-1.93h1.41v-12.77h-1.41v-1.93h4.81c2.77,0,4.12,1.11,4.12,3.7v1.3c0,1.78-.97,2.81-2.52,3.07v.08c1.78.21,2.46,1.18,2.46,3.13v3.42h1.32v1.93h-3.8Zm.04-13.25c0-1.22-.23-1.45-1.39-1.45h-1.2v5.38h1.24c1.11,0,1.34-.27,1.34-1.53v-2.39Z"/>
        </g>
        <g>
          <path class="cls-5" d="m200.17,60.18c-2.37,0-3.91-1.43-3.91-4.79v-7.58c0-3.36,1.53-4.79,3.91-4.79,2.23,0,3.65,1.15,3.65,3.91v2.08h-2.46v-3.95h-1.37c-.9,0-1.2.29-1.2,1.57v9.93c0,1.28.29,1.57,1.2,1.57h1.37v-4.66h2.46v2.79c0,2.75-1.43,3.91-3.65,3.91Z"/>
          <path class="cls-5" d="m209.41,60.18c-2.39,0-3.97-1.43-3.97-4.77v-7.62c0-3.34,1.55-4.77,3.97-4.77s3.99,1.45,3.99,4.77v7.62c0,3.36-1.55,4.77-3.99,4.77Zm1.47-13.52c0-1.3-.23-1.57-1.2-1.57h-.52c-.97,0-1.18.27-1.18,1.57v9.89c0,1.3.21,1.6,1.18,1.6h.52c.97,0,1.2-.29,1.2-1.6v-9.89Z"/>
          <path class="cls-5" d="m224.21,59.91v-14.59h-.25l-1.28,14.59h-3.42l-1.28-14.59h-.25v14.59h-3.34v-1.93h1.41v-12.77h-1.41v-1.93h5.48l1.16,14.09h.21l1.18-14.09h5.48v1.93h-1.43v12.77h1.43v1.93h-3.67Z"/>
          <path class="cls-5" d="m233.1,53.67h-.86v4.3h1.49v1.93h-5.33v-1.93h1.41v-12.77h-1.41v-1.93h4.77c2.75,0,4.09,1.18,4.09,3.74v2.86c0,2.58-1.39,3.8-4.16,3.8Zm1.66-6.99c0-1.22-.25-1.47-1.36-1.47h-1.16v6.55h1.16c1.11,0,1.36-.27,1.36-1.47v-3.61Z"/>
          <path class="cls-5" d="m246.79,45.21v10.41c0,3.21-1.36,4.54-3.82,4.54s-3.82-1.32-3.82-4.54v-10.41h-1.41v-1.93h3.88v13.33c0,1.28.23,1.51,1.11,1.51h.46c.9,0,1.13-.23,1.13-1.51v-13.33h3.88v1.93h-1.43Z"/>
          <path class="cls-5" d="m256.24,48.93v-3.82h-1.58v12.87h1.47v1.93h-5.33v-1.93h1.45v-12.87h-1.55v3.82h-1.97v-5.65h9.49v5.65h-1.97Z"/>
          <path class="cls-5" d="m258.82,59.91v-1.93h1.41v-12.77h-1.41v-1.93h8.29v5.17h-2.08v-3.28h-2.39v4.93h3.38v1.91h-3.38v6h2.39v-4.41h2.08v6.3h-8.29Z"/>
          <path class="cls-5" d="m274.4,59.91v-5.58c0-1.47-.21-1.78-1.37-1.78h-1.18v7.37h-3.84v-1.93h1.41v-12.77h-1.41v-1.93h4.81c2.77,0,4.12,1.11,4.12,3.7v1.3c0,1.78-.97,2.81-2.52,3.07v.08c1.79.21,2.46,1.18,2.46,3.13v3.42h1.32v1.93h-3.8Zm.04-13.25c0-1.22-.23-1.45-1.39-1.45h-1.2v5.38h1.24c1.11,0,1.34-.27,1.34-1.53v-2.39Z"/>
        </g>
        <path class="cls-2" d="m125.6,60.34c-2.39,0-3.97-1.41-3.97-4.77v-7.62c0-3.34,1.55-4.77,3.97-4.77s3.99,1.45,3.99,4.77v7.62c0,3.38-1.55,4.77-3.99,4.77Zm1.47-13.52c0-1.3-.23-1.57-1.2-1.57h-.52c-.97,0-1.18.27-1.18,1.57v9.91c0,1.28.21,1.57,1.18,1.57h.52c.97,0,1.2-.29,1.2-1.57v-9.91Z"/>
        <path class="cls-2" d="m157.75,59.77c-2.39,0-3.97-1.41-3.97-4.77v-7.62c0-3.34,1.55-4.77,3.97-4.77s3.99,1.45,3.99,4.77v7.62c0,3.38-1.55,4.77-3.99,4.77Zm1.47-13.52c0-1.3-.23-1.57-1.2-1.57h-.52c-.97,0-1.18.27-1.18,1.57v9.91c0,1.28.21,1.57,1.18,1.57h.52c.97,0,1.2-.29,1.2-1.57v-9.91Z"/>
        <circle class="cls-4" cx="141.67" cy="52.36" r="2.79"/>
      </g>
      <polygon class="cls-4" points="194.95 33.83 101.92 33.83 114.71 .42 207.78 0 194.95 33.83"/>
      <g>
        <path class="cls-2" d="m150.27,14.25v-3.82h-1.57v12.87h1.47v1.93h-5.33v-1.93h1.45v-12.87h-1.55v3.82h-1.97v-5.65h9.49v5.65h-1.97Z"/>
        <path class="cls-2" d="m152.86,25.23v-1.93h1.43v-12.77h-1.43v-1.93h5.29v1.93h-1.45v12.77h1.45v1.93h-5.29Z"/>
        <path class="cls-2" d="m158.66,25.23v-1.93h1.41v-12.77h-1.41v-1.93h8.29v5.17h-2.08v-3.28h-2.39v4.93h3.38v1.91h-3.38v6h2.39v-4.41h2.08v6.3h-8.29Z"/>
      </g>
    </g>
  </g>
</svg>