<?xml version="1.0" encoding="UTF-8"?>
<svg id="Layer_2" data-name="Layer 2" xmlns="http://www.w3.org/2000/svg" viewBox="0 0 309.39 143.96">
  <defs>
    <style>
      .cls-1 {
        fill: #3f3f3f;
      }

      .cls-2 {
        fill: #aeaeae;
      }

      .cls-3 {
        fill: #b5c2e4;
      }

      .cls-4 {
        fill: #c6b5b5;
      }

      .cls-5 {
        fill: #737374;
      }

      .cls-6 {
        fill: #5c5c5c;
      }

      .cls-7 {
        fill: #c4b5b5;
      }

      .cls-8 {
        fill: #908f8f;
      }

      .cls-9 {
        fill: #cb5d5d;
      }

      .cls-10 {
        fill: #7a9ad0;
      }

      .cls-11 {
        fill: #998180;
      }

      .cls-12 {
        fill: #3169b2;
      }

      .cls-13 {
        fill: #edf5f6;
      }

      .cls-14 {
        fill: #ededee;
      }

      .cls-15 {
        fill: #9d4141;
      }

      .cls-16 {
        fill: #ebebeb;
      }

      .cls-17 {
        fill: #899fca;
      }

      .cls-18 {
        fill: #231f20;
      }

      .cls-19 {
        fill: #ececec;
      }

      .cls-20 {
        fill: #bab0b0;
      }

      .cls-21 {
        fill: #d26463;
      }
    </style>
  </defs>
  <g id="Layer_1-2" data-name="Layer 1">
    <g id="Title">
      <g id="Airplane">
        <path class="cls-3" d="m239.93,72.4c-.57-.13-1.14-.24-1.7-.39-1.7-.45-3.39-.9-5.09-1.36-1.07-.29-2.13-.59-3.2-.88-1.49-.4-2.98-.78-4.46-1.17-3.09-.82-6.17-1.64-9.25-2.47-.1-.03-.19-.06-.4-.13,31.21-15.52,62.34-30.99,93.56-46.51-.14.44-.24.78-.37,1.12-.52,1.46-1.05,2.92-1.57,4.39-.79,2.23-1.58,4.46-2.37,6.69-.53,1.5-1.08,2.99-1.62,4.49-.66,1.86-1.31,3.72-1.97,5.58-.37,1.04-.74,2.09-1.11,3.13-.69,1.94-1.38,3.89-2.07,5.83-.41,1.14-.82,2.27-1.23,3.41-.68,1.91-1.35,3.81-2.03,5.72-.39,1.1-.79,2.2-1.19,3.31-.69,1.94-1.38,3.89-2.07,5.83-.42,1.18-.85,2.35-1.27,3.52-.54,1.51-1.06,3.03-1.6,4.54-.39,1.1-.79,2.2-1.19,3.31-.47,1.31-.93,2.61-1.39,3.92-.19.53-.18.54-.73.4-3.51-.94-7.02-1.89-10.54-2.83-2.65-.71-5.31-1.4-7.97-2.1-1.41-.37-2.82-.77-4.23-1.14-.09-.02-.2-.01-.33-.03-.14-.06-.23-.13-.34-.15-2.56-.69-5.12-1.37-7.68-2.06-1.83-.49-3.66-.99-5.5-1.47-.66-.18-1.33-.33-2.01-.52-.05-.16-.08-.3-.13-.43-.19-.49.03-.81.39-1.11.5-.41.98-.85,1.47-1.27,2.06-1.77,4.13-3.54,6.19-5.31,1.6-1.37,3.21-2.74,4.81-4.11,2.03-1.75,4.05-3.52,6.08-5.27,1.92-1.65,3.85-3.27,5.77-4.92,1.63-1.4,3.24-2.82,4.87-4.22,1.93-1.67,3.87-3.33,5.81-4.99,1.65-1.41,3.3-2.82,4.96-4.23,1.25-1.07,2.49-2.14,3.73-3.2,1.03-.89,2.06-1.77,3.09-2.66,1.06-.91,2.11-1.83,3.17-2.75,1.19-1.03,2.39-2.04,3.59-3.06,1-.86,2.01-1.71,3.01-2.58.71-.62,1.41-1.24,2.15-1.88.81-.67,1.59-1.32,2.37-1.97-.03-.03-.06-.07-.09-.1-.15.11-.3.21-.45.32-.67.53-1.35,1.05-2.04,1.59-2.12,1.6-4.21,3.19-6.3,4.78-1.27.97-2.52,1.97-3.8,2.93-1.37,1.05-2.76,2.07-4.13,3.11-1.46,1.11-2.9,2.22-4.36,3.33-1.69,1.3-3.39,2.59-5.08,3.89-1.19.91-2.37,1.83-3.56,2.74-1.65,1.25-3.3,2.49-4.95,3.74-1.38,1.05-2.76,2.12-4.14,3.18-1.47,1.12-2.95,2.24-4.43,3.36-1.21.92-2.41,1.86-3.62,2.79-1.65,1.26-3.32,2.51-4.97,3.77-1.37,1.05-2.74,2.1-4.11,3.15-1.47,1.12-2.95,2.24-4.43,3.36-1.22.93-2.43,1.87-3.65,2.81-.92.7-1.84,1.39-2.76,2.08-.52.39-1.05.76-1.57,1.13m68.65-52.19s-.03.01-.04.02c.01,0,.02,0,.04-.02Z"/>
        <path class="cls-10" d="m305.98,22.4c-.71.62-1.41,1.25-2.12,1.86-1,.86-2,1.72-3.01,2.58-1.2,1.02-2.4,2.04-3.59,3.06-1.06.91-2.11,1.83-3.17,2.75-1.03.89-2.06,1.77-3.09,2.66-1.24,1.07-2.49,2.14-3.73,3.2-1.65,1.41-3.3,2.82-4.96,4.23-1.94,1.66-3.88,3.32-5.81,4.99-1.63,1.4-3.24,2.82-4.87,4.22-1.92,1.65-3.85,3.27-5.77,4.92-2.03,1.75-4.05,3.52-6.08,5.27-1.6,1.38-3.21,2.74-4.81,4.11-2.07,1.77-4.13,3.54-6.19,5.31-.49.42-.97.86-1.47,1.27-.36.3-.58.62-.39,1.11.05.13.08.27.11.44-.02.12-.04.19-.03.26.31,2.71.61,5.42.93,8.13.45,3.84.9,7.69,1.35,11.53.02.17,0,.34-.01.51-.05-.1-.12-.2-.16-.3-3.05-7.35-6.09-14.7-9.15-22.09.51-.41,1.04-.78,1.56-1.17.93-.69,1.85-1.38,2.76-2.08,1.22-.93,2.43-1.87,3.65-2.81,1.47-1.12,2.95-2.24,4.43-3.36,1.37-1.05,2.74-2.1,4.11-3.15,1.66-1.26,3.32-2.51,4.97-3.77,1.21-.92,2.41-1.86,3.62-2.79,1.47-1.12,2.95-2.24,4.43-3.36,1.38-1.05,2.76-2.12,4.14-3.18,1.65-1.25,3.3-2.49,4.95-3.74,1.19-.91,2.37-1.83,3.56-2.74,1.69-1.3,3.39-2.59,5.08-3.89,1.45-1.11,2.9-2.23,4.36-3.33,1.37-1.04,2.76-2.07,4.13-3.11,1.27-.97,2.52-1.96,3.8-2.93,2.09-1.6,4.18-3.18,6.32-4.77.09.05.13.1.17.15Z"/>
        <path class="cls-12" d="m249.26,94.84c0-.2.03-.37,0-.53-.45-3.84-.9-7.69-1.35-11.53-.32-2.71-.62-5.42-.93-8.13,0-.07.02-.14.05-.23.69.15,1.36.3,2.02.47,1.83.49,3.67.98,5.5,1.47,2.56.68,5.12,1.37,7.68,2.06.11.03.2.09.31.16-1.57,2.01-3.14,4-4.72,5.99-2.23,2.8-4.46,5.6-6.68,8.4-.49.61-.98,1.23-1.47,1.84-.1.13-.22.31-.41.04Z"/>
        <path class="cls-17" d="m306,22.39c-.07-.04-.11-.09-.17-.15.65-.54,1.33-1.07,2-1.6.15-.11.3-.22.45-.32.03.03.06.07.09.1-.78.65-1.56,1.31-2.37,1.97Z"/>
        <path class="cls-17" d="m308.57,20.22s-.03.01-.04.01c.01,0,.03-.01.04-.01Z"/>
      </g>
      <g id="Rock">
        <path class="cls-5" d="m47.43,79.12c.07.03.17.03.22.08,1.03.97,1.94,2.04,2.56,3.33,1.04,2.15,2.11,4.28,3.15,6.43.71,1.46.8,3,.44,4.61-.45.34-.9.6-1.24.95-.78.8-1.48,1.67-2.27,2.46-.59.58-1.29.99-2.2.91-1.11-.1-1.69-.82-2.11-1.73-.28-.62-.12-1.44.28-1.71.89-.58.94-.73.51-1.71-.22-.49-.88-1.07-1.35-1.12.11.23.19.43.29.62.47.83.21,1.47-.69,1.82-.28.11-.6.32-.73.58-.21.39-.37.86-.37,1.3,0,1.06.2,2.12.17,3.18-.04,1.5-.64,2.8-1.84,3.75-.8.63-1.68,1.17-2.5,1.79-1.33.99-2.74,1.8-4.36,2.2-.44.11-.88.26-1.32.35-.06-.08-.11-.14-.17-.14-1.84-.11-3.69-.17-5.52-.34-.83-.08-1.7-.25-2.46-.6-1.34-.62-2.41-1.59-3.02-3.01-.14-.34-.45-.61-.71-.94-.51-.51-.75-.49-1.1.08-.07.11-.11.25-.15.38-.2.67-.43,1.34-.59,2.02-.2.88-1.77,2.2-2.98,1.79-.91-.31-1.79-.68-2.68-1.03-.62-.25-1.23-.51-1.93-.44-.49.05-.73.27-.68.76.02.23.13.46.18.69.07.37-.06.63-.47.62-.29-.01-.59-.05-.85-.16-.53-.23-1.04-.5-1.54-.8-2.14-1.27-3.85-3-5.28-5.02-1-1.42-1.97-2.87-2.98-4.29-.21-.29-.5-.53-.76-.79-.11-1.18-.23-2.37-.3-3.6.15-.21.27-.35.35-.52.34-.72.67-1.45,1.03-2.15.17,1.14.37,2.25,1.14,3.12.66.74,1.37,1.46,2.13,2.1.68.57,1.83.72,2.58.07.36-.32.63-.76.92-1.15.26-.36.44-.78.74-1.09.42-.44.82-.34,1.11.19.07.13.12.29.15.44.31,1.42.6,2.85.93,4.26.22.96.41,1.95.78,2.86.4,1,1.45,1.12,2.3.43,1.17-.94,2.34-1.91,3.59-2.74,1.06-.71,2.23-1.26,3.38-1.83,1.24-.62,2.56-.86,3.94-.57.41.09.83.19,1.27.29.12.09.22.17.31.24,1.79,1.48,3.79,1.71,5.9.89,1.25-.48,2.47-1.06,3.66-1.67,1.61-.83,2.97-1.93,3.55-3.76.09-.28.3-.54.5-.77.75-.82,1.7-1.3,2.79-1.44,2.05-.25,4.1-.43,6.18-.64.05-.04.06-.08.07-.13,0-.02-.01-.05.03-.06.44.06.69-.18.89-.47.42-.61.45-1.33.3-1.98-.33-1.45-.72-2.89-1.23-4.28-.24-.65-.8-1.18-1.22-1.79-.24-.39-.48-.75-.71-1.12Z"/>
        <path class="cls-2" d="m47.43,79.12c.24.36.47.72.72,1.15.44,1.08.7,2.11.62,3.22-.11,1.61-1.47,2.54-2.64,2.33-2.63-.47-5.23-1.06-7.85-1.59-1.35-.27-2.68-.67-4.1-.56-1.25.1-2.42.45-3.39,1.22-1.1.87-2.07,1.91-3.11,2.86-1.22,1.13-2.4,2.31-3.69,3.35-.98.79-2.17.98-3.41.56-.45-.15-.86-.44-1.32-.52-1.18-.2-2.07.36-2.6,1.35-.77,1.45-1.41,2.97-2.13,4.46-.34.71-.68,1.42-1.09,2.09-.28.47-.72.45-.86-.07-.22-.8-.34-1.63-.42-2.46-.14-1.45-.21-2.9-.33-4.35-.16-2-.34-3.99-.51-5.98-.07-.77-.32-1.48-1.04-1.85-.69-.36-1.34-.01-1.94.34-.26.16-.5.36-.77.52-.85.51-1.92.4-2.56-.35-.31-.36-.49-.84-.71-1.3.71-.75.77-.73,1.49-.08.24.22.62.39.94.41.95.06,1.65-.49,2.27-1.13.11-.12.14-.31.2-.47-.17-.02-.35-.06-.52-.06-.54,0-1.1.1-1.62,0-.61-.13-.76-.74-.34-1.2.33-.37.69-.73,1.09-1.01,1.88-1.27,4.04-1.97,6.12-2.83,2.39-.99,4.92-1.47,7.49-1.76,1.75-.2,3.49-.49,5.25-.69.91-.1,1.83-.32,2.75-.08.93.24,1.23.71.87,1.58-.62,1.49-1.3,2.95-1.94,4.44-.12.28-.15.6-.23.9.05.04.1.07.15.11.23-.09.5-.14.67-.29.79-.69,1.6-1.36,2.3-2.13.9-.98,1.58-2.11,2.07-3.36.38-.96,1.23-1.23,2.17-.78.29.14.54.37.82.52.21.11.45.16.79.27-.21-1.11-.75-1.83-1.47-2.44-.85-.72-1.87-1.05-2.91-1.35,2.12.1,4.07.74,5.91,1.77,2.25,1.26,4.53,2.46,6.78,3.72.61.34,1.17.78,1.75,1.21,0,.07.02.1.04.13,0,0,0,0,0,.02.04.04.07.06.1.08,0,0,0,0,0,.03.04.04.07.06.1.08,0,0,0,0,0,0m-30.34,8.07c-1.82-.96-3.32-2.26-4.43-4.04-.11.19-.17.35-.17.5-.04,1.55.85,2.63,1.95,3.52,1.55,1.24,3.4,2,5.19,2.82,1.16.53,2.38.48,3.52-.17.63-.36,1.01-.93,1.19-1.66-.3.02-.56.06-.78.19-.82.51-1.7.55-2.63.45-1.42-.15-2.59-.88-3.84-1.61Z"/>
        <path class="cls-6" d="m.37,96.02c.26.22.55.45.76.75,1.01,1.42,1.98,2.86,2.98,4.29,1.42,2.02,3.14,3.75,5.28,5.02.5.3,1.01.57,1.54.8.26.11.56.15.85.16.41.02.54-.25.47-.62-.04-.23-.15-.46-.18-.69-.05-.49.19-.71.68-.76.7-.07,1.31.19,1.93.44.89.35,1.78.72,2.68,1.03,1.21.41,2.78-.91,2.98-1.79.16-.68.39-1.35.59-2.02.04-.13.08-.27.15-.38.35-.57.59-.59,1.1-.04.16.57.29,1.06.44,1.55.32,1.03.75,1.98,1.63,2.67,1.14.9,2.39,1.19,3.84,1.06,1.98-.18,3.97-.18,5.96-.25.44-.13.87-.28,1.32-.39,1.62-.4,3.04-1.21,4.36-2.2.82-.61,1.7-1.15,2.5-1.79,1.2-.95,1.8-2.25,1.84-3.75.03-1.06-.16-2.12-.17-3.18,0-.44.16-.91.37-1.3.13-.25.45-.47.73-.58.9-.35,1.16-.99.69-1.82-.11-.19-.18-.39-.29-.62.47.05,1.14.63,1.35,1.12.43.98.39,1.13-.51,1.71-.41.27-.56,1.09-.28,1.71.41.91,1,1.63,2.11,1.73.9.08,1.61-.33,2.2-.91.79-.78,1.49-1.66,2.27-2.46.34-.35.79-.61,1.22-.91-.08.41-.14.84-.32,1.22-.57,1.23-1.18,2.44-1.81,3.72-.36.7-.71,1.33-1,1.98-.5,1.14-1.21,2.14-2.07,3.02-1.04,1.06-2.22,1.91-3.59,2.53-1.4.63-2.73,1.41-4.11,2.1-1.35.67-2.73,1.29-4.07,1.97-1.76.9-3.62,1.36-5.58,1.44-.92.04-1.85-.05-2.78-.09-1.46-.07-2.91-.14-4.37-.21-.63-.03-1.27-.06-1.9-.11-1.86-.13-3.72-.3-5.59-.39-1.98-.1-3.83-.66-5.53-1.61-1.42-.79-2.77-1.72-4.09-2.67-1.32-.95-2.44-2.12-3.25-3.54-.78-1.37-1.47-2.78-2.2-4.18-.33-.73-.66-1.45-.99-2.18-.07-.17-.12-.35-.17-.57Z"/>
        <path class="cls-1" d="m1.5,98.81c.75,1.37,1.44,2.78,2.22,4.15.81,1.42,1.93,2.59,3.25,3.54,1.32.95,2.67,1.88,4.09,2.67,1.7.95,3.55,1.51,5.53,1.61,1.86.09,3.72.26,5.59.39.63.04,1.27.08,1.9.11,1.46.07,2.91.15,4.37.21.93.04,1.85.13,2.78.09,1.96-.08,3.82-.54,5.58-1.44,1.34-.69,2.72-1.3,4.07-1.97,1.38-.69,2.71-1.47,4.11-2.1,1.37-.62,2.56-1.47,3.59-2.53.86-.88,1.57-1.88,2.07-3.02.29-.66.64-1.28,1-1.95.63.64,1.24,1.29,1.83,1.97.76.87.67,2.42-.11,3.22-.85.88-1.67,1.79-2.46,2.72-1.34,1.56-3.06,2.5-4.99,3.05-3.12.89-6.25,1.74-9.39,2.57-2.36.63-4.78.8-7.22.71-3.8-.14-7.6-.34-11.41-.37-4.09-.03-7.92-1.05-11.61-2.71-1.44-.65-2.72-1.54-3.73-2.79-.54-.67-1.13-1.3-1.69-1.95-.96-1.11-1.13-2.51-.49-3.82.38-.77.73-1.55,1.12-2.36Z"/>
        <path class="cls-14" d="m32.71,72.07c1.07.33,2.09.66,2.94,1.38.72.61,1.26,1.33,1.47,2.44-.34-.11-.58-.16-.79-.27-.29-.15-.53-.38-.82-.52-.94-.45-1.79-.18-2.17.78-.49,1.25-1.17,2.38-2.07,3.36-.71.77-1.52,1.44-2.3,2.13-.18.15-.45.2-.67.29-.05-.04-.1-.07-.15-.11.07-.3.11-.62.23-.9.64-1.48,1.33-2.94,1.94-4.44.36-.87.06-1.34-.87-1.58-.93-.24-1.84-.03-2.75.08-1.75.2-3.49.5-5.25.69-2.57.29-5.1.77-7.49,1.76-2.08.86-4.23,1.55-6.12,2.83-.41.28-.76.64-1.09,1.01-.42.46-.27,1.07.34,1.2.52.11,1.08,0,1.62,0,.17,0,.35.04.52.06-.07.16-.09.36-.2.47-.62.65-1.32,1.19-2.27,1.13-.33-.02-.7-.19-.94-.41-.72-.65-.78-.68-1.52.1-.1.14-.18.21-.22.3-.88,1.94-1.77,3.88-2.65,5.82-.33.73-.66,1.45-1,2.18-.08.17-.2.31-.33.48,0-.37-.04-.77.05-1.14.63-2.53,1.26-5.06,1.93-7.57.27-1,.54-2.03,1.04-2.93.55-.99,1.25-1.94,2.29-2.53,1.12-.62,2.24-1.24,3.39-1.8,1.83-.89,3.64-1.83,5.53-2.57,1.33-.52,2.76-.81,4.21-.88,1.71-.09,3.43-.2,5.14-.31,1.96-.13,3.93-.28,5.89-.41,1.04-.07,2.08-.11,3.15-.13Z"/>
        <path class="cls-8" d="m1.45,89.71c.85-1.97,1.73-3.91,2.62-5.85.04-.09.12-.17.2-.27.27.41.44.89.75,1.25.65.75,1.71.86,2.56.35.26-.16.5-.36.77-.52.6-.36,1.25-.7,1.94-.34.72.37.97,1.08,1.04,1.85.18,1.99.35,3.99.51,5.98.12,1.45.19,2.91.33,4.35.08.83.2,1.66.42,2.46.14.52.58.55.86.07.4-.67.75-1.38,1.09-2.09.71-1.48,1.36-3,2.13-4.46.53-.99,1.42-1.56,2.6-1.35.46.08.87.37,1.32.52,1.23.43,2.43.23,3.41-.56,1.29-1.04,2.47-2.23,3.69-3.35,1.03-.96,2.01-1.99,3.11-2.86.96-.76,2.14-1.12,3.39-1.22,1.41-.11,2.74.29,4.1.56,2.62.53,5.22,1.11,7.85,1.59,1.17.21,2.54-.72,2.64-2.33.07-1.11-.18-2.14-.62-3.18.41.54.98,1.07,1.21,1.72.51,1.39.89,2.84,1.23,4.28.15.65.12,1.37-.3,1.98-.2.29-.44.53-.93.47-1.36-.03-2.63-.08-3.9-.11-.95-.02-1.9.03-2.84-.04-1.06-.07-2.05.12-2.98.64-.57.31-.99.75-1.27,1.37-.31.66-.68,1.31-1.14,1.88-1.14,1.41-2.75,2.18-4.36,2.85-.95.4-2,.57-3.03.72-1,.15-1.98-.11-2.92-.46-.23-.09-.49-.08-.85-.14.16.3.24.45.31.6-.41-.09-.82-.19-1.24-.28-1.38-.29-2.7-.05-3.94.57-1.15.57-2.31,1.13-3.38,1.83-1.25.83-2.42,1.8-3.59,2.74-.85.69-1.9.57-2.3-.43-.37-.91-.55-1.9-.78-2.86-.33-1.42-.62-2.84-.93-4.26-.03-.15-.08-.3-.15-.44-.29-.54-.69-.63-1.11-.19-.3.31-.48.74-.74,1.09-.29.4-.55.84-.92,1.15-.74.65-1.89.5-2.58-.07-.76-.64-1.47-1.35-2.13-2.1-.77-.87-.97-1.98-1.14-3.12Z"/>
        <path class="cls-16" d="m26.39,96.08c-.11-.16-.19-.31-.34-.62.36.06.63.05.85.14.95.36,1.92.61,2.92.46,1.03-.15,2.08-.33,3.03-.72,1.62-.67,3.23-1.44,4.36-2.85.46-.57.83-1.22,1.14-1.88.29-.61.71-1.05,1.27-1.37.92-.51,1.91-.71,2.98-.64.94.06,1.89.02,2.84.04,1.27.03,2.54.07,3.86.11.04,0,.05.03.03.07-.04.06-.06.09-.08.12-2.05.21-4.11.39-6.15.64-1.09.13-2.04.62-2.79,1.44-.21.22-.41.49-.5.77-.58,1.83-1.94,2.93-3.55,3.76-1.19.61-2.41,1.19-3.66,1.67-2.11.82-4.11.59-5.9-.89-.09-.08-.19-.15-.31-.24Z"/>
        <path class="cls-8" d="m34.06,107.2c-1.98.11-3.98.11-5.96.29-1.46.13-2.71-.16-3.84-1.06-.88-.69-1.31-1.65-1.63-2.67-.15-.49-.28-.99-.42-1.52.24.26.55.53.69.87.61,1.42,1.68,2.39,3.02,3.01.75.35,1.62.52,2.46.6,1.84.17,3.68.23,5.52.34.06,0,.11.07.17.14Z"/>
        <path class="cls-19" d="m17.12,87.21c1.22.71,2.39,1.44,3.81,1.59.93.1,1.81.06,2.63-.45.21-.13.48-.18.78-.19-.18.73-.56,1.3-1.19,1.66-1.14.65-2.36.7-3.52.17-1.79-.82-3.64-1.58-5.19-2.82-1.1-.89-1.99-1.97-1.95-3.52,0-.15.06-.31.17-.5,1.11,1.78,2.61,3.09,4.46,4.06Z"/>
      </g>
      <g id="Scissors">
        <path class="cls-4" d="m168.66,22.87c.68,1.22,1.38,2.44,2.03,3.68.24.45.53.59,1.02.59,3.97,0,7.94-.01,11.91.05,5.92.09,11.83.22,17.75.34,1.61.03,3.01,1.29,3.14,2.75.04.45-.1.6-.55.81-1.94.86-4.02.58-6.03.85-2.02.28-4.06.4-6.09.58-4.76.43-9.53.85-14.29,1.27-.88.08-1.76.14-2.73.16-.32-.22-.53-.42-.78-.56-.78-.43-1.58-.84-2.35-1.31.4-.68.48-1.32,0-1.93-.76-.95-1.93-.74-2.68.46-.06.02-.09.04-.17.04-.84-.4-1.63-.77-2.42-1.19.11-.27.18-.51.33-.69,1.12-1.36,1.11-1.35.28-2.96-.28-.55-.46-1.14-.65-1.75.79-.42,1.55-.8,2.31-1.19Z"/>
        <path class="cls-11" d="m166.39,29.52c.79.37,1.58.74,2.44,1.15.08.04.13.06.14.07,0,.01.02.03,0,.07-.06.79.26,1.45.79,1.67.61.26,1.3.1,1.79-.4.03.01.09.04.09.04.79.42,1.59.82,2.37,1.25.25.14.46.34.74.54.13.27.18.54.3.77,4.34,8.17,8.69,16.33,13.04,24.49.09.18.18.36.33.66-.57.26-1.11.51-1.75.74-1.21-.23-2.26-.59-2.93-1.57-3.66-5.37-7.32-10.75-10.96-16.14-1.76-2.61-3.5-5.23-5.19-7.89-.34-.54-.66-.67-1.25-.6-1.14.12-2.29.16-3.48.21-.13-.93-.22-1.84-.32-2.75.83-.11,1.65-.21,2.56-.33.34-.03.6-.05.72-.06.21-.72.39-1.34.57-1.95Z"/>
        <path class="cls-15" d="m162.51,31.81c.12.95.21,1.86.32,2.84,0,.19-.02.3-.03.41-1.88.68-3.87.63-5.82.84-1.05.12-2.11.19-3.17.3-.2.02-.47.11-.58.26-1.31,1.94-3.27,2.84-5.41,3.49-.09.03-.17.05-.34.08-.11.03-.15.06-.19.08,0,0,0,0-.04-.02-.4.03-.76.09-1.12.13-2.78.26-5.43,0-7.77-1.72-1.93-1.42-2.29-3.7-.84-5.6.35-.46.77-.88,1.16-1.32,0,0,0,0,.04,0,.1-.06.15-.12.21-.18,0,0,.05-.02.1-.04.09-.05.12-.09.15-.12,3.46-1.96,7.08-2.42,10.87-1.14,1.07.36,2.03.93,2.75,1.81.27.33.55.38.94.35,2.69-.25,5.37-.49,8.06-.72.21-.02.44.13.69.25m-19.75-.07s0-.03-.07-.04c-.05,0-.09.03-.21.07-.74.47-1.58.83-2.21,1.42-1.39,1.31-1.22,3.06.3,4.2,2.09,1.57,6.06,1.63,8.32.16.5-.39,1.05-.72,1.48-1.17,1.12-1.19.99-2.88-.32-3.86-.57-.43-1.23-.79-1.9-.99-1.53-.47-3.09-.6-4.64,0,0,0,0,0-.08-.04-.16.06-.32.12-.47.2,0,0-.01-.02-.08-.04-.04.02-.08.05-.11.1Z"/>
        <path class="cls-9" d="m168.69,22.83c-.78.43-1.54.82-2.38,1.24-.44.21-.6.02-.76-.28-1.21-2.3-2.45-4.59-3.65-6.91-.27-.52-.57-.85-1.2-.93-.48-.06-.96-.25-1.41-.46-1.87-.86-3.28-2.28-4.3-4.02-1.96-3.38-3.14-6.87-.65-10.55,0,0,0-.01.04,0,.07-.03.1-.06.13-.1,0,0,.04-.03.1-.05.1-.03.13-.06.15-.1,2.28-1.32,4.28-.51,6.07.94,2.74,2.23,4.29,5.17,4.64,8.7.13,1.28-.03,2.52-.6,3.71-.11.22-.03.61.1.86,1.25,2.39,2.52,4.77,3.79,7.15.14.27.39.55-.08.81m-12.27-19.91s-.08.03-.21.1c-1,.71-1.26,1.76-1.23,2.87.06,2.94,1.34,5.28,3.74,6.95.85.59,1.84.99,3.02.51,1.03-.31,1.43-1.14,1.66-2.07.45-1.88-.1-3.6-1-5.22-.81-1.46-1.93-2.63-3.52-3.26-.8-.32-1.61-.46-2.37.13,0,0-.01-.01-.08-.02Z"/>
        <path class="cls-20" d="m162.84,35.07c-.03-.12-.01-.23.03-.39,1.17-.12,2.32-.16,3.46-.29.59-.06.91.07,1.25.6,1.69,2.65,3.43,5.28,5.19,7.89,3.64,5.39,7.3,10.76,10.96,16.14.67.98,1.73,1.34,2.89,1.58-.53.11-1.16.38-1.69.25-.89-.21-1.7-.66-2.27-1.5-5.1-7.58-10.22-15.14-15.34-22.7-.4-.6-.67-1.47-1.23-1.74-.59-.28-1.45.03-2.2.08-.34.02-.68.05-1.06.08Z"/>
        <path class="cls-20" d="m154.3.91c-2.45,3.69-1.27,7.17.69,10.56,1.01,1.75,2.42,3.16,4.3,4.02.45.21.93.4,1.41.46.63.07.93.41,1.2.93,1.2,2.31,2.44,4.6,3.65,6.91.16.3.32.49.72.31.27.57.45,1.17.73,1.71.83,1.61.85,1.6-.28,2.96-.15.18-.22.43-.33.69-.18.66-.36,1.27-.57,2-.12,0-.38.03-.68.03-.1-1.43.33-2.3,1.78-3.6-.52-.96-.91-2.06-1.61-2.89-1.98-2.36-2.94-5.28-4.51-7.86-.24-.4-.47-.64-.96-.72-1.48-.23-2.72-.99-3.77-2.01-2.61-2.51-4.07-5.55-4.07-9.23,0-1.22.39-2.33,1.08-3.3.29-.4.77-.66,1.22-.97Z"/>
        <path class="cls-20" d="m138.64,31.6c-.34.44-.76.86-1.11,1.32-1.45,1.9-1.1,4.18.84,5.6,2.34,1.72,5,1.98,7.77,1.72.36-.03.72-.1,1.12-.13-.31.14-.65.32-1.01.39-2.88.55-5.68.41-8.28-1.12-.91-.54-1.63-1.27-2.06-2.27-.68-1.59-.02-2.9.91-4.08.46-.58,1.18-.96,1.83-1.43Z"/>
        <path class="cls-21" d="m171.67,32.08c-.02.05-.08.03-.16-.01-.16-.09-.25-.14-.32-.23.46-.89.29-1.48-.48-1.73-.54-.18-.99.1-1.39.81-.14-.06-.23-.1-.32-.13,0,0-.02-.02,0-.06,0-.04.02-.1.02-.1.72-1.2,1.89-1.41,2.65-.46.49.61.41,1.24,0,1.93Z"/>
        <path class="cls-15" d="m171.17,31.88c.09.05.18.1.31.17-.41.54-1.1.7-1.71.44-.52-.23-.85-.88-.79-1.67.11,0,.21.04.36.11.06.04.1.08.08.13.19,1.03.76,1.3,1.65.82.03,0,.09,0,.09,0Z"/>
        <path class="cls-13" d="m148.81,37.52c-2.17,1.51-6.14,1.44-8.23-.13-1.52-1.14-1.69-2.89-.3-4.2.62-.59,1.46-.95,2.29-1.41.12-.02.16-.04.19-.07,0,0,0,.03.04.03.07-.03.11-.05.15-.08,0,0,.01.02.05.03.19-.05.35-.11.52-.17,0,0,0,0,.04.03.24.04.44.05.64.05,1.68-.04,3.28.18,4.7,1.19,1.45,1.04,1.66,2.71.49,4.05-.19.22-.38.45-.57.67Z"/>
        <path class="cls-20" d="m148.85,37.53c.15-.24.33-.46.53-.68,1.17-1.34.96-3.02-.49-4.05-1.41-1.01-3.02-1.24-4.7-1.19-.2,0-.4,0-.64-.04,1.5-.64,3.07-.51,4.6-.04.67.21,1.34.57,1.9.99,1.31.99,1.45,2.67.32,3.86-.43.45-.98.78-1.52,1.15Z"/>
        <path class="cls-13" d="m161.64,13.32c-1.08.51-2.07.12-2.92-.48-2.41-1.67-3.68-4.02-3.74-6.95-.02-1.11.24-2.17,1.32-2.88.12-.03.15-.06.19-.08,0,0,.01.01.05.03.31.06.58.07.84.14,1.94.51,3.21,1.85,4.08,3.54,1.12,2.17,1.76,4.41.18,6.68Z"/>
        <path class="cls-20" d="m161.69,13.34c1.53-2.28.89-4.52-.23-6.69-.87-1.7-2.14-3.03-4.08-3.54-.26-.07-.53-.08-.85-.15.72-.6,1.53-.46,2.34-.14,1.59.63,2.71,1.79,3.52,3.26.9,1.62,1.45,3.34,1,5.22-.22.92-.63,1.76-1.7,2.05Z"/>
        <path class="cls-7" d="m171.2,31.83c-.03.05-.09.05-.17,0-.58-.31-1.09-.56-1.59-.82,0,0-.03-.04-.05-.06.34-.74.79-1.02,1.33-.85.77.25.94.83.48,1.73Z"/>
        <path class="cls-11" d="m169.43,31.06c.51.21,1.02.47,1.57.78-.81.53-1.38.25-1.57-.78Z"/>
      </g>
      <g>
        <path class="cls-18" d="m37.13,41.24v-8.91c0-1.46-.1-1.7-1.16-1.7h-.71v10.61h-8.26v-5.07h1.67v-16.79h-1.67v-5.07h9.42c5.47,0,7.55,1.97,7.55,6.36v1.46c0,3.06-1.7,4.83-4.22,5.17v.14c2.96.2,4.08,1.8,4.08,5v3.74h1.56v5.07h-8.26Zm.1-20.74c0-1.16-.14-1.36-1.12-1.36h-.85v6.63h.85c.99,0,1.12-.17,1.12-1.36v-3.91Z"/>
        <path class="cls-18" d="m53.55,41.75c-5.1,0-7.75-2.35-7.75-8.09v-11.76c0-5.71,2.58-8.06,7.75-8.06s7.79,2.35,7.79,8.06v11.76c0,5.78-2.65,8.09-7.79,8.09Zm.99-21.35c0-1.12-.17-1.43-.88-1.43h-.24c-.71,0-.85.31-.85,1.43v14.75c0,1.16.14,1.46.88,1.46h.2c.71,0,.88-.31.88-1.46v-14.75Z"/>
        <path class="cls-18" d="m70.76,41.75c-4.86,0-7.62-2.38-7.62-8.09v-11.73c0-5.75,2.75-8.09,7.62-8.09,4.25,0,7.24,2.01,7.24,6.26v4.22h-6.43v-5.3h-.65c-.78,0-1.02.31-1.02,1.43v14.69c0,1.16.24,1.43,1.02,1.43h.65v-6.43h6.43v5.37c0,4.22-2.99,6.26-7.24,6.26Z"/>
        <path class="cls-18" d="m87.14,41.24h-8.26v-5.07h1.67v-16.79h-1.67v-5.07h8.26v12.1l2.55-12.1h7.1v5.07h-1.46l-1.9,6.97,2.07,9.83h1.46v5.07h-7.48l-2.35-13.43v13.43Z"/>
      </g>
      <g>
        <path class="cls-18" d="m72.42,67.48h-1.19v4.22h1.8v5.07h-10.03v-5.07h1.67v-16.79h-1.67v-5.07h9.52c5.27,0,7.38,2.18,7.38,6.6v4.39c0,4.39-2.18,6.66-7.48,6.66Zm.71-11.25c0-1.19-.14-1.39-1.09-1.39h-.82v7.68h.82c.95,0,1.09-.2,1.09-1.36v-4.93Z"/>
        <path class="cls-18" d="m89.28,76.76l-.51-7.21h-2.28l-.54,7.21h-7v-5.07h1.46l2.21-21.86h10.54l2.31,21.86h1.46v5.07h-7.65Zm-1.46-21.35h-.31l-.71,9.08h1.67l-.65-9.08Z"/>
        <path class="cls-18" d="m106.79,67.48h-1.19v4.22h1.8v5.07h-10.03v-5.07h1.67v-16.79h-1.67v-5.07h9.52c5.27,0,7.38,2.18,7.38,6.6v4.39c0,4.39-2.18,6.66-7.48,6.66Zm.71-11.25c0-1.19-.14-1.39-1.09-1.39h-.82v7.68h.82c.95,0,1.09-.2,1.09-1.36v-4.93Z"/>
        <path class="cls-18" d="m114.78,76.76v-5.07h1.67v-16.79h-1.67v-5.07h15.5v8.67h-5.47v-3.77h-1.84v5.3h5.47v4.93h-5.47v6.9h1.84v-5.44h5.47v10.33h-15.5Z"/>
        <path class="cls-18" d="m141.3,76.76v-8.91c0-1.46-.1-1.7-1.16-1.7h-.71v10.61h-8.26v-5.07h1.67v-16.79h-1.67v-5.07h9.42c5.47,0,7.55,1.97,7.55,6.36v1.46c0,3.06-1.7,4.83-4.22,5.17v.14c2.96.2,4.08,1.8,4.08,5v3.74h1.56v5.07h-8.26Zm.1-20.74c0-1.16-.14-1.36-1.12-1.36h-.85v6.63h.85c.99,0,1.12-.17,1.12-1.36v-3.91Z"/>
      </g>
      <g>
        <path class="cls-18" d="m109.03,107.12v-1.22c0-1.39-.44-1.8-3.03-3.57-3.77-2.58-5.3-4.08-5.3-8.43v-.31c0-5,3.13-7.75,7.58-7.75s7.38,2.18,7.38,6.73v2.96h-6.32v-4.35h-1.09c-.54,0-.88.31-.88,1.29v1.16c0,1.36.44,1.77,3.06,3.54,3.74,2.58,5.3,4.08,5.3,8.43v.31c0,5.07-3.16,7.82-7.65,7.82s-7.41-2.18-7.41-6.7v-2.99h6.32v4.39h1.16c.58,0,.88-.31.88-1.29Z"/>
        <path class="cls-18" d="m124.46,113.75c-4.86,0-7.62-2.38-7.62-8.09v-11.73c0-5.75,2.75-8.09,7.62-8.09,4.25,0,7.24,2.01,7.24,6.26v4.22h-6.43v-5.3h-.65c-.78,0-1.02.31-1.02,1.43v14.69c0,1.16.24,1.43,1.02,1.43h.65v-6.43h6.43v5.37c0,4.22-2.99,6.26-7.24,6.26Z"/>
        <path class="cls-18" d="m132.59,113.24v-5.07h1.73v-16.79h-1.73v-5.07h9.96v5.07h-1.7v16.79h1.7v5.07h-9.96Z"/>
        <path class="cls-18" d="m151.32,107.12v-1.22c0-1.39-.44-1.8-3.03-3.57-3.77-2.58-5.3-4.08-5.3-8.43v-.31c0-5,3.13-7.75,7.58-7.75s7.38,2.18,7.38,6.73v2.96h-6.32v-4.35h-1.09c-.54,0-.88.31-.88,1.29v1.16c0,1.36.44,1.77,3.06,3.54,3.74,2.58,5.3,4.08,5.3,8.43v.31c0,5.07-3.16,7.82-7.65,7.82s-7.41-2.18-7.41-6.7v-2.99h6.32v4.39h1.16c.58,0,.88-.31.88-1.29Z"/>
        <path class="cls-18" d="m167.07,107.12v-1.22c0-1.39-.44-1.8-3.03-3.57-3.77-2.58-5.3-4.08-5.3-8.43v-.31c0-5,3.13-7.75,7.58-7.75s7.38,2.18,7.38,6.73v2.96h-6.32v-4.35h-1.09c-.54,0-.88.31-.88,1.29v1.16c0,1.36.44,1.77,3.06,3.54,3.74,2.58,5.3,4.08,5.3,8.43v.31c0,5.07-3.16,7.82-7.65,7.82s-7.41-2.18-7.41-6.7v-2.99h6.32v4.39h1.16c.58,0,.88-.31.88-1.29Z"/>
        <path class="cls-18" d="m182.64,113.75c-5.1,0-7.75-2.35-7.75-8.09v-11.76c0-5.71,2.58-8.06,7.75-8.06s7.79,2.35,7.79,8.06v11.76c0,5.78-2.65,8.09-7.79,8.09Zm.99-21.35c0-1.12-.17-1.43-.88-1.43h-.24c-.71,0-.85.31-.85,1.43v14.75c0,1.16.14,1.46.88,1.46h.2c.71,0,.88-.31.88-1.46v-14.75Z"/>
        <path class="cls-18" d="m201.44,113.24v-8.91c0-1.46-.1-1.7-1.16-1.7h-.71v10.61h-8.26v-5.07h1.67v-16.79h-1.67v-5.07h9.42c5.47,0,7.55,1.97,7.55,6.36v1.46c0,3.06-1.7,4.83-4.22,5.17v.14c2.96.2,4.08,1.8,4.08,5v3.74h1.56v5.07h-8.26Zm.1-20.74c0-1.16-.14-1.36-1.12-1.36h-.85v6.63h.85c.99,0,1.12-.17,1.12-1.36v-3.91Z"/>
        <path class="cls-18" d="m218.3,107.12v-1.22c0-1.39-.44-1.8-3.03-3.57-3.77-2.58-5.3-4.08-5.3-8.43v-.31c0-5,3.13-7.75,7.58-7.75s7.38,2.18,7.38,6.73v2.96h-6.32v-4.35h-1.09c-.54,0-.88.31-.88,1.29v1.16c0,1.36.44,1.77,3.06,3.54,3.74,2.58,5.3,4.08,5.3,8.43v.31c0,5.07-3.16,7.82-7.65,7.82s-7.41-2.18-7.41-6.7v-2.99h6.32v4.39h1.16c.58,0,.88-.31.88-1.29Z"/>
      </g>
      <g>
        <path class="cls-1" d="m244.14,108.1l-.8-.59c1.48-2,2.22-3.24,2.23-3.25l.86.51c-.03.05-.77,1.29-2.29,3.34Z"/>
        <path class="cls-1" d="m170.85,143.96c-2.53,0-5.11-.11-7.68-.3l.07-1c2.55.19,5.11.29,7.61.3v1Zm7.68-.27l-.07-1c2.54-.19,5.08-.48,7.56-.86l.15.99c-2.5.39-5.07.68-7.64.87Zm-23-.87c-2.49-.35-5.03-.8-7.57-1.32l.2-.98c2.52.52,5.04.96,7.51,1.31l-.14.99Zm38.19-1.5l-.24-.97c2.46-.6,4.92-1.31,7.31-2.11l.32.95c-2.42.81-4.9,1.53-7.39,2.14Zm-53.23-1.59c-2.42-.64-4.9-1.37-7.37-2.17l.31-.95c2.45.79,4.91,1.51,7.32,2.15l-.26.97Zm67.8-3.32l-.4-.92c2.31-1.01,4.61-2.13,6.83-3.34l.48.88c-2.25,1.22-4.57,2.36-6.91,3.38Zm-82.42-1.37c-2.35-.88-4.75-1.84-7.12-2.85l.39-.92c2.36,1,4.74,1.96,7.08,2.83l-.35.94Zm95.92-5.97l-.55-.83c2.1-1.39,4.18-2.89,6.17-4.46l.62.79c-2.01,1.59-4.11,3.1-6.23,4.51Zm12.07-9.53l-.68-.73c1.86-1.74,3.65-3.57,5.34-5.43l.74.67c-1.7,1.89-3.52,3.73-5.39,5.49Z"/>
        <path class="cls-1" d="m111.72,129.03c-1.19-.56-2.4-1.15-3.61-1.75l.44-.9c1.21.6,2.4,1.18,3.59,1.74l-.43.9Z"/>
      </g>
    </g>
  </g>
</svg>